{"glyphs":{"0":{"ha":734,"x_min":56,"x_max":680,"o":"m 372 738 q 123 612 212 738 q 56 366 56 513 q 187 43 56 142 q 366 -14 263 -14 q 613 115 526 -14 q 680 362 680 214 q 536 693 680 600 q 372 738 465 738 m 370 22 q 227 153 262 22 q 206 362 206 232 q 313 692 206 646 q 369 703 339 703 q 510 571 476 703 q 529 368 529 495 q 422 31 529 77 q 370 22 399 22 z "},"1":{"ha":581,"x_min":27,"x_max":560,"o":"m 307 724 l 27 543 l 52 505 l 256 632 l 256 47 l 76 35 l 76 0 l 560 0 q 533 35 560 30 q 522 37 528 37 l 395 47 l 395 724 l 307 724 z "},"2":{"ha":648,"x_min":41,"x_max":574,"o":"m 115 111 q 214 216 115 157 q 282 254 236 228 q 488 393 434 336 q 556 541 556 463 q 419 719 556 673 q 294 738 362 738 q 88 669 160 738 q 43 566 43 625 q 88 488 43 503 q 110 484 99 484 q 183 544 171 484 q 189 589 186 559 q 218 684 195 662 q 282 703 241 703 q 408 601 384 703 q 414 548 414 575 q 304 327 414 414 q 184 248 289 316 q 60 123 88 186 q 41 33 41 81 l 41 0 l 572 0 l 574 239 l 547 239 l 524 171 q 469 114 507 122 q 425 111 453 111 l 115 111 z "},"3":{"ha":699,"x_min":54,"x_max":633,"o":"m 605 693 l 605 724 l 84 724 l 81 491 l 113 491 l 137 562 q 198 616 155 609 q 217 618 208 617 l 460 617 l 218 340 l 251 313 q 345 334 300 334 q 479 232 444 334 q 494 140 494 190 q 298 -73 491 -72 q 208 -7 224 -73 q 202 38 205 8 q 172 123 195 106 q 126 137 155 137 q 56 80 66 137 q 54 62 54 71 q 168 -83 54 -37 q 316 -109 233 -109 q 581 5 491 -109 q 633 159 633 75 q 548 330 633 269 q 389 376 483 376 q 300 366 343 376 l 605 693 z "},"4":{"ha":693,"x_min":11,"x_max":637,"o":"m 637 -92 q 620 -57 637 -60 q 605 -56 613 -56 l 515 -56 l 515 117 l 637 117 l 637 157 l 515 157 l 515 433 l 486 433 l 471 378 q 425 321 456 330 q 393 319 411 319 l 382 319 l 382 159 l 72 160 q 458 530 368 407 q 519 667 519 612 q 441 741 507 734 q 362 688 388 741 q 338 621 354 669 q 212 366 286 469 q 11 160 132 259 l 19 119 l 382 118 l 382 -56 l 233 -56 l 233 -92 l 637 -92 z "},"5":{"ha":671,"x_min":66,"x_max":625,"o":"m 625 156 q 521 361 625 290 q 357 407 452 407 q 168 353 250 406 l 168 610 q 354 600 279 600 q 536 636 498 600 q 570 779 570 673 l 536 779 q 484 723 524 735 q 389 715 453 715 q 240 720 350 715 q 123 724 165 723 l 123 335 l 168 301 q 316 357 236 357 q 472 243 434 357 q 486 151 486 201 q 384 -58 486 -12 q 309 -73 350 -73 q 222 -8 236 -73 q 217 37 220 5 q 189 123 212 104 q 140 137 170 137 q 68 83 80 137 q 66 62 66 72 q 159 -75 66 -24 q 309 -109 222 -109 q 566 -7 476 -109 q 625 156 625 62 z "},"6":{"ha":712,"x_min":65,"x_max":656,"o":"m 656 252 q 549 461 656 391 q 391 505 480 505 q 213 448 292 503 q 308 769 225 704 q 393 798 343 798 q 487 736 472 798 q 494 699 491 724 q 524 624 502 640 q 570 613 541 613 q 640 669 628 613 q 643 690 643 680 q 555 803 643 762 q 407 833 491 833 q 121 655 210 833 q 65 395 65 547 q 203 35 65 134 q 362 -14 271 -14 q 602 91 518 -14 q 656 252 656 161 m 209 236 q 324 457 209 423 q 368 463 345 463 q 517 252 515 460 q 363 22 515 23 q 213 171 237 22 q 209 236 209 202 z "},"7":{"ha":627,"x_min":42,"x_max":632,"o":"m 632 692 l 632 724 l 45 724 l 42 483 l 73 483 l 98 553 q 160 612 117 605 q 203 614 176 614 l 530 614 q 388 411 479 538 q 168 75 208 153 q 136 -34 136 9 q 193 -106 136 -94 q 216 -109 205 -109 q 292 -64 270 -109 q 331 73 298 -47 q 632 692 412 372 z "},"8":{"ha":734,"x_min":76,"x_max":651,"o":"m 347 -14 q 583 66 494 -14 q 651 216 650 129 q 525 404 651 321 q 468 438 500 419 q 598 601 578 498 q 602 636 602 618 q 486 808 602 758 q 361 833 430 833 q 148 750 221 833 q 100 618 100 696 q 229 434 100 515 q 260 416 244 426 q 84 258 118 373 q 76 199 76 228 q 182 26 76 85 q 347 -14 252 -14 m 224 671 q 316 785 224 761 q 377 793 345 793 q 526 727 476 793 q 555 636 555 688 q 469 483 555 545 q 430 458 452 469 q 271 563 309 525 q 224 671 224 612 m 123 202 q 208 351 123 294 q 305 391 250 378 q 465 292 429 323 q 526 172 525 236 q 419 38 526 72 q 332 26 380 26 q 165 92 227 26 q 123 202 123 140 z "},"9":{"ha":715,"x_min":56,"x_max":650,"o":"m 650 340 q 515 684 650 583 q 342 738 442 738 q 102 631 179 738 q 56 483 56 567 q 175 275 56 338 q 323 241 239 241 q 503 300 425 243 q 391 -56 498 5 q 319 -73 358 -73 q 225 -9 241 -73 q 218 28 221 3 q 187 106 210 90 q 142 117 170 117 q 69 66 84 117 q 66 43 66 56 q 156 -76 66 -31 q 301 -109 220 -109 q 591 64 499 -109 q 650 340 650 176 m 195 503 q 343 703 198 701 q 496 551 473 703 q 500 488 500 521 q 374 286 500 308 q 342 283 358 283 q 195 503 197 286 z "},"A":{"ha":850,"x_min":0,"x_max":850,"o":"m 850 0 q 830 34 850 31 q 817 35 823 35 l 773 35 l 458 814 l 387 814 l 85 35 l 0 35 l 0 0 l 244 0 q 227 34 244 30 q 210 35 218 35 l 140 35 l 240 298 l 518 298 l 620 35 l 529 35 l 529 0 l 850 0 m 502 338 l 255 338 l 378 659 l 502 338 z "},"Æ":{"ha":1199,"x_min":0,"x_max":1134,"o":"m 340 362 l 593 776 l 593 362 l 340 362 m 252 0 q 235 34 252 31 q 220 35 228 35 l 142 35 l 316 321 l 593 321 l 593 35 l 481 35 l 481 0 l 1127 0 l 1134 254 l 1101 254 l 1077 175 q 971 41 1043 62 q 926 35 949 35 l 738 35 l 738 400 l 1006 400 l 1006 439 l 738 439 l 738 779 l 926 779 q 1073 656 1029 779 q 1078 639 1076 647 l 1101 560 l 1134 560 l 1127 814 l 559 814 l 81 35 l 0 35 l 0 0 l 252 0 z "},"Á":{"ha":850,"x_min":0,"x_max":850,"o":"m 850 0 q 830 34 850 31 q 817 35 823 35 l 773 35 l 458 814 l 387 814 l 85 35 l 0 35 l 0 0 l 244 0 q 227 34 244 30 q 210 35 218 35 l 140 35 l 240 298 l 518 298 l 620 35 l 529 35 l 529 0 l 850 0 m 502 338 l 255 338 l 378 659 l 502 338 m 549 949 q 572 996 571 971 q 534 1057 572 1036 q 505 1065 519 1065 q 464 1048 481 1063 q 396 962 450 1036 q 307 856 350 899 l 328 830 q 488 914 363 853 q 549 949 533 936 z "},"Ă":{"ha":850,"x_min":0,"x_max":850,"o":"m 850 0 q 830 34 850 31 q 817 35 823 35 l 773 35 l 458 814 l 387 814 l 85 35 l 0 35 l 0 0 l 244 0 q 227 34 244 30 q 210 35 218 35 l 140 35 l 240 298 l 518 298 l 620 35 l 529 35 l 529 0 l 850 0 m 502 338 l 255 338 l 378 659 l 502 338 m 427 962 q 560 1031 538 962 q 564 1044 563 1038 l 593 1044 q 502 879 593 920 q 423 864 468 864 q 263 974 297 864 q 252 1044 252 1008 l 279 1044 q 427 962 297 962 z "},"Â":{"ha":850,"x_min":0,"x_max":850,"o":"m 850 0 q 830 34 850 31 q 817 35 823 35 l 773 35 l 458 814 l 387 814 l 85 35 l 0 35 l 0 0 l 244 0 q 227 34 244 30 q 210 35 218 35 l 140 35 l 240 298 l 518 298 l 620 35 l 529 35 l 529 0 l 850 0 m 502 338 l 255 338 l 378 659 l 502 338 m 590 853 l 606 878 q 505 998 586 899 q 422 1053 453 1048 q 346 1005 385 1053 q 319 971 338 996 q 240 876 273 913 l 256 854 q 425 943 335 902 q 590 853 496 910 z "},"Ä":{"ha":850,"x_min":0,"x_max":850,"o":"m 850 0 q 830 34 850 31 q 817 35 823 35 l 773 35 l 458 814 l 387 814 l 85 35 l 0 35 l 0 0 l 244 0 q 227 34 244 30 q 210 35 218 35 l 140 35 l 240 298 l 518 298 l 620 35 l 529 35 l 529 0 l 850 0 m 502 338 l 255 338 l 378 659 l 502 338 m 374 948 q 332 1019 374 996 q 298 1027 316 1027 q 227 982 248 1027 q 220 948 220 964 q 266 879 220 898 q 298 872 282 872 q 366 914 346 872 q 374 948 374 930 m 625 948 q 582 1019 625 997 q 547 1027 564 1027 q 477 983 499 1027 q 469 948 469 966 q 514 879 469 899 q 547 872 529 872 q 617 916 597 872 q 625 948 625 932 z "},"À":{"ha":850,"x_min":0,"x_max":850,"o":"m 850 0 q 830 34 850 31 q 817 35 823 35 l 773 35 l 458 814 l 387 814 l 85 35 l 0 35 l 0 0 l 244 0 q 227 34 244 30 q 210 35 218 35 l 140 35 l 240 298 l 518 298 l 620 35 l 529 35 l 529 0 l 850 0 m 502 338 l 255 338 l 378 659 l 502 338 m 551 856 q 435 998 505 901 q 395 1048 410 1035 q 354 1065 376 1065 q 293 1025 313 1065 q 286 996 286 1010 q 308 949 288 968 q 426 887 324 936 q 530 830 490 856 l 551 856 z "},"Ā":{"ha":850,"x_min":0,"x_max":850,"o":"m 850 0 q 830 34 850 31 q 817 35 823 35 l 773 35 l 458 814 l 387 814 l 85 35 l 0 35 l 0 0 l 244 0 q 227 34 244 30 q 210 35 218 35 l 140 35 l 240 298 l 518 298 l 620 35 l 529 35 l 529 0 l 850 0 m 502 338 l 255 338 l 378 659 l 502 338 m 217 909 l 635 909 l 635 979 l 217 979 l 217 909 z "},"Ą":{"ha":850,"x_min":0,"x_max":850,"o":"m 850 0 q 830 34 850 31 q 817 35 823 35 l 773 35 l 458 814 l 387 814 l 85 35 l 0 35 l 0 0 l 244 0 q 227 34 244 30 q 210 35 218 35 l 140 35 l 240 298 l 518 298 l 620 35 l 529 35 l 529 0 l 768 0 q 586 -125 617 -38 q 581 -159 581 -142 q 652 -248 581 -222 q 718 -259 682 -259 q 844 -210 796 -258 l 827 -189 q 754 -220 789 -220 q 701 -152 704 -214 q 770 -34 701 -87 q 830 0 798 -14 l 850 0 m 502 338 l 255 338 l 378 659 l 502 338 z "},"Å":{"ha":850,"x_min":0,"x_max":850,"o":"m 850 0 q 830 34 850 31 q 817 35 823 35 l 773 35 l 465 798 q 574 887 553 814 q 579 924 579 905 q 507 1032 579 1001 q 434 1046 475 1046 q 290 971 324 1046 q 281 922 281 948 q 357 808 281 838 q 381 800 369 803 l 85 35 l 0 35 l 0 0 l 244 0 q 227 34 244 30 q 210 35 218 35 l 140 35 l 240 298 l 518 298 l 620 35 l 529 35 l 529 0 l 850 0 m 502 338 l 255 338 l 378 659 l 502 338 m 368 920 q 430 1013 373 1008 q 492 922 491 1012 q 446 829 492 842 q 430 826 438 826 q 368 920 369 827 z "},"Ã":{"ha":850,"x_min":0,"x_max":850,"o":"m 850 0 q 830 34 850 31 q 817 35 823 35 l 773 35 l 458 814 l 387 814 l 85 35 l 0 35 l 0 0 l 244 0 q 227 34 244 30 q 210 35 218 35 l 140 35 l 240 298 l 518 298 l 620 35 l 529 35 l 529 0 l 850 0 m 502 338 l 255 338 l 378 659 l 502 338 m 350 1046 q 453 1001 391 1046 q 533 964 505 964 q 605 1035 585 964 q 606 1040 606 1039 l 635 1035 q 526 878 613 892 q 510 876 518 876 q 408 921 469 876 q 328 958 357 958 q 259 899 279 958 q 254 882 256 890 l 227 887 q 350 1046 260 1036 z "},"B":{"ha":814,"x_min":43,"x_max":764,"o":"m 708 629 q 594 789 708 742 q 448 814 532 814 l 43 814 l 43 779 l 152 779 l 152 35 l 43 35 l 43 0 l 461 0 q 722 111 640 0 q 764 237 764 168 q 654 412 764 355 q 553 442 609 434 q 696 568 661 480 q 708 629 708 600 m 397 779 q 555 636 545 779 q 555 618 555 627 q 480 477 555 518 q 400 460 445 460 l 297 460 l 297 779 l 397 779 m 430 423 q 587 319 548 423 q 601 239 601 281 q 525 64 601 118 q 426 35 483 35 l 297 35 l 297 423 l 430 423 z "},"C":{"ha":833,"x_min":57,"x_max":785,"o":"m 742 58 q 761 -4 741 3 q 785 -7 770 -7 l 785 254 l 749 254 q 480 26 682 27 q 227 358 244 26 q 225 410 225 384 q 377 764 225 686 q 487 788 426 788 q 743 564 677 785 l 781 564 l 777 821 q 739 799 745 821 q 736 755 736 784 q 475 827 627 827 q 138 667 255 827 q 57 408 57 555 q 167 113 57 233 q 477 -14 285 -14 q 742 58 613 -12 z "},"Ć":{"ha":833,"x_min":57,"x_max":785,"o":"m 742 58 q 761 -4 741 3 q 785 -7 770 -7 l 785 254 l 749 254 q 480 26 682 27 q 227 358 244 26 q 225 410 225 384 q 377 764 225 686 q 487 788 426 788 q 743 564 677 785 l 781 564 l 777 821 q 739 799 745 821 q 736 755 736 784 q 475 827 627 827 q 138 667 255 827 q 57 408 57 555 q 167 113 57 233 q 477 -14 285 -14 q 742 58 613 -12 m 557 1044 q 581 1090 579 1066 q 543 1152 581 1131 q 513 1160 528 1160 q 472 1143 490 1158 q 404 1057 458 1131 q 315 951 358 994 l 336 925 q 496 1009 372 948 q 557 1044 541 1031 z "},"Č":{"ha":833,"x_min":57,"x_max":785,"o":"m 742 58 q 761 -4 741 3 q 785 -7 770 -7 l 785 254 l 749 254 q 480 26 682 27 q 227 358 244 26 q 225 410 225 384 q 377 764 225 686 q 487 788 426 788 q 743 564 677 785 l 781 564 l 777 821 q 739 799 745 821 q 736 755 736 784 q 475 827 627 827 q 138 667 255 827 q 57 408 57 555 q 167 113 57 233 q 477 -14 285 -14 q 742 58 613 -12 m 431 951 q 514 1001 469 951 q 545 1040 524 1013 q 628 1137 594 1100 l 609 1160 q 430 1065 548 1122 q 251 1160 334 1111 l 232 1135 q 340 1010 248 1118 q 431 951 397 955 z "},"Ç":{"ha":833,"x_min":57,"x_max":785,"o":"m 742 58 q 761 -4 741 3 q 785 -7 770 -7 l 785 254 l 749 254 q 480 26 682 27 q 227 358 244 26 q 225 410 225 384 q 377 764 225 686 q 487 788 426 788 q 743 564 677 785 l 781 564 l 777 821 q 739 799 745 821 q 736 755 736 784 q 475 827 627 827 q 138 667 255 827 q 57 408 57 555 q 167 114 57 235 q 407 -9 262 11 l 354 -115 l 373 -127 q 441 -104 407 -104 q 506 -163 498 -104 q 507 -182 507 -172 q 456 -269 507 -252 q 434 -273 445 -273 q 342 -220 382 -271 l 320 -236 q 465 -308 369 -307 q 610 -244 566 -308 q 629 -184 629 -217 q 555 -83 629 -113 q 481 -69 521 -69 q 410 -83 441 -69 l 441 -12 q 477 -14 454 -14 q 742 58 613 -12 z "},"D":{"ha":916,"x_min":43,"x_max":853,"o":"m 43 814 l 43 779 l 152 779 l 152 35 l 43 35 l 43 0 l 430 0 q 735 114 614 0 q 853 406 853 227 q 682 745 853 636 q 430 814 574 814 l 43 814 m 430 779 q 669 594 618 779 q 689 412 689 519 q 431 35 680 42 l 297 35 l 297 779 l 430 779 z "},"Ď":{"ha":916,"x_min":43,"x_max":853,"o":"m 43 814 l 43 779 l 152 779 l 152 35 l 43 35 l 43 0 l 430 0 q 735 114 614 0 q 853 406 853 227 q 682 745 853 636 q 430 814 574 814 l 43 814 m 430 779 q 669 594 618 779 q 689 412 689 519 q 431 35 680 42 l 297 35 l 297 779 l 430 779 m 449 856 q 532 906 487 856 q 563 945 541 918 q 646 1042 612 1005 l 627 1065 q 448 970 566 1027 q 269 1065 351 1016 l 250 1040 q 358 916 266 1023 q 449 856 415 860 z "},"Đ":{"ha":916,"x_min":43,"x_max":853,"o":"m 43 814 l 43 779 l 152 779 l 152 449 l 54 449 l 54 392 l 152 392 l 152 35 l 43 35 l 43 0 l 430 0 q 735 114 614 0 q 853 406 853 227 q 682 745 853 636 q 430 814 574 814 l 43 814 m 430 779 q 669 594 618 779 q 689 412 689 519 q 431 35 680 42 l 297 35 l 297 392 l 445 392 l 445 449 l 297 449 l 297 779 l 430 779 z "},"E":{"ha":761,"x_min":43,"x_max":696,"o":"m 696 563 l 690 814 l 43 814 l 43 779 l 152 779 l 152 35 l 43 35 l 43 0 l 690 0 l 696 251 l 665 251 l 640 175 q 521 38 604 54 q 490 35 506 35 l 297 35 l 297 400 l 570 400 l 570 439 l 297 439 l 297 779 l 490 779 q 637 648 597 779 q 640 639 639 643 l 665 563 l 696 563 z "},"É":{"ha":761,"x_min":43,"x_max":696,"o":"m 696 563 l 690 814 l 43 814 l 43 779 l 152 779 l 152 35 l 43 35 l 43 0 l 690 0 l 696 251 l 665 251 l 640 175 q 521 38 604 54 q 490 35 506 35 l 297 35 l 297 400 l 570 400 l 570 439 l 297 439 l 297 779 l 490 779 q 637 648 597 779 q 640 639 639 643 l 665 563 l 696 563 m 528 955 q 551 1001 549 977 q 513 1062 551 1042 q 483 1070 498 1070 q 442 1054 460 1069 q 374 967 429 1042 q 285 861 328 905 l 307 836 q 467 920 342 859 q 528 955 511 941 z "},"Ě":{"ha":761,"x_min":43,"x_max":696,"o":"m 696 563 l 690 814 l 43 814 l 43 779 l 152 779 l 152 35 l 43 35 l 43 0 l 690 0 l 696 251 l 665 251 l 640 175 q 521 38 604 54 q 490 35 506 35 l 297 35 l 297 400 l 570 400 l 570 439 l 297 439 l 297 779 l 490 779 q 637 648 597 779 q 640 639 639 643 l 665 563 l 696 563 m 400 856 q 483 906 438 856 q 514 945 492 918 q 597 1042 563 1005 l 578 1065 q 399 970 517 1027 q 220 1065 302 1016 l 201 1040 q 309 916 217 1023 q 400 856 366 860 z "},"Ê":{"ha":761,"x_min":43,"x_max":696,"o":"m 696 563 l 690 814 l 43 814 l 43 779 l 152 779 l 152 35 l 43 35 l 43 0 l 690 0 l 696 251 l 665 251 l 640 175 q 521 38 604 54 q 490 35 506 35 l 297 35 l 297 400 l 570 400 l 570 439 l 297 439 l 297 779 l 490 779 q 637 648 597 779 q 640 639 639 643 l 665 563 l 696 563 m 566 853 l 582 878 q 480 998 562 899 q 397 1053 429 1048 q 321 1005 361 1053 q 294 971 313 996 q 216 876 248 913 l 232 854 q 400 943 311 902 q 566 853 472 910 z "},"Ë":{"ha":761,"x_min":43,"x_max":696,"o":"m 696 563 l 690 814 l 43 814 l 43 779 l 152 779 l 152 35 l 43 35 l 43 0 l 690 0 l 696 251 l 665 251 l 640 175 q 521 38 604 54 q 490 35 506 35 l 297 35 l 297 400 l 570 400 l 570 439 l 297 439 l 297 779 l 490 779 q 637 648 597 779 q 640 639 639 643 l 665 563 l 696 563 m 351 948 q 309 1019 351 996 q 275 1027 293 1027 q 203 982 225 1027 q 197 948 197 964 q 243 879 197 898 q 275 872 259 872 q 343 914 323 872 q 351 948 351 930 m 602 948 q 559 1019 602 997 q 524 1027 541 1027 q 454 983 476 1027 q 446 948 446 966 q 491 879 446 899 q 524 872 507 872 q 594 916 574 872 q 602 948 602 932 z "},"Ė":{"ha":761,"x_min":43,"x_max":696,"o":"m 696 563 l 690 814 l 43 814 l 43 779 l 152 779 l 152 35 l 43 35 l 43 0 l 690 0 l 696 251 l 665 251 l 640 175 q 521 38 604 54 q 490 35 506 35 l 297 35 l 297 400 l 570 400 l 570 439 l 297 439 l 297 779 l 490 779 q 637 648 597 779 q 640 639 639 643 l 665 563 l 696 563 m 483 945 q 438 1021 483 997 q 399 1031 418 1031 q 321 982 345 1031 q 313 945 313 964 q 362 869 313 891 q 399 861 380 861 q 473 907 450 861 q 483 945 483 926 z "},"È":{"ha":761,"x_min":43,"x_max":696,"o":"m 696 563 l 690 814 l 43 814 l 43 779 l 152 779 l 152 35 l 43 35 l 43 0 l 690 0 l 696 251 l 665 251 l 640 175 q 521 38 604 54 q 490 35 506 35 l 297 35 l 297 400 l 570 400 l 570 439 l 297 439 l 297 779 l 490 779 q 637 648 597 779 q 640 639 639 643 l 665 563 l 696 563 m 528 856 q 412 998 481 901 q 372 1048 387 1035 q 331 1065 353 1065 q 270 1025 290 1065 q 263 996 263 1010 q 285 949 264 968 q 403 887 301 936 q 507 830 467 856 l 528 856 z "},"Ē":{"ha":761,"x_min":43,"x_max":696,"o":"m 696 563 l 690 814 l 43 814 l 43 779 l 152 779 l 152 35 l 43 35 l 43 0 l 690 0 l 696 251 l 665 251 l 640 175 q 521 38 604 54 q 490 35 506 35 l 297 35 l 297 400 l 570 400 l 570 439 l 297 439 l 297 779 l 490 779 q 637 648 597 779 q 640 639 639 643 l 665 563 l 696 563 m 193 909 l 610 909 l 610 979 l 193 979 l 193 909 z "},"Ę":{"ha":761,"x_min":43,"x_max":696,"o":"m 696 563 l 690 814 l 43 814 l 43 779 l 152 779 l 152 35 l 43 35 l 43 0 l 614 0 q 433 -125 464 -38 q 427 -159 427 -142 q 499 -248 427 -222 q 564 -259 529 -259 q 690 -210 643 -258 l 674 -189 q 601 -220 636 -220 q 548 -152 551 -214 q 617 -34 548 -87 q 677 0 644 -14 l 690 0 l 696 251 l 665 251 l 640 175 q 521 38 604 54 q 490 35 506 35 l 297 35 l 297 400 l 570 400 l 570 439 l 297 439 l 297 779 l 490 779 q 637 648 597 779 q 640 639 639 643 l 665 563 l 696 563 z "},"Ð":{"ha":916,"x_min":43,"x_max":853,"o":"m 43 814 l 43 779 l 152 779 l 152 449 l 54 449 l 54 392 l 152 392 l 152 35 l 43 35 l 43 0 l 430 0 q 735 114 614 0 q 853 406 853 227 q 682 745 853 636 q 430 814 574 814 l 43 814 m 430 779 q 669 594 618 779 q 689 412 689 519 q 431 35 680 42 l 297 35 l 297 392 l 445 392 l 445 449 l 297 449 l 297 779 l 430 779 z "},"€":{"ha":826,"x_min":11,"x_max":765,"o":"m 765 144 q 720 209 765 193 q 693 213 707 213 q 614 160 635 213 q 604 130 610 151 q 556 46 585 66 q 471 26 524 26 q 281 336 297 26 q 281 339 281 338 l 567 339 l 579 378 l 279 378 l 279 406 l 279 446 l 594 446 l 606 486 l 282 486 q 414 776 296 731 q 484 788 445 788 q 598 722 574 788 q 609 685 604 709 q 647 613 623 628 q 696 601 666 601 q 764 655 751 601 q 765 675 765 666 q 680 789 765 745 q 509 827 608 827 q 176 650 279 827 q 119 486 133 576 l 23 486 l 11 446 l 114 446 q 113 399 113 429 l 113 378 l 23 378 l 11 339 l 115 339 q 260 56 136 152 q 477 -14 351 -14 q 741 79 670 -14 q 765 144 765 110 z "},"F":{"ha":707,"x_min":43,"x_max":696,"o":"m 460 0 l 460 35 l 297 35 l 297 400 l 570 400 l 570 439 l 297 439 l 297 779 l 490 779 q 640 639 601 777 l 665 560 l 696 560 l 690 814 l 43 814 l 43 779 l 152 779 l 152 35 l 43 35 l 43 0 l 460 0 z "},"G":{"ha":941,"x_min":64,"x_max":907,"o":"m 548 369 l 548 334 l 666 334 l 666 100 q 486 28 593 28 q 233 312 262 28 q 229 406 229 355 q 461 787 229 766 q 488 788 475 788 q 694 686 629 788 q 751 538 728 631 l 789 538 l 783 811 l 661 787 q 473 827 572 827 q 186 718 301 827 q 64 411 64 602 q 225 66 64 184 q 475 -14 335 -14 q 675 37 589 -14 l 811 0 l 811 334 l 907 334 l 907 369 l 548 369 z "},"Ğ":{"ha":941,"x_min":64,"x_max":907,"o":"m 548 369 l 548 334 l 666 334 l 666 100 q 486 28 593 28 q 233 312 262 28 q 229 406 229 355 q 461 787 229 766 q 488 788 475 788 q 694 686 629 788 q 751 538 728 631 l 789 538 l 783 811 l 661 787 q 473 827 572 827 q 186 718 301 827 q 64 411 64 602 q 225 66 64 184 q 475 -14 335 -14 q 675 37 589 -14 l 811 0 l 811 334 l 907 334 l 907 369 l 548 369 m 483 962 q 616 1031 594 962 q 620 1044 618 1038 l 648 1044 q 557 879 648 920 q 479 864 524 864 q 319 974 353 864 q 308 1044 308 1008 l 335 1044 q 483 962 353 962 z "},"H":{"ha":983,"x_min":43,"x_max":940,"o":"m 406 0 q 384 34 406 30 q 370 35 377 35 l 297 35 l 297 400 l 685 400 l 685 35 l 576 35 l 576 0 l 940 0 q 903 35 929 33 l 830 35 l 830 779 l 940 779 l 940 814 l 576 814 l 576 779 l 685 779 l 685 439 l 297 439 l 297 779 l 406 779 l 406 814 l 43 814 l 43 779 l 152 779 l 152 35 l 43 35 l 43 0 l 406 0 z "},"I":{"ha":449,"x_min":43,"x_max":406,"o":"m 406 0 q 384 34 406 30 q 370 35 377 35 l 297 35 l 297 779 l 406 779 l 406 814 l 43 814 l 43 779 l 152 779 l 152 35 l 43 35 l 43 0 l 406 0 z "},"Í":{"ha":449,"x_min":43,"x_max":406,"o":"m 406 0 q 384 34 406 30 q 370 35 377 35 l 297 35 l 297 779 l 406 779 l 406 814 l 43 814 l 43 779 l 152 779 l 152 35 l 43 35 l 43 0 l 406 0 m 351 949 q 374 996 373 971 q 336 1057 374 1036 q 307 1065 321 1065 q 266 1048 283 1063 q 198 962 252 1036 q 109 856 152 899 l 130 830 q 290 914 165 853 q 351 949 335 936 z "},"Î":{"ha":449,"x_min":41,"x_max":407,"o":"m 406 0 q 384 34 406 30 q 370 35 377 35 l 297 35 l 297 779 l 406 779 l 406 814 l 43 814 l 43 779 l 152 779 l 152 35 l 43 35 l 43 0 l 406 0 m 391 853 l 407 878 q 305 998 387 899 q 222 1053 254 1048 q 146 1005 186 1053 q 119 971 138 996 q 41 876 73 913 l 57 854 q 225 943 136 902 q 391 853 297 910 z "},"Ï":{"ha":449,"x_min":22,"x_max":427,"o":"m 406 0 q 384 34 406 30 q 370 35 377 35 l 297 35 l 297 779 l 406 779 l 406 814 l 43 814 l 43 779 l 152 779 l 152 35 l 43 35 l 43 0 l 406 0 m 176 948 q 134 1019 176 996 q 100 1027 117 1027 q 28 982 50 1027 q 22 948 22 964 q 68 879 22 898 q 100 872 84 872 q 168 914 148 872 q 176 948 176 930 m 427 948 q 384 1019 427 997 q 349 1027 366 1027 q 279 983 301 1027 q 271 948 271 966 q 316 879 271 899 q 349 872 332 872 q 419 916 399 872 q 427 948 427 932 z "},"İ":{"ha":449,"x_min":43,"x_max":406,"o":"m 406 0 q 384 34 406 30 q 370 35 377 35 l 297 35 l 297 779 l 406 779 l 406 814 l 43 814 l 43 779 l 152 779 l 152 35 l 43 35 l 43 0 l 406 0 m 308 945 q 263 1021 308 997 q 224 1031 243 1031 q 146 982 170 1031 q 138 945 138 964 q 187 869 138 891 q 224 861 205 861 q 298 907 275 861 q 308 945 308 926 z "},"Ì":{"ha":449,"x_min":43,"x_max":406,"o":"m 406 0 q 384 34 406 30 q 370 35 377 35 l 297 35 l 297 779 l 406 779 l 406 814 l 43 814 l 43 779 l 152 779 l 152 35 l 43 35 l 43 0 l 406 0 m 353 856 q 237 998 307 901 q 197 1048 212 1035 q 156 1065 178 1065 q 95 1025 115 1065 q 88 996 88 1010 q 110 949 90 968 q 228 887 126 936 q 332 830 292 856 l 353 856 z "},"Ī":{"ha":449,"x_min":18,"x_max":435,"o":"m 406 0 q 384 34 406 30 q 370 35 377 35 l 297 35 l 297 779 l 406 779 l 406 814 l 43 814 l 43 779 l 152 779 l 152 35 l 43 35 l 43 0 l 406 0 m 18 909 l 435 909 l 435 979 l 18 979 l 18 909 z "},"Į":{"ha":449,"x_min":43,"x_max":408,"o":"m 406 0 q 384 34 406 30 q 370 35 377 35 l 297 35 l 297 779 l 406 779 l 406 814 l 43 814 l 43 779 l 152 779 l 152 35 l 43 35 l 43 0 l 332 0 q 151 -125 182 -38 q 145 -159 145 -142 q 217 -248 145 -222 q 282 -259 247 -259 q 408 -210 361 -258 l 392 -189 q 319 -220 354 -220 q 266 -152 269 -214 q 335 -34 266 -87 q 395 0 362 -14 l 406 0 z "},"J":{"ha":524,"x_min":-34,"x_max":487,"o":"m 487 779 l 487 814 l 113 814 l 113 779 l 235 779 l 235 237 q 197 23 235 60 q 159 9 180 9 q 113 52 123 9 q 107 71 110 57 q 72 138 96 125 q 31 146 54 146 q -28 106 -12 146 q -34 81 -34 95 q 37 -7 -34 23 q 140 -26 81 -26 q 340 77 277 -26 q 381 248 381 146 l 381 779 l 487 779 z "},"K":{"ha":871,"x_min":43,"x_max":871,"o":"m 406 0 q 384 34 406 30 q 370 35 377 35 l 297 35 l 297 355 l 358 411 l 654 0 l 871 0 q 849 34 871 30 q 836 35 842 35 l 808 35 l 464 509 l 690 719 q 770 776 747 769 q 795 779 783 779 q 829 800 826 779 q 830 814 830 807 l 583 814 l 583 779 l 692 779 l 297 418 l 297 779 l 406 779 l 406 814 l 43 814 l 43 779 l 152 779 l 152 35 l 43 35 l 43 0 l 406 0 z "},"L":{"ha":681,"x_min":43,"x_max":673,"o":"m 666 0 l 673 281 l 640 281 l 610 175 q 522 46 582 72 q 465 35 496 35 l 297 35 l 297 779 l 412 779 l 412 814 l 43 814 l 43 779 l 152 779 l 152 35 l 43 35 l 43 0 l 666 0 z "},"Ĺ":{"ha":681,"x_min":43,"x_max":673,"o":"m 666 0 l 673 281 l 640 281 l 610 175 q 522 46 582 72 q 465 35 496 35 l 297 35 l 297 779 l 412 779 l 412 814 l 43 814 l 43 779 l 152 779 l 152 35 l 43 35 l 43 0 l 666 0 m 465 949 q 488 996 487 971 q 450 1057 488 1036 q 420 1065 435 1065 q 380 1048 397 1063 q 312 962 366 1036 q 222 856 266 899 l 244 830 q 404 914 279 853 q 465 949 449 936 z "},"Ľ":{"ha":681,"x_min":43,"x_max":673,"o":"m 666 0 l 673 281 l 640 281 l 610 175 q 522 46 582 72 q 465 35 496 35 l 297 35 l 297 779 l 412 779 l 412 814 l 43 814 l 43 779 l 152 779 l 152 35 l 43 35 l 43 0 l 666 0 m 243 856 q 326 906 281 856 q 357 945 335 918 q 439 1042 406 1005 l 420 1065 q 241 970 359 1027 q 62 1065 145 1016 l 43 1040 q 152 916 60 1023 q 243 856 209 860 z "},"Ł":{"ha":686,"x_min":14,"x_max":673,"o":"m 666 0 l 673 281 l 640 281 l 610 175 q 522 46 582 72 q 465 35 496 35 l 297 35 l 297 354 l 568 506 l 547 544 l 297 404 l 297 779 l 412 779 l 412 814 l 43 814 l 43 779 l 152 779 l 152 323 l 14 245 l 35 208 l 152 273 l 152 35 l 43 35 l 43 0 l 666 0 z "},"M":{"ha":1096,"x_min":30,"x_max":1066,"o":"m 1066 814 l 818 814 l 547 182 l 244 814 l 30 814 l 30 779 l 138 779 l 138 35 l 30 35 l 30 0 l 302 0 q 266 35 292 33 l 194 35 l 194 591 l 487 -9 l 514 -9 l 818 686 l 818 35 l 709 35 l 709 0 l 1066 0 q 1044 34 1066 30 q 1031 35 1038 35 l 958 35 l 958 779 l 1066 779 l 1066 814 z "},"N":{"ha":905,"x_min":24,"x_max":894,"o":"m 617 779 l 730 779 l 730 203 l 229 814 l 24 814 l 24 779 l 133 779 l 133 35 l 24 35 l 24 0 l 304 0 q 267 35 293 33 l 189 35 l 189 637 l 716 -7 l 785 7 l 785 779 l 894 779 l 894 814 l 617 814 l 617 779 z "},"Ń":{"ha":905,"x_min":24,"x_max":894,"o":"m 617 779 l 730 779 l 730 203 l 229 814 l 24 814 l 24 779 l 133 779 l 133 35 l 24 35 l 24 0 l 304 0 q 267 35 293 33 l 189 35 l 189 637 l 716 -7 l 785 7 l 785 779 l 894 779 l 894 814 l 617 814 l 617 779 m 583 949 q 606 996 605 971 q 568 1057 606 1036 q 538 1065 553 1065 q 498 1048 515 1063 q 430 962 484 1036 q 340 856 384 899 l 362 830 q 522 914 397 853 q 583 949 567 936 z "},"Ň":{"ha":905,"x_min":24,"x_max":894,"o":"m 617 779 l 730 779 l 730 203 l 229 814 l 24 814 l 24 779 l 133 779 l 133 35 l 24 35 l 24 0 l 304 0 q 267 35 293 33 l 189 35 l 189 637 l 716 -7 l 785 7 l 785 779 l 894 779 l 894 814 l 617 814 l 617 779 m 457 856 q 540 906 495 856 q 571 945 549 918 q 654 1042 620 1005 l 635 1065 q 456 970 574 1027 q 277 1065 359 1016 l 258 1040 q 366 916 274 1023 q 457 856 423 860 z "},"Ñ":{"ha":905,"x_min":24,"x_max":894,"o":"m 617 779 l 730 779 l 730 203 l 229 814 l 24 814 l 24 779 l 133 779 l 133 35 l 24 35 l 24 0 l 304 0 q 267 35 293 33 l 189 35 l 189 637 l 716 -7 l 785 7 l 785 779 l 894 779 l 894 814 l 617 814 l 617 779 m 382 1046 q 486 1001 423 1046 q 566 964 537 964 q 637 1035 617 964 q 639 1040 639 1039 l 667 1035 q 559 878 646 892 q 543 876 551 876 q 441 921 502 876 q 361 958 389 958 q 292 899 312 958 q 286 882 289 890 l 259 887 q 382 1046 293 1036 z "},"O":{"ha":956,"x_min":64,"x_max":892,"o":"m 481 827 q 191 716 311 827 q 64 411 64 598 q 217 73 64 194 q 477 -14 330 -14 q 766 98 647 -14 q 892 406 892 217 q 735 746 892 629 q 481 827 625 827 m 481 24 q 231 406 232 27 q 477 789 232 788 q 724 412 723 787 q 481 24 723 26 z "},"Œ":{"ha":1233,"x_min":64,"x_max":1168,"o":"m 495 30 q 239 283 274 30 q 231 406 231 339 q 392 766 231 705 q 498 784 438 784 q 625 762 567 784 l 625 52 q 495 30 567 30 m 670 0 l 1162 0 l 1168 254 l 1137 254 l 1111 175 q 948 35 1063 37 l 770 35 l 770 400 l 1042 400 l 1042 439 l 770 439 l 770 779 l 948 779 q 1109 639 1066 777 l 1137 560 l 1168 560 l 1162 814 l 675 814 q 581 817 648 814 q 486 821 513 821 q 187 709 308 821 q 64 411 64 595 q 222 75 64 190 q 486 -7 335 -7 q 601 -3 524 -7 q 670 0 652 0 z "},"Ó":{"ha":956,"x_min":64,"x_max":892,"o":"m 481 827 q 191 716 311 827 q 64 411 64 598 q 217 73 64 194 q 477 -14 330 -14 q 766 98 647 -14 q 892 406 892 217 q 735 746 892 629 q 481 827 625 827 m 481 24 q 231 406 232 27 q 477 789 232 788 q 724 412 723 787 q 481 24 723 26 m 609 949 q 632 996 631 971 q 594 1057 632 1036 q 564 1065 579 1065 q 524 1048 541 1063 q 456 962 510 1036 q 366 856 410 899 l 388 830 q 548 914 423 853 q 609 949 593 936 z "},"Ô":{"ha":956,"x_min":64,"x_max":892,"o":"m 481 827 q 191 716 311 827 q 64 411 64 598 q 217 73 64 194 q 477 -14 330 -14 q 766 98 647 -14 q 892 406 892 217 q 735 746 892 629 q 481 827 625 827 m 481 24 q 231 406 232 27 q 477 789 232 788 q 724 412 723 787 q 481 24 723 26 m 648 853 l 665 878 q 563 998 644 899 q 480 1053 511 1048 q 404 1005 444 1053 q 377 971 396 996 q 298 876 332 914 l 315 854 q 483 943 393 902 q 648 853 555 910 z "},"Ö":{"ha":956,"x_min":64,"x_max":892,"o":"m 481 827 q 191 716 311 827 q 64 411 64 598 q 217 73 64 194 q 477 -14 330 -14 q 766 98 647 -14 q 892 406 892 217 q 735 746 892 629 q 481 827 625 827 m 481 24 q 231 406 232 27 q 477 789 232 788 q 724 412 723 787 q 481 24 723 26 m 434 948 q 392 1019 434 996 q 358 1027 376 1027 q 286 982 308 1027 q 279 948 279 964 q 326 879 279 898 q 358 872 342 872 q 426 914 406 872 q 434 948 434 930 m 685 948 q 642 1019 685 997 q 606 1027 624 1027 q 537 983 559 1027 q 529 948 529 966 q 574 879 529 899 q 606 872 590 872 q 677 916 656 872 q 685 948 685 932 z "},"Ò":{"ha":956,"x_min":64,"x_max":892,"o":"m 481 827 q 191 716 311 827 q 64 411 64 598 q 217 73 64 194 q 477 -14 330 -14 q 766 98 647 -14 q 892 406 892 217 q 735 746 892 629 q 481 827 625 827 m 481 24 q 231 406 232 27 q 477 789 232 788 q 724 412 723 787 q 481 24 723 26 m 609 856 q 494 998 563 901 q 453 1048 468 1035 q 412 1065 434 1065 q 351 1025 372 1065 q 345 996 345 1010 q 366 949 346 968 q 484 887 382 936 q 589 830 548 856 l 609 856 z "},"Ő":{"ha":956,"x_min":64,"x_max":892,"o":"m 481 827 q 191 716 311 827 q 64 411 64 598 q 217 73 64 194 q 477 -14 330 -14 q 766 98 647 -14 q 892 406 892 217 q 735 746 892 629 q 481 827 625 827 m 481 24 q 231 406 232 27 q 477 789 232 788 q 724 412 723 787 q 481 24 723 26 m 524 977 q 544 1021 544 993 q 506 1080 543 1059 q 476 1086 490 1086 q 437 1070 456 1085 q 373 982 425 1058 q 290 879 331 921 l 311 854 q 461 939 345 878 q 524 977 507 962 m 753 937 q 781 978 776 952 q 751 1043 788 1019 q 727 1054 739 1051 q 685 1044 704 1057 q 608 974 669 1035 q 505 886 553 920 l 521 857 q 689 913 555 872 q 753 937 734 926 z "},"Ō":{"ha":956,"x_min":64,"x_max":892,"o":"m 481 827 q 191 716 311 827 q 64 411 64 598 q 217 73 64 194 q 477 -14 330 -14 q 766 98 647 -14 q 892 406 892 217 q 735 746 892 629 q 481 827 625 827 m 481 24 q 231 406 232 27 q 477 789 232 788 q 724 412 723 787 q 481 24 723 26 m 275 909 l 693 909 l 693 979 l 275 979 l 275 909 z "},"Ø":{"ha":956,"x_min":64,"x_max":892,"o":"m 481 827 q 191 716 311 827 q 64 411 64 598 q 222 69 64 190 q 281 33 251 49 l 184 -210 l 279 -210 l 363 1 q 477 -14 422 -14 q 766 98 647 -14 q 892 406 892 217 q 731 750 892 631 q 671 785 703 770 l 742 963 l 647 963 l 589 815 q 481 827 534 827 m 231 406 q 477 789 232 788 q 572 773 530 789 l 307 100 q 231 406 231 195 m 481 24 q 380 43 422 24 l 646 719 q 724 412 724 625 q 481 24 723 26 z "},"Õ":{"ha":956,"x_min":64,"x_max":892,"o":"m 481 827 q 191 716 311 827 q 64 411 64 598 q 217 73 64 194 q 477 -14 330 -14 q 766 98 647 -14 q 892 406 892 217 q 735 746 892 629 q 481 827 625 827 m 481 24 q 231 406 232 27 q 477 789 232 788 q 724 412 723 787 q 481 24 723 26 m 408 1046 q 511 1001 449 1046 q 591 964 563 964 q 663 1035 643 964 q 665 1040 665 1039 l 693 1035 q 585 878 671 892 q 568 876 576 876 q 467 921 528 876 q 387 958 415 958 q 317 899 338 958 q 312 882 315 890 l 285 887 q 408 1046 319 1036 z "},"P":{"ha":762,"x_min":43,"x_max":732,"o":"m 418 779 q 567 655 540 779 q 574 591 574 625 q 401 399 566 403 l 297 399 l 297 779 l 418 779 m 434 0 q 412 34 434 30 q 399 35 406 35 l 297 35 l 297 359 l 414 359 q 711 496 644 359 q 732 597 732 541 q 617 784 732 728 q 465 814 553 814 l 43 814 l 43 779 l 152 779 l 152 35 l 43 35 l 43 0 l 434 0 z "},"Q":{"ha":960,"x_min":66,"x_max":985,"o":"m 484 827 q 193 716 312 827 q 66 408 66 597 q 216 76 66 195 q 480 -14 330 -14 q 585 -1 534 -14 q 674 -133 652 -107 q 803 -201 735 -199 q 985 -39 916 -198 l 955 -22 q 825 -99 884 -98 q 764 -78 795 -99 q 715 -38 732 -57 q 662 24 697 -19 l 661 26 q 868 247 811 94 q 895 408 895 323 q 741 743 895 627 q 484 827 631 827 m 463 165 q 327 79 388 164 q 232 407 232 168 q 481 789 233 788 q 730 412 728 787 q 623 69 728 156 q 463 165 534 164 m 481 24 q 358 56 408 26 q 454 111 408 110 q 560 35 506 110 q 481 24 521 24 z "},"R":{"ha":831,"x_min":43,"x_max":831,"o":"m 406 0 l 406 35 l 297 35 l 297 373 l 401 373 l 613 0 l 831 0 q 812 34 831 31 q 798 35 806 35 l 760 35 l 544 387 q 723 530 682 422 q 735 602 735 566 q 647 764 735 703 q 465 814 572 814 l 43 814 l 43 779 l 152 779 l 152 35 l 43 35 l 43 0 l 406 0 m 408 779 q 562 678 522 779 q 576 598 576 640 q 510 444 576 496 q 415 412 469 412 l 297 412 l 297 779 l 408 779 z "},"Ŕ":{"ha":831,"x_min":43,"x_max":831,"o":"m 406 0 l 406 35 l 297 35 l 297 373 l 401 373 l 613 0 l 831 0 q 812 34 831 31 q 798 35 806 35 l 760 35 l 544 387 q 723 530 682 422 q 735 602 735 566 q 647 764 735 703 q 465 814 572 814 l 43 814 l 43 779 l 152 779 l 152 35 l 43 35 l 43 0 l 406 0 m 408 779 q 562 678 522 779 q 576 598 576 640 q 510 444 576 496 q 415 412 469 412 l 297 412 l 297 779 l 408 779 m 540 949 q 563 996 562 971 q 525 1057 563 1036 q 495 1065 510 1065 q 454 1048 472 1063 q 387 962 441 1036 q 297 856 340 899 l 319 830 q 479 914 354 853 q 540 949 524 936 z "},"Ř":{"ha":831,"x_min":43,"x_max":831,"o":"m 406 0 l 406 35 l 297 35 l 297 373 l 401 373 l 613 0 l 831 0 q 812 34 831 31 q 798 35 806 35 l 760 35 l 544 387 q 723 530 682 422 q 735 602 735 566 q 647 764 735 703 q 465 814 572 814 l 43 814 l 43 779 l 152 779 l 152 35 l 43 35 l 43 0 l 406 0 m 408 779 q 562 678 522 779 q 576 598 576 640 q 510 444 576 496 q 415 412 469 412 l 297 412 l 297 779 l 408 779 m 415 856 q 498 906 453 856 q 529 945 507 918 q 612 1042 578 1005 l 593 1065 q 414 970 532 1027 q 235 1065 317 1016 l 216 1040 q 324 916 232 1023 q 415 856 381 860 z "},"S":{"ha":739,"x_min":79,"x_max":677,"o":"m 677 218 q 549 411 677 336 q 396 486 528 425 q 248 597 278 540 q 233 658 233 624 q 316 776 233 743 q 389 788 350 788 q 560 708 502 788 q 597 581 597 655 l 643 581 l 643 821 q 601 796 606 821 q 600 774 600 787 q 374 827 496 827 q 141 745 222 827 q 85 612 85 689 q 213 425 85 498 q 365 351 233 412 q 515 237 484 294 q 530 175 530 209 q 444 42 530 80 q 355 24 403 24 q 138 199 183 24 q 125 281 127 237 l 79 281 l 79 -3 q 119 18 113 -3 q 122 56 122 30 q 365 -14 225 -14 q 616 72 528 -14 q 677 218 677 133 z "},"Ś":{"ha":739,"x_min":79,"x_max":677,"o":"m 677 218 q 549 411 677 336 q 396 486 528 425 q 248 597 278 540 q 233 658 233 624 q 316 776 233 743 q 389 788 350 788 q 560 708 502 788 q 597 581 597 655 l 643 581 l 643 821 q 601 796 606 821 q 600 774 600 787 q 374 827 496 827 q 141 745 222 827 q 85 612 85 689 q 213 425 85 498 q 365 351 233 412 q 515 237 484 294 q 530 175 530 209 q 444 42 530 80 q 355 24 403 24 q 138 199 183 24 q 125 281 127 237 l 79 281 l 79 -3 q 119 18 113 -3 q 122 56 122 30 q 365 -14 225 -14 q 616 72 528 -14 q 677 218 677 133 m 524 949 q 547 996 545 971 q 509 1057 547 1036 q 479 1065 494 1065 q 438 1048 456 1063 q 370 962 425 1036 q 281 856 324 899 l 302 830 q 463 914 338 853 q 524 949 507 936 z "},"Š":{"ha":739,"x_min":79,"x_max":677,"o":"m 677 218 q 549 411 677 336 q 396 486 528 425 q 248 597 278 540 q 233 658 233 624 q 316 776 233 743 q 389 788 350 788 q 560 708 502 788 q 597 581 597 655 l 643 581 l 643 821 q 601 796 606 821 q 600 774 600 787 q 374 827 496 827 q 141 745 222 827 q 85 612 85 689 q 213 425 85 498 q 365 351 233 412 q 515 237 484 294 q 530 175 530 209 q 444 42 530 80 q 355 24 403 24 q 138 199 183 24 q 125 281 127 237 l 79 281 l 79 -3 q 119 18 113 -3 q 122 56 122 30 q 365 -14 225 -14 q 616 72 528 -14 q 677 218 677 133 m 399 856 q 481 906 437 856 q 513 945 491 918 q 595 1042 562 1005 l 576 1065 q 397 970 515 1027 q 218 1065 301 1016 l 199 1040 q 308 916 216 1023 q 399 856 365 860 z "},"T":{"ha":769,"x_min":37,"x_max":732,"o":"m 585 0 q 548 35 574 33 l 454 35 l 454 779 l 511 779 q 663 640 624 777 l 693 537 l 732 537 l 726 814 l 42 814 l 37 537 l 76 537 l 106 640 q 256 779 146 777 l 309 779 l 309 35 l 180 35 l 180 0 l 585 0 z "},"Ť":{"ha":769,"x_min":37,"x_max":732,"o":"m 585 0 q 548 35 574 33 l 454 35 l 454 779 l 511 779 q 663 640 624 777 l 693 537 l 732 537 l 726 814 l 42 814 l 37 537 l 76 537 l 106 640 q 256 779 146 777 l 309 779 l 309 35 l 180 35 l 180 0 l 585 0 m 385 856 q 468 906 423 856 q 499 945 477 918 q 582 1042 548 1005 l 563 1065 q 384 970 502 1027 q 205 1065 288 1016 l 186 1040 q 294 916 202 1023 q 385 856 351 860 z "},"Þ":{"ha":788,"x_min":39,"x_max":726,"o":"m 410 616 q 562 490 534 616 q 567 429 567 461 q 419 237 567 251 q 393 236 406 236 l 289 236 l 289 616 l 410 616 m 399 0 q 381 34 399 31 q 365 35 373 35 l 289 35 l 289 197 l 407 197 q 703 331 635 197 q 726 434 726 377 q 614 618 726 563 q 458 651 549 651 l 289 651 l 289 779 l 399 779 l 399 814 l 39 814 l 39 779 l 144 779 l 144 35 l 39 35 l 39 0 l 399 0 z "},"U":{"ha":865,"x_min":14,"x_max":859,"o":"m 14 779 l 122 779 l 122 302 q 449 -14 125 -12 q 732 170 678 -14 q 750 317 750 232 l 750 779 l 859 779 l 859 814 l 593 814 l 593 779 l 701 779 l 701 309 q 477 26 700 27 q 283 172 323 26 q 269 312 269 231 l 269 779 l 376 779 l 376 814 l 14 814 l 14 779 z "},"Ú":{"ha":865,"x_min":14,"x_max":859,"o":"m 14 779 l 122 779 l 122 302 q 449 -14 125 -12 q 732 170 678 -14 q 750 317 750 232 l 750 779 l 859 779 l 859 814 l 593 814 l 593 779 l 701 779 l 701 309 q 477 26 700 27 q 283 172 323 26 q 269 312 269 231 l 269 779 l 376 779 l 376 814 l 14 814 l 14 779 m 590 949 q 613 996 612 971 q 575 1057 613 1036 q 545 1065 560 1065 q 505 1048 522 1063 q 437 962 491 1036 q 347 856 391 899 l 369 830 q 529 914 404 853 q 590 949 574 936 z "},"Û":{"ha":865,"x_min":14,"x_max":859,"o":"m 14 779 l 122 779 l 122 302 q 449 -14 125 -12 q 732 170 678 -14 q 750 317 750 232 l 750 779 l 859 779 l 859 814 l 593 814 l 593 779 l 701 779 l 701 309 q 477 26 700 27 q 283 172 323 26 q 269 312 269 231 l 269 779 l 376 779 l 376 814 l 14 814 l 14 779 m 631 853 l 647 878 q 545 998 627 899 q 463 1053 494 1048 q 387 1005 426 1053 q 359 971 378 996 q 281 876 315 914 l 297 854 q 465 943 376 902 q 631 853 537 910 z "},"Ü":{"ha":865,"x_min":14,"x_max":859,"o":"m 14 779 l 122 779 l 122 302 q 449 -14 125 -12 q 732 170 678 -14 q 750 317 750 232 l 750 779 l 859 779 l 859 814 l 593 814 l 593 779 l 701 779 l 701 309 q 477 26 700 27 q 283 172 323 26 q 269 312 269 231 l 269 779 l 376 779 l 376 814 l 14 814 l 14 779 m 415 948 q 373 1019 415 996 q 339 1027 355 1027 q 267 982 289 1027 q 260 948 260 964 q 307 879 260 898 q 339 872 323 872 q 407 914 387 872 q 415 948 415 930 m 666 948 q 623 1019 666 997 q 587 1027 605 1027 q 518 983 540 1027 q 510 948 510 966 q 555 879 510 899 q 587 872 571 872 q 658 916 637 872 q 666 948 666 932 z "},"Ù":{"ha":865,"x_min":14,"x_max":859,"o":"m 14 779 l 122 779 l 122 302 q 449 -14 125 -12 q 732 170 678 -14 q 750 317 750 232 l 750 779 l 859 779 l 859 814 l 593 814 l 593 779 l 701 779 l 701 309 q 477 26 700 27 q 283 172 323 26 q 269 312 269 231 l 269 779 l 376 779 l 376 814 l 14 814 l 14 779 m 591 856 q 476 998 545 901 q 435 1048 450 1035 q 395 1065 416 1065 q 334 1025 354 1065 q 327 996 327 1010 q 349 949 328 968 q 467 887 365 936 q 571 830 530 856 l 591 856 z "},"Ű":{"ha":865,"x_min":14,"x_max":859,"o":"m 14 779 l 122 779 l 122 302 q 449 -14 125 -12 q 732 170 678 -14 q 750 317 750 232 l 750 779 l 859 779 l 859 814 l 593 814 l 593 779 l 701 779 l 701 309 q 477 26 700 27 q 283 172 323 26 q 269 312 269 231 l 269 779 l 376 779 l 376 814 l 14 814 l 14 779 m 506 977 q 526 1021 526 993 q 488 1080 525 1059 q 458 1086 472 1086 q 419 1070 438 1085 q 355 982 407 1058 q 273 879 313 921 l 293 854 q 444 939 327 878 q 506 977 490 962 m 735 937 q 764 978 758 952 q 734 1043 770 1019 q 709 1054 722 1051 q 667 1044 686 1057 q 590 974 651 1035 q 487 886 536 920 l 503 857 q 671 913 537 872 q 735 937 716 926 z "},"Ū":{"ha":865,"x_min":14,"x_max":859,"o":"m 14 779 l 122 779 l 122 302 q 449 -14 125 -12 q 732 170 678 -14 q 750 317 750 232 l 750 779 l 859 779 l 859 814 l 593 814 l 593 779 l 701 779 l 701 309 q 477 26 700 27 q 283 172 323 26 q 269 312 269 231 l 269 779 l 376 779 l 376 814 l 14 814 l 14 779 m 258 909 l 675 909 l 675 979 l 258 979 l 258 909 z "},"Ų":{"ha":865,"x_min":14,"x_max":859,"o":"m 14 779 l 122 779 l 122 302 q 449 -14 125 -12 q 732 170 678 -14 q 750 317 750 232 l 750 779 l 859 779 l 859 814 l 593 814 l 593 779 l 701 779 l 701 309 q 477 26 700 27 q 283 172 323 26 q 269 312 269 231 l 269 779 l 376 779 l 376 814 l 14 814 l 14 779 m 557 -220 q 505 -152 507 -214 q 574 -34 505 -87 q 633 0 601 -14 l 632 12 q 397 -109 446 -16 q 384 -159 384 -133 q 456 -248 384 -222 q 521 -259 486 -259 q 647 -210 600 -258 l 631 -189 q 557 -220 593 -220 z "},"Ů":{"ha":865,"x_min":14,"x_max":859,"o":"m 14 779 l 122 779 l 122 302 q 449 -14 125 -12 q 732 170 678 -14 q 750 317 750 232 l 750 779 l 859 779 l 859 814 l 593 814 l 593 779 l 701 779 l 701 309 q 477 26 700 27 q 283 172 323 26 q 269 312 269 231 l 269 779 l 376 779 l 376 814 l 14 814 l 14 779 m 430 955 q 492 1048 435 1043 q 555 958 553 1047 q 509 864 555 878 q 492 861 500 861 q 430 955 431 863 m 496 1081 q 353 1006 387 1081 q 343 958 343 983 q 416 844 343 875 q 490 830 449 830 q 631 905 595 830 q 642 959 642 930 q 570 1067 642 1036 q 496 1081 537 1081 z "},"V":{"ha":792,"x_min":-9,"x_max":792,"o":"m 442 -7 l 724 779 l 792 779 l 792 814 l 563 814 l 563 779 l 671 779 l 453 163 l 213 779 l 321 779 l 321 814 l -9 814 l -9 779 l 66 779 l 330 98 q 380 3 361 16 q 422 -7 395 -7 l 442 -7 z "},"W":{"ha":1161,"x_min":-9,"x_max":1161,"o":"m 829 0 l 1093 779 l 1161 779 l 1161 814 l 940 814 l 940 779 l 1048 779 l 844 163 l 629 779 l 738 779 l 738 814 l 472 814 l 570 549 l 431 159 l 208 779 l 317 779 l 317 814 l -9 814 l -9 779 l 66 779 l 320 91 q 372 1 349 12 q 397 -4 382 -4 l 414 -4 l 591 488 l 738 91 q 784 5 765 16 q 811 0 795 0 l 829 0 z "},"X":{"ha":837,"x_min":11,"x_max":837,"o":"m 263 0 l 263 35 l 155 35 l 382 353 l 593 35 l 494 35 l 494 0 l 837 0 q 800 35 826 33 l 760 35 l 477 454 l 682 741 q 741 779 708 776 q 755 779 747 779 q 789 800 785 779 q 791 814 791 807 l 553 814 l 553 779 l 662 779 l 454 488 l 259 779 l 358 779 l 358 814 l 18 814 l 18 779 l 99 779 l 358 388 l 130 73 q 46 35 102 35 q 12 14 16 35 q 11 0 11 7 l 263 0 z "},"Y":{"ha":765,"x_min":-5,"x_max":765,"o":"m 574 0 q 537 35 563 33 l 463 35 l 463 345 l 658 741 q 730 779 685 777 q 764 800 760 779 q 765 814 765 807 l 525 814 l 525 779 l 633 779 l 437 391 l 228 779 l 331 779 l 331 814 l -5 814 l -5 779 l 65 779 l 316 332 l 316 35 l 205 35 l 205 0 l 574 0 z "},"Ý":{"ha":765,"x_min":-5,"x_max":765,"o":"m 574 0 q 537 35 563 33 l 463 35 l 463 345 l 658 741 q 730 779 685 777 q 764 800 760 779 q 765 814 765 807 l 525 814 l 525 779 l 633 779 l 437 391 l 228 779 l 331 779 l 331 814 l -5 814 l -5 779 l 65 779 l 316 332 l 316 35 l 205 35 l 205 0 l 574 0 m 537 949 q 560 996 559 971 q 522 1057 560 1036 q 492 1065 507 1065 q 452 1048 469 1063 q 384 962 438 1036 q 294 856 338 899 l 316 830 q 476 914 351 853 q 537 949 521 936 z "},"Ÿ":{"ha":765,"x_min":-5,"x_max":765,"o":"m 574 0 q 537 35 563 33 l 463 35 l 463 345 l 658 741 q 730 779 685 777 q 764 800 760 779 q 765 814 765 807 l 525 814 l 525 779 l 633 779 l 437 391 l 228 779 l 331 779 l 331 814 l -5 814 l -5 779 l 65 779 l 316 332 l 316 35 l 205 35 l 205 0 l 574 0 m 362 948 q 320 1019 362 996 q 286 1027 302 1027 q 214 982 236 1027 q 208 948 208 964 q 254 879 208 898 q 286 872 270 872 q 354 914 334 872 q 362 948 362 930 m 613 948 q 570 1019 613 997 q 534 1027 552 1027 q 465 983 487 1027 q 457 948 457 966 q 502 879 457 899 q 534 872 518 872 q 605 916 585 872 q 613 948 613 932 z "},"Z":{"ha":747,"x_min":31,"x_max":709,"o":"m 707 0 l 709 281 l 674 281 l 642 151 q 509 35 612 37 l 201 35 l 701 785 l 701 814 l 94 814 l 83 568 l 115 568 l 170 690 q 279 779 212 777 l 545 779 l 31 28 l 31 0 l 707 0 z "},"Ź":{"ha":747,"x_min":31,"x_max":709,"o":"m 707 0 l 709 281 l 674 281 l 642 151 q 509 35 612 37 l 201 35 l 701 785 l 701 814 l 94 814 l 83 568 l 115 568 l 170 690 q 279 779 212 777 l 545 779 l 31 28 l 31 0 l 707 0 m 538 949 q 562 996 560 971 q 524 1057 562 1036 q 494 1065 509 1065 q 453 1048 471 1063 q 385 962 439 1036 q 296 856 339 899 l 317 830 q 477 914 353 853 q 538 949 522 936 z "},"Ž":{"ha":747,"x_min":31,"x_max":709,"o":"m 707 0 l 709 281 l 674 281 l 642 151 q 509 35 612 37 l 201 35 l 701 785 l 701 814 l 94 814 l 83 568 l 115 568 l 170 690 q 279 779 212 777 l 545 779 l 31 28 l 31 0 l 707 0 m 412 856 q 495 906 450 856 q 526 945 505 918 q 609 1042 575 1005 l 590 1065 q 411 970 529 1027 q 232 1065 315 1016 l 213 1040 q 321 916 229 1023 q 412 856 378 860 z "},"Ż":{"ha":747,"x_min":31,"x_max":709,"o":"m 707 0 l 709 281 l 674 281 l 642 151 q 509 35 612 37 l 201 35 l 701 785 l 701 814 l 94 814 l 83 568 l 115 568 l 170 690 q 279 779 212 777 l 545 779 l 31 28 l 31 0 l 707 0 m 495 945 q 450 1021 495 997 q 411 1031 430 1031 q 334 982 357 1031 q 326 945 326 964 q 374 869 326 891 q 411 861 392 861 q 486 907 463 861 q 495 945 495 926 z "},"a":{"ha":661,"x_min":39,"x_max":654,"o":"m 529 -14 q 646 72 624 -14 q 654 127 652 96 l 618 129 q 567 31 609 33 q 533 100 534 34 l 533 385 q 304 595 530 594 q 90 522 140 595 q 75 476 75 499 q 115 420 75 433 q 137 418 126 418 q 195 463 179 418 q 202 483 198 469 q 245 552 220 537 q 292 562 264 562 q 403 419 401 559 l 403 332 q 43 184 77 328 q 39 145 39 165 q 133 0 39 37 q 210 -14 168 -14 q 376 57 313 -14 q 407 109 396 81 q 529 -14 427 -12 m 266 42 q 178 130 191 42 q 175 165 175 146 q 273 282 175 258 q 403 296 323 294 l 403 178 q 308 52 380 83 q 266 42 286 42 z "},"á":{"ha":661,"x_min":39,"x_max":654,"o":"m 529 -14 q 646 72 624 -14 q 654 127 652 96 l 618 129 q 567 31 609 33 q 533 100 534 34 l 533 385 q 304 595 530 594 q 90 522 140 595 q 75 476 75 499 q 115 420 75 433 q 137 418 126 418 q 195 463 179 418 q 202 483 198 469 q 245 552 220 537 q 292 562 264 562 q 403 419 401 559 l 403 332 q 43 184 77 328 q 39 145 39 165 q 133 0 39 37 q 210 -14 168 -14 q 376 57 313 -14 q 407 109 396 81 q 529 -14 427 -12 m 266 42 q 178 130 191 42 q 175 165 175 146 q 273 282 175 258 q 403 296 323 294 l 403 178 q 308 52 380 83 q 266 42 286 42 m 457 773 q 480 819 479 795 q 442 880 480 860 q 412 888 427 888 q 372 872 389 887 q 304 785 358 860 q 214 680 258 723 l 236 654 q 396 738 271 677 q 457 773 441 760 z "},"ă":{"ha":661,"x_min":39,"x_max":654,"o":"m 529 -14 q 646 72 624 -14 q 654 127 652 96 l 618 129 q 567 31 609 33 q 533 100 534 34 l 533 385 q 304 595 530 594 q 90 522 140 595 q 75 476 75 499 q 115 420 75 433 q 137 418 126 418 q 195 463 179 418 q 202 483 198 469 q 245 552 220 537 q 292 562 264 562 q 403 419 401 559 l 403 332 q 43 184 77 328 q 39 145 39 165 q 133 0 39 37 q 210 -14 168 -14 q 376 57 313 -14 q 407 109 396 81 q 529 -14 427 -12 m 266 42 q 178 130 191 42 q 175 165 175 146 q 273 282 175 258 q 403 296 323 294 l 403 178 q 308 52 380 83 q 266 42 286 42 m 334 785 q 467 854 445 785 q 471 868 469 861 l 499 868 q 408 703 499 743 q 330 688 374 688 q 170 798 203 688 q 159 868 159 831 l 186 868 q 334 785 203 785 z "},"â":{"ha":661,"x_min":39,"x_max":654,"o":"m 529 -14 q 646 72 624 -14 q 654 127 652 96 l 618 129 q 567 31 609 33 q 533 100 534 34 l 533 385 q 304 595 530 594 q 90 522 140 595 q 75 476 75 499 q 115 420 75 433 q 137 418 126 418 q 195 463 179 418 q 202 483 198 469 q 245 552 220 537 q 292 562 264 562 q 403 419 401 559 l 403 332 q 43 184 77 328 q 39 145 39 165 q 133 0 39 37 q 210 -14 168 -14 q 376 57 313 -14 q 407 109 396 81 q 529 -14 427 -12 m 266 42 q 178 130 191 42 q 175 165 175 146 q 273 282 175 258 q 403 296 323 294 l 403 178 q 308 52 380 83 q 266 42 286 42 m 496 677 l 513 701 q 411 822 492 723 q 328 876 359 872 q 252 829 292 876 q 225 795 244 819 q 146 700 179 736 l 163 678 q 331 766 241 726 q 496 677 403 734 z "},"´":{"ha":678,"x_min":256,"x_max":522,"o":"m 499 773 q 522 819 521 795 q 484 880 522 860 q 454 888 469 888 q 414 872 431 887 q 346 785 400 860 q 256 680 300 723 l 278 654 q 438 738 313 677 q 499 773 483 760 z "},"ä":{"ha":661,"x_min":39,"x_max":654,"o":"m 529 -14 q 646 72 624 -14 q 654 127 652 96 l 618 129 q 567 31 609 33 q 533 100 534 34 l 533 385 q 304 595 530 594 q 90 522 140 595 q 75 476 75 499 q 115 420 75 433 q 137 418 126 418 q 195 463 179 418 q 202 483 198 469 q 245 552 220 537 q 292 562 264 562 q 403 419 401 559 l 403 332 q 43 184 77 328 q 39 145 39 165 q 133 0 39 37 q 210 -14 168 -14 q 376 57 313 -14 q 407 109 396 81 q 529 -14 427 -12 m 266 42 q 178 130 191 42 q 175 165 175 146 q 273 282 175 258 q 403 296 323 294 l 403 178 q 308 52 380 83 q 266 42 286 42 m 282 772 q 240 842 282 819 q 206 850 222 850 q 134 806 156 850 q 127 772 127 788 q 174 703 127 722 q 206 696 190 696 q 274 738 254 696 q 282 772 282 754 m 533 772 q 490 842 533 821 q 454 850 472 850 q 385 807 407 850 q 377 772 377 789 q 422 703 377 723 q 454 696 438 696 q 525 739 505 696 q 533 772 533 755 z "},"æ":{"ha":979,"x_min":35,"x_max":937,"o":"m 682 562 q 799 449 787 562 q 800 420 800 434 q 745 339 800 354 q 656 334 713 331 l 537 336 q 659 560 543 540 q 682 562 671 562 m 928 138 l 892 145 q 760 30 850 54 q 712 24 735 24 q 537 297 544 24 q 537 300 537 298 l 684 297 q 914 340 868 293 q 937 406 937 366 q 836 560 937 506 q 684 595 769 595 q 494 519 567 594 q 305 595 434 595 q 84 521 134 595 q 71 476 71 499 q 111 420 71 433 q 133 418 122 418 q 193 464 175 418 q 198 483 194 471 q 244 551 217 537 q 292 562 264 562 q 407 419 406 559 l 407 332 q 41 191 80 328 q 35 145 35 168 q 132 0 35 37 q 209 -14 167 -14 q 391 71 320 -14 q 431 144 419 104 q 686 -14 492 -12 q 913 104 848 -14 q 928 138 921 122 m 266 42 q 172 134 186 42 q 171 165 171 149 q 278 283 171 259 q 407 296 327 294 l 407 178 q 315 54 387 88 q 266 42 289 42 z "},"à":{"ha":661,"x_min":39,"x_max":654,"o":"m 529 -14 q 646 72 624 -14 q 654 127 652 96 l 618 129 q 567 31 609 33 q 533 100 534 34 l 533 385 q 304 595 530 594 q 90 522 140 595 q 75 476 75 499 q 115 420 75 433 q 137 418 126 418 q 195 463 179 418 q 202 483 198 469 q 245 552 220 537 q 292 562 264 562 q 403 419 401 559 l 403 332 q 43 184 77 328 q 39 145 39 165 q 133 0 39 37 q 210 -14 168 -14 q 376 57 313 -14 q 407 109 396 81 q 529 -14 427 -12 m 266 42 q 178 130 191 42 q 175 165 175 146 q 273 282 175 258 q 403 296 323 294 l 403 178 q 308 52 380 83 q 266 42 286 42 m 458 680 q 343 822 412 724 q 302 872 317 859 q 262 888 283 888 q 201 849 221 888 q 194 819 194 834 q 216 773 195 792 q 334 711 232 760 q 438 654 397 680 l 458 680 z "},"ā":{"ha":661,"x_min":39,"x_max":654,"o":"m 529 -14 q 646 72 624 -14 q 654 127 652 96 l 618 129 q 567 31 609 33 q 533 100 534 34 l 533 385 q 304 595 530 594 q 90 522 140 595 q 75 476 75 499 q 115 420 75 433 q 137 418 126 418 q 195 463 179 418 q 202 483 198 469 q 245 552 220 537 q 292 562 264 562 q 403 419 401 559 l 403 332 q 43 184 77 328 q 39 145 39 165 q 133 0 39 37 q 210 -14 168 -14 q 376 57 313 -14 q 407 109 396 81 q 529 -14 427 -12 m 266 42 q 178 130 191 42 q 175 165 175 146 q 273 282 175 258 q 403 296 323 294 l 403 178 q 308 52 380 83 q 266 42 286 42 m 123 732 l 541 732 l 541 803 l 123 803 l 123 732 z "},"&":{"ha":802,"x_min":42,"x_max":818,"o":"m 317 686 q 377 785 317 764 q 412 792 395 792 q 505 724 488 792 q 509 692 509 708 q 441 576 509 628 q 365 538 407 552 q 317 686 317 632 m 366 27 q 180 274 182 30 q 248 454 180 411 q 267 464 258 461 q 533 83 357 290 q 366 27 457 27 m 715 433 l 713 433 l 718 433 l 760 434 q 795 450 791 434 q 798 471 798 460 l 602 471 l 602 435 l 677 435 q 616 180 677 288 q 380 509 463 363 q 532 629 490 543 q 547 692 547 662 q 465 815 547 784 q 399 827 434 827 q 228 745 278 827 q 205 656 205 707 q 252 494 206 591 q 49 302 83 445 q 42 239 42 271 q 137 43 42 115 q 323 -14 213 -14 q 556 57 461 -12 q 562 51 559 54 q 568 43 564 47 q 573 37 571 39 q 579 31 575 35 q 585 24 583 26 q 591 18 587 23 q 596 12 595 14 q 602 5 597 11 l 608 0 l 818 0 q 796 34 818 31 q 784 35 791 35 l 745 35 q 642 151 694 90 q 715 433 715 266 z "},"ං":{"ha":481,"x_min":39,"x_max":419,"o":"m 96 243 q 159 134 96 172 q 229 114 191 114 q 342 175 302 114 q 361 243 361 208 q 301 349 361 312 q 229 369 267 369 q 115 308 155 369 q 96 243 96 278 m 39 218 q 115 368 39 311 q 229 406 167 406 q 381 330 324 406 q 419 218 419 279 q 343 71 419 126 q 229 33 292 33 q 76 109 133 33 q 39 218 39 159 z "},"ą":{"ha":661,"x_min":39,"x_max":654,"o":"m 266 42 q 178 130 191 42 q 175 165 175 146 q 273 282 175 258 q 403 296 323 294 l 403 178 q 308 52 380 83 q 266 42 286 42 m 541 -220 q 488 -152 491 -214 q 557 -34 488 -87 q 617 0 585 -14 l 616 12 l 612 12 q 654 127 650 46 l 618 129 q 567 31 609 33 q 533 100 534 34 l 533 385 q 304 595 530 594 q 90 522 140 595 q 75 476 75 499 q 115 420 75 433 q 137 418 126 418 q 195 463 179 418 q 202 483 198 469 q 245 552 220 537 q 292 562 264 562 q 403 419 401 559 l 403 332 q 43 184 77 328 q 39 145 39 165 q 133 0 39 37 q 210 -14 168 -14 q 376 57 313 -14 q 407 109 396 81 q 513 -12 425 -1 q 369 -140 385 -58 q 368 -159 368 -151 q 439 -248 368 -222 q 505 -259 469 -259 q 631 -210 583 -258 l 614 -189 q 541 -220 576 -220 z "},"≈":{"ha":665,"x_min":49,"x_max":616,"o":"m 217 524 q 365 472 271 524 q 476 430 441 430 q 582 526 548 433 l 616 517 q 510 357 594 393 q 454 345 483 345 q 305 395 401 345 q 187 437 225 437 q 83 342 115 434 l 49 351 q 164 514 73 480 q 217 524 190 524 m 217 304 q 365 252 271 304 q 476 210 441 210 q 582 305 548 213 l 616 296 q 509 136 594 172 q 454 125 481 125 q 305 175 401 125 q 187 217 225 217 q 83 121 115 214 l 49 130 q 161 293 73 256 q 217 304 189 304 z "},"å":{"ha":661,"x_min":39,"x_max":654,"o":"m 529 -14 q 646 72 624 -14 q 654 127 652 96 l 618 129 q 567 31 609 33 q 533 100 534 34 l 533 385 q 304 595 530 594 q 90 522 140 595 q 75 476 75 499 q 115 420 75 433 q 137 418 126 418 q 195 463 179 418 q 202 483 198 469 q 245 552 220 537 q 292 562 264 562 q 403 419 401 559 l 403 332 q 43 184 77 328 q 39 145 39 165 q 133 0 39 37 q 210 -14 168 -14 q 376 57 313 -14 q 407 109 396 81 q 529 -14 427 -12 m 266 42 q 178 130 191 42 q 175 165 175 146 q 273 282 175 258 q 403 296 323 294 l 403 178 q 308 52 380 83 q 266 42 286 42 m 264 779 q 327 872 270 867 q 389 781 388 871 q 343 688 389 701 q 327 685 335 685 q 264 779 266 686 m 331 905 q 187 830 221 905 q 178 781 178 807 q 251 667 178 699 q 324 654 283 654 q 465 728 430 654 q 476 783 476 754 q 404 891 476 860 q 331 905 372 905 z "},"^":{"ha":732,"x_min":109,"x_max":624,"o":"m 109 452 l 151 425 l 366 776 l 582 425 l 624 452 l 380 846 l 353 846 l 109 452 z "},"~":{"ha":665,"x_min":49,"x_max":616,"o":"m 217 427 q 365 376 271 427 q 476 334 441 334 q 582 429 548 336 l 616 419 q 513 258 594 297 q 454 244 484 244 q 305 294 401 244 q 187 338 225 338 q 83 244 115 335 l 49 254 q 161 416 73 380 q 217 427 189 427 z "},"*":{"ha":480,"x_min":35,"x_max":446,"o":"m 241 882 q 187 846 194 882 q 186 836 186 841 q 210 747 186 822 q 227 680 221 709 q 149 760 210 693 q 90 800 111 799 q 42 761 57 800 q 37 736 37 747 q 58 699 38 711 q 151 675 69 693 q 216 656 187 666 q 99 627 195 648 q 57 613 71 620 q 35 578 37 600 q 65 522 35 543 q 91 514 77 514 q 163 568 115 514 q 227 635 205 617 q 194 518 222 612 q 186 476 186 491 q 240 431 195 437 q 294 467 288 431 q 296 477 296 473 q 271 567 296 491 q 254 635 259 605 q 328 557 267 624 q 392 513 369 514 q 439 552 425 513 q 445 576 445 566 q 423 614 444 602 q 332 637 412 620 q 267 656 294 647 q 382 685 281 662 q 423 700 410 693 q 446 735 445 713 q 416 791 446 769 q 391 799 403 799 q 320 746 365 799 q 254 677 275 694 q 288 793 258 697 q 296 837 296 822 q 252 880 296 875 q 241 882 247 882 z "},"@":{"ha":1213,"x_min":77,"x_max":1128,"o":"m 914 -160 l 898 -126 q 658 -183 780 -183 q 338 -52 467 -183 q 206 294 206 84 q 342 654 206 526 q 612 753 448 753 q 907 624 793 753 q 1021 282 1021 495 q 948 71 1021 130 q 890 47 920 47 q 829 126 830 50 l 829 376 q 616 568 826 567 q 420 500 467 568 q 407 460 407 480 q 448 407 407 418 q 464 406 456 406 q 526 450 511 406 q 532 469 528 456 q 568 529 544 517 q 605 536 585 536 q 699 439 689 536 q 700 408 700 425 l 700 330 q 384 216 429 327 q 373 159 373 191 q 472 23 373 52 q 532 15 500 15 q 684 87 629 15 q 704 123 696 104 q 873 14 723 15 q 1076 117 1004 14 q 1128 304 1128 194 q 940 699 1128 567 q 623 791 807 791 q 201 617 351 791 q 77 260 77 473 q 244 -103 77 37 q 616 -232 399 -232 q 914 -160 773 -232 m 582 69 q 509 142 522 69 q 506 178 506 159 q 627 290 506 270 q 700 296 659 294 l 700 190 q 613 75 678 99 q 582 69 597 69 z "},"ã":{"ha":661,"x_min":39,"x_max":654,"o":"m 529 -14 q 646 72 624 -14 q 654 127 652 96 l 618 129 q 567 31 609 33 q 533 100 534 34 l 533 385 q 304 595 530 594 q 90 522 140 595 q 75 476 75 499 q 115 420 75 433 q 137 418 126 418 q 195 463 179 418 q 202 483 198 469 q 245 552 220 537 q 292 562 264 562 q 403 419 401 559 l 403 332 q 43 184 77 328 q 39 145 39 165 q 133 0 39 37 q 210 -14 168 -14 q 376 57 313 -14 q 407 109 396 81 q 529 -14 427 -12 m 266 42 q 178 130 191 42 q 175 165 175 146 q 273 282 175 258 q 403 296 323 294 l 403 178 q 308 52 380 83 q 266 42 286 42 m 258 869 q 361 825 298 869 q 441 788 412 788 q 513 859 492 788 q 514 864 514 863 l 543 859 q 434 701 521 716 q 418 700 426 700 q 316 745 377 700 q 236 781 264 781 q 167 723 187 781 q 161 705 164 713 l 134 711 q 258 869 168 860 z "},"b":{"ha":749,"x_min":28,"x_max":701,"o":"m 422 -14 q 627 80 547 -14 q 701 302 701 168 q 610 543 701 460 q 468 595 549 595 q 252 449 319 595 q 251 445 251 446 l 251 882 l 28 882 l 28 846 l 121 846 l 121 113 q 83 41 121 53 q 28 35 64 35 l 28 0 l 216 0 l 227 92 q 422 -14 293 -12 m 416 537 q 553 366 532 537 q 557 289 557 330 q 456 34 557 81 q 403 22 431 22 q 267 138 304 22 q 251 263 251 193 q 331 505 251 434 q 416 537 369 537 z "},"\\":{"ha":579,"x_min":-12,"x_max":545,"o":"m 450 -210 l -12 963 l 83 963 l 545 -210 l 450 -210 z "},"|":{"ha":366,"x_min":138,"x_max":228,"o":"m 138 -184 l 138 882 l 228 882 l 228 -184 l 138 -184 z "},"{":{"ha":543,"x_min":103,"x_max":515,"o":"m 335 201 l 335 -4 q 361 -118 335 -94 q 515 -146 395 -146 l 515 -184 q 286 -163 340 -184 q 208 -34 217 -133 q 206 5 206 -15 l 206 208 q 171 307 206 282 q 103 331 148 321 l 103 359 q 197 415 179 376 q 206 483 206 439 l 206 685 q 270 845 206 807 q 480 875 320 873 q 515 875 495 875 l 515 837 q 362 810 392 837 q 335 694 335 783 l 335 490 q 267 366 335 404 q 232 349 254 358 l 232 342 q 317 279 297 313 q 335 201 335 247 z "},"}":{"ha":534,"x_min":27,"x_max":439,"o":"m 208 487 l 208 692 q 182 806 208 781 q 27 834 148 834 l 27 872 q 256 850 202 872 q 335 722 326 821 q 336 682 336 703 l 336 480 q 372 381 336 406 q 439 357 395 366 l 439 328 q 346 273 363 312 q 336 205 336 248 l 336 3 q 273 -157 336 -119 q 62 -187 222 -186 q 27 -187 47 -187 l 27 -149 q 180 -122 151 -149 q 208 -7 208 -95 l 208 198 q 275 321 208 283 q 311 339 289 330 l 311 346 q 225 408 245 374 q 208 487 208 441 z "},"[":{"ha":490,"x_min":111,"x_max":460,"o":"m 460 -184 l 111 -184 l 111 875 l 460 875 l 460 837 l 244 837 l 244 -144 l 460 -146 l 460 -184 z "},"]":{"ha":507,"x_min":47,"x_max":396,"o":"m 47 -184 l 396 -184 l 396 875 l 47 875 l 47 837 l 263 837 l 263 -144 l 47 -146 l 47 -184 z "},"˘":{"ha":678,"x_min":170,"x_max":510,"o":"m 345 785 q 477 854 456 785 q 481 868 480 861 l 510 868 q 419 703 510 743 q 340 688 385 688 q 180 798 214 688 q 170 868 170 831 l 197 868 q 345 785 214 785 z "},"¦":{"ha":366,"x_min":138,"x_max":228,"o":"m 228 427 l 228 882 l 138 882 l 138 427 l 228 427 m 228 -184 l 228 270 l 138 270 l 138 -184 l 228 -184 z "},"•":{"ha":487,"x_min":111,"x_max":376,"o":"m 376 309 q 313 422 376 382 q 243 442 281 442 q 130 380 168 442 q 111 309 111 347 q 174 197 111 236 q 243 178 206 178 q 354 239 315 178 q 376 309 376 271 z "},"c":{"ha":601,"x_min":49,"x_max":594,"o":"m 49 286 q 180 30 49 109 q 347 -14 254 -14 q 562 79 488 -14 q 594 134 582 104 l 559 145 q 410 28 514 47 q 366 24 388 24 q 210 155 251 24 q 193 292 193 213 q 350 562 194 560 q 433 503 418 562 q 438 471 435 494 q 469 397 448 412 q 509 387 486 388 q 578 433 567 385 q 581 450 581 442 q 500 559 581 514 q 347 595 434 595 q 102 473 183 595 q 49 286 49 395 z "},"ć":{"ha":601,"x_min":49,"x_max":594,"o":"m 49 286 q 180 30 49 109 q 347 -14 254 -14 q 562 79 488 -14 q 594 134 582 104 l 559 145 q 410 28 514 47 q 366 24 388 24 q 210 155 251 24 q 193 292 193 213 q 350 562 194 560 q 433 503 418 562 q 438 471 435 494 q 469 397 448 412 q 509 387 486 388 q 578 433 567 385 q 581 450 581 442 q 500 559 581 514 q 347 595 434 595 q 102 473 183 595 q 49 286 49 395 m 463 773 q 486 819 484 795 q 448 880 486 860 q 418 888 433 888 q 377 872 395 887 q 309 785 363 860 q 220 680 263 723 l 241 654 q 401 738 277 677 q 463 773 446 760 z "},"ˇ":{"ha":678,"x_min":141,"x_max":537,"o":"m 340 680 q 423 730 378 680 q 454 769 433 742 q 537 865 503 829 l 518 888 q 339 793 457 850 q 160 888 243 840 l 141 864 q 250 739 157 846 q 340 680 307 684 z "},"č":{"ha":601,"x_min":49,"x_max":594,"o":"m 49 286 q 180 30 49 109 q 347 -14 254 -14 q 562 79 488 -14 q 594 134 582 104 l 559 145 q 410 28 514 47 q 366 24 388 24 q 210 155 251 24 q 193 292 193 213 q 350 562 194 560 q 433 503 418 562 q 438 471 435 494 q 469 397 448 412 q 509 387 486 388 q 578 433 567 385 q 581 450 581 442 q 500 559 581 514 q 347 595 434 595 q 102 473 183 595 q 49 286 49 395 m 336 680 q 419 730 374 680 q 450 769 429 742 q 533 865 499 829 l 514 888 q 335 793 453 850 q 156 888 239 840 l 137 864 q 245 739 153 846 q 336 680 302 684 z "},"ç":{"ha":601,"x_min":49,"x_max":594,"o":"m 49 286 q 182 28 49 107 q 277 -7 225 4 l 222 -115 l 241 -127 q 309 -104 275 -104 q 374 -163 366 -104 q 376 -182 376 -172 q 324 -269 376 -252 q 302 -273 313 -273 q 210 -220 251 -271 l 189 -236 q 334 -308 237 -307 q 479 -244 434 -308 q 498 -184 498 -217 q 423 -83 498 -113 q 350 -69 389 -69 q 278 -83 309 -69 l 309 -12 q 347 -14 323 -14 q 562 79 488 -14 q 594 134 582 104 l 559 145 q 410 28 514 47 q 366 24 388 24 q 210 155 251 24 q 193 292 193 213 q 350 562 194 560 q 433 503 418 562 q 438 471 435 494 q 469 397 448 412 q 509 387 486 388 q 578 433 567 385 q 581 450 581 442 q 500 559 581 514 q 347 595 434 595 q 102 473 183 595 q 49 286 49 395 z "},"¸":{"ha":678,"x_min":184,"x_max":494,"o":"m 218 -115 l 237 -127 q 305 -104 271 -104 q 370 -163 362 -104 q 372 -182 372 -172 q 320 -269 372 -252 q 298 -273 309 -273 q 206 -220 247 -271 l 184 -236 q 330 -308 233 -307 q 475 -244 430 -308 q 494 -184 494 -217 q 419 -83 494 -113 q 346 -69 385 -69 q 274 -83 305 -69 l 313 7 l 279 7 l 218 -115 z "},"¢":{"ha":628,"x_min":47,"x_max":594,"o":"m 47 369 q 179 113 47 193 q 319 71 241 76 l 319 -27 l 358 -27 l 358 69 q 567 168 499 73 q 594 218 585 193 l 559 228 q 418 113 515 136 q 365 106 392 106 l 358 106 l 358 644 q 435 587 422 644 q 441 553 438 576 q 469 480 448 495 q 507 469 486 471 q 576 515 566 468 q 579 533 579 525 q 500 640 579 595 q 358 678 438 675 l 358 773 l 319 773 l 319 677 q 91 541 163 666 q 47 369 47 467 m 189 373 q 319 642 190 617 l 319 113 q 191 312 209 144 q 189 373 189 342 z "},"ˆ":{"ha":678,"x_min":156,"x_max":522,"o":"m 506 677 l 522 701 q 420 822 502 723 q 338 876 369 872 q 262 829 301 876 q 235 795 254 819 q 156 700 189 736 l 172 678 q 340 766 251 726 q 506 677 412 734 z "},":":{"ha":278,"x_min":61,"x_max":217,"o":"m 217 453 q 174 524 217 502 q 138 532 156 532 q 68 487 90 532 q 61 453 61 471 q 107 381 61 400 q 138 374 122 374 q 209 419 189 374 q 217 453 217 435 m 217 138 q 175 210 217 187 q 138 220 157 220 q 69 175 91 220 q 61 138 61 157 q 107 68 61 88 q 138 61 122 61 q 209 104 189 61 q 217 138 217 122 z "},",":{"ha":259,"x_min":54,"x_max":216,"o":"m 216 60 q 161 153 216 133 q 130 159 146 159 q 61 111 81 159 q 54 79 54 95 q 104 7 54 27 q 118 3 111 4 q 151 -24 149 -5 q 94 -122 149 -64 l 122 -142 q 216 60 209 -39 z "},"":{"ha":678,"x_min":254,"x_max":425,"o":"m 425 -153 q 365 -54 425 -73 q 334 -49 350 -49 q 262 -95 285 -49 q 254 -133 254 -114 q 304 -206 254 -184 q 321 -212 313 -210 q 357 -240 355 -220 q 296 -345 355 -279 l 326 -366 q 425 -170 415 -273 q 425 -153 425 -160 z "},"©":{"ha":880,"x_min":53,"x_max":827,"o":"m 827 373 q 709 655 827 544 q 441 758 601 758 q 145 629 258 758 q 53 373 53 522 q 172 90 53 201 q 441 -14 282 -14 q 732 114 621 -14 q 827 373 827 222 m 95 373 q 209 639 95 540 q 441 722 304 722 q 708 600 609 722 q 785 373 785 503 q 674 110 785 212 q 441 23 578 23 q 171 146 270 23 q 95 373 95 243 m 448 617 q 252 519 320 617 q 209 372 209 456 q 304 176 209 243 q 446 133 365 133 q 625 222 567 133 q 637 245 632 235 l 608 258 q 469 171 564 172 q 354 285 384 171 q 343 384 343 330 q 400 566 343 518 q 446 583 422 583 q 502 540 492 583 q 506 515 505 532 q 538 449 514 463 q 578 439 555 439 q 636 491 631 448 q 552 597 636 560 q 448 617 505 617 z "},"¤":{"ha":819,"x_min":76,"x_max":732,"o":"m 403 149 q 235 231 297 149 q 189 381 189 292 q 290 581 189 519 q 401 610 342 610 q 567 530 506 610 q 614 380 614 468 q 510 178 614 239 q 403 149 461 149 m 400 103 q 581 168 506 104 l 697 52 l 730 84 l 612 202 q 670 382 670 277 q 617 553 669 483 l 732 670 l 700 704 l 586 589 q 404 655 510 655 q 224 591 300 654 l 109 705 l 76 673 l 191 557 q 133 378 133 483 q 194 197 134 269 l 79 83 l 113 49 l 228 164 q 400 103 300 103 z "},"d":{"ha":755,"x_min":49,"x_max":728,"o":"m 514 0 l 728 0 q 711 34 728 31 q 696 35 704 35 l 629 35 l 628 882 l 370 882 l 370 848 l 498 848 l 498 529 q 324 597 431 597 q 104 479 183 597 q 49 277 49 392 q 156 31 49 111 q 290 -14 216 -14 q 494 123 431 -14 q 499 137 496 130 l 514 0 m 193 293 q 285 538 193 481 q 353 557 316 557 q 484 442 449 557 q 500 319 500 389 q 418 73 500 142 q 338 43 382 43 q 205 176 237 43 q 193 293 193 228 z "},"†":{"ha":629,"x_min":66,"x_max":563,"o":"m 315 745 q 256 693 258 742 q 281 591 256 680 q 298 514 293 547 q 163 547 271 518 q 117 555 132 555 q 66 499 71 548 q 118 444 69 445 q 227 468 130 444 q 313 486 277 481 q 460 453 345 483 q 513 444 496 444 q 563 498 559 450 q 511 555 553 548 q 404 530 498 555 q 331 514 362 518 q 363 648 334 540 q 372 694 372 680 q 315 745 369 743 m 315 446 q 251 397 259 446 q 250 384 250 391 q 267 256 250 366 q 297 -107 289 113 l 332 -107 q 372 319 340 121 q 378 385 378 359 q 315 446 369 441 z "},"‡":{"ha":624,"x_min":64,"x_max":560,"o":"m 312 745 q 254 693 255 742 q 278 591 254 680 q 296 514 290 547 q 160 547 269 517 q 114 555 129 555 q 64 499 68 548 q 115 444 66 445 q 224 468 127 444 q 311 486 274 481 q 457 453 342 483 q 510 444 494 444 q 560 498 556 450 q 509 555 551 548 q 401 530 495 555 q 328 514 359 518 q 361 648 331 540 q 369 694 369 680 q 312 745 366 743 m 311 -92 q 369 -41 368 -90 q 345 62 369 -27 q 328 138 332 106 q 464 106 350 136 q 510 98 495 98 q 560 153 556 104 q 509 209 553 205 q 400 184 495 209 q 313 167 350 171 q 167 199 282 170 q 114 209 130 209 q 64 155 68 202 q 115 98 69 100 q 220 122 127 98 q 296 138 263 134 q 263 5 293 117 q 255 -42 255 -26 q 311 -92 259 -90 m 389 326 q 346 396 389 374 q 312 404 330 404 q 243 359 263 404 q 236 326 236 342 q 279 256 236 277 q 312 248 294 248 q 381 292 361 248 q 389 326 389 308 z "},"ď":{"ha":777,"x_min":49,"x_max":836,"o":"m 514 0 l 728 0 q 711 34 728 31 q 696 35 704 35 l 629 35 l 628 882 l 370 882 l 370 848 l 498 848 l 498 529 q 324 597 431 597 q 104 479 183 597 q 49 277 49 392 q 156 31 49 111 q 290 -14 216 -14 q 494 123 431 -14 q 499 137 496 130 l 514 0 m 193 293 q 285 538 193 481 q 353 557 316 557 q 484 442 449 557 q 500 319 500 389 q 418 73 500 142 q 338 43 382 43 q 205 176 237 43 q 193 293 193 228 m 836 792 q 776 891 836 872 q 745 897 761 897 q 674 852 697 897 q 665 812 665 833 q 715 739 665 761 q 732 734 724 735 q 768 705 766 724 q 707 601 766 666 l 736 579 q 836 776 826 673 q 836 792 836 785 z "},"đ":{"ha":755,"x_min":49,"x_max":728,"o":"m 250 690 l 498 690 l 498 529 q 324 597 431 597 q 104 479 183 597 q 49 277 49 392 q 156 31 49 111 q 290 -14 216 -14 q 494 123 431 -14 q 499 137 496 130 l 514 0 l 728 0 q 711 34 728 31 q 696 35 704 35 l 629 35 l 628 690 l 728 690 l 728 735 l 628 735 l 628 882 l 370 882 l 370 848 l 498 848 l 498 735 l 250 735 l 250 690 m 193 293 q 285 538 193 481 q 353 557 316 557 q 484 442 449 557 q 500 319 500 389 q 418 73 500 142 q 338 43 382 43 q 205 176 237 43 q 193 293 193 228 z "},"°":{"ha":393,"x_min":62,"x_max":331,"o":"m 103 735 q 152 822 103 793 q 197 834 174 834 q 278 784 250 834 q 290 735 290 761 q 240 652 290 678 q 197 642 218 642 q 113 693 138 642 q 103 735 103 713 m 331 735 q 270 849 331 808 q 197 872 236 872 q 84 810 125 872 q 62 735 62 774 q 125 624 62 662 q 197 605 159 605 q 311 666 271 605 q 331 735 331 699 z "},"¨":{"ha":678,"x_min":137,"x_max":543,"o":"m 292 773 q 250 844 292 821 q 216 852 232 852 q 144 807 165 852 q 137 773 137 789 q 183 704 137 723 q 216 697 199 697 q 283 739 263 697 q 292 773 292 755 m 543 773 q 499 844 543 822 q 464 852 481 852 q 395 808 416 852 q 387 773 387 791 q 431 704 387 724 q 464 697 448 697 q 534 741 514 697 q 543 773 543 757 z "},"÷":{"ha":624,"x_min":53,"x_max":572,"o":"m 572 292 l 572 343 l 53 343 l 53 292 l 572 292 m 270 141 q 321 164 288 168 q 347 152 338 161 q 372 104 374 136 q 358 77 369 88 q 305 53 340 47 q 281 65 290 56 q 255 98 262 79 q 270 141 252 123 m 270 549 q 321 572 288 576 q 347 560 336 571 q 372 513 374 544 q 358 486 369 496 q 305 461 340 456 q 281 473 290 464 q 255 506 262 487 q 270 549 252 532 z "},"$":{"ha":745,"x_min":62,"x_max":682,"o":"m 233 663 q 331 783 233 760 q 361 788 346 787 l 361 500 q 233 663 237 574 m 541 175 q 400 28 538 47 l 400 343 q 534 220 511 285 q 541 175 541 198 m 400 -123 l 400 -11 q 644 99 572 1 q 682 218 682 151 q 557 403 682 330 q 406 477 538 415 q 400 480 401 479 l 400 789 q 494 723 473 785 q 503 688 498 712 q 540 613 515 629 q 590 601 560 601 q 659 662 651 601 q 661 678 661 670 q 551 800 661 757 q 400 827 483 826 l 400 948 l 361 948 l 361 826 q 130 730 201 817 q 91 617 91 681 q 218 431 91 507 q 361 362 247 415 l 361 26 l 353 26 q 245 92 267 26 q 235 134 240 106 q 199 214 222 197 q 144 229 178 229 q 66 176 83 229 q 62 148 62 161 q 167 23 62 68 q 361 -12 247 -12 l 361 -123 l 400 -123 z "},"˙":{"ha":387,"x_min":107,"x_max":277,"o":"m 277 769 q 232 845 277 821 q 193 854 212 854 q 115 806 138 854 q 107 769 107 788 q 156 693 107 715 q 193 685 174 685 q 267 731 244 685 q 277 769 277 750 z "},"ı":{"ha":387,"x_min":35,"x_max":358,"o":"m 326 35 l 266 35 l 266 579 l 35 579 l 35 544 l 129 544 l 129 106 q 49 35 129 39 q 35 35 42 35 l 35 0 l 358 0 q 340 34 358 31 q 326 35 334 35 z "},"◌":{"ha":738,"x_min":60,"x_max":667,"o":"m 136 127 q 171 161 140 160 q 206 127 206 159 q 171 92 202 94 q 136 127 136 95 m 79 217 q 114 252 83 251 q 146 217 146 250 q 113 182 142 183 q 79 217 79 184 m 222 71 q 256 104 227 103 q 292 71 292 102 q 255 35 288 37 q 222 71 222 38 m 323 49 q 358 84 327 83 q 391 49 391 81 q 357 15 387 16 q 323 49 323 18 m 61 317 q 95 353 64 351 q 130 317 130 350 q 95 283 126 285 q 61 317 61 286 m 83 419 q 119 454 87 453 q 151 419 151 452 q 119 384 146 385 q 83 419 83 387 m 427 71 q 463 104 431 103 q 496 71 496 102 q 461 35 492 37 q 427 71 427 38 m 142 509 q 179 543 146 541 q 212 509 214 540 q 176 475 208 476 q 142 509 142 477 m 517 127 q 551 161 521 160 q 585 127 585 159 q 549 92 581 94 q 517 127 517 95 m 231 567 q 266 601 235 600 q 300 567 300 598 q 264 532 296 533 q 231 567 231 534 m 575 217 q 610 252 579 251 q 646 217 646 250 q 608 182 642 183 q 575 217 575 184 m 334 586 q 368 621 338 620 q 401 586 401 618 q 368 551 397 552 q 334 586 334 553 m 595 317 q 632 353 600 351 q 666 317 666 350 q 632 283 662 285 q 595 317 597 286 m 435 567 q 472 601 439 600 q 505 567 505 598 q 471 532 500 533 q 435 567 435 534 m 579 419 q 614 454 583 453 q 650 419 650 452 q 613 384 646 385 q 579 419 579 387 m 522 509 q 557 543 526 541 q 593 509 593 540 q 556 475 589 476 q 522 509 522 477 z "},"e":{"ha":636,"x_min":49,"x_max":594,"o":"m 340 562 q 450 473 427 562 q 457 420 457 448 q 401 339 457 354 q 313 334 370 331 l 193 336 q 293 552 198 510 q 340 562 315 562 m 583 134 l 551 145 q 412 30 506 52 q 369 24 391 24 q 193 296 199 24 q 193 298 193 297 l 340 296 q 572 340 526 292 q 594 406 594 366 q 492 560 594 507 q 339 595 425 595 q 99 472 178 595 q 49 289 49 393 q 180 30 49 109 q 343 -14 252 -14 q 564 96 496 -14 q 583 134 575 115 z "},"é":{"ha":636,"x_min":49,"x_max":594,"o":"m 340 562 q 450 473 427 562 q 457 420 457 448 q 401 339 457 354 q 313 334 370 331 l 193 336 q 293 552 198 510 q 340 562 315 562 m 583 134 l 551 145 q 412 30 506 52 q 369 24 391 24 q 193 296 199 24 q 193 298 193 297 l 340 296 q 572 340 526 292 q 594 406 594 366 q 492 560 594 507 q 339 595 425 595 q 99 472 178 595 q 49 289 49 393 q 180 30 49 109 q 343 -14 252 -14 q 564 96 496 -14 q 583 134 575 115 m 448 773 q 471 819 469 795 q 433 880 471 860 q 403 888 418 888 q 362 872 380 887 q 294 785 349 860 q 205 680 248 723 l 227 654 q 387 738 262 677 q 448 773 431 760 z "},"ě":{"ha":636,"x_min":49,"x_max":594,"o":"m 340 562 q 450 473 427 562 q 457 420 457 448 q 401 339 457 354 q 313 334 370 331 l 193 336 q 293 552 198 510 q 340 562 315 562 m 583 134 l 551 145 q 412 30 506 52 q 369 24 391 24 q 193 296 199 24 q 193 298 193 297 l 340 296 q 572 340 526 292 q 594 406 594 366 q 492 560 594 507 q 339 595 425 595 q 99 472 178 595 q 49 289 49 393 q 180 30 49 109 q 343 -14 252 -14 q 564 96 496 -14 q 583 134 575 115 m 321 680 q 404 730 359 680 q 435 769 414 742 q 518 865 484 829 l 499 888 q 320 793 438 850 q 141 888 224 840 l 122 864 q 231 739 138 846 q 321 680 288 684 z "},"ê":{"ha":636,"x_min":49,"x_max":594,"o":"m 340 562 q 450 473 427 562 q 457 420 457 448 q 401 339 457 354 q 313 334 370 331 l 193 336 q 293 552 198 510 q 340 562 315 562 m 583 134 l 551 145 q 412 30 506 52 q 369 24 391 24 q 193 296 199 24 q 193 298 193 297 l 340 296 q 572 340 526 292 q 594 406 594 366 q 492 560 594 507 q 339 595 425 595 q 99 472 178 595 q 49 289 49 393 q 180 30 49 109 q 343 -14 252 -14 q 564 96 496 -14 q 583 134 575 115 m 487 677 l 503 701 q 401 822 483 723 q 319 876 350 872 q 243 829 282 876 q 216 795 235 819 q 137 700 170 736 l 153 678 q 321 766 232 726 q 487 677 393 734 z "},"ë":{"ha":636,"x_min":49,"x_max":594,"o":"m 340 562 q 450 473 427 562 q 457 420 457 448 q 401 339 457 354 q 313 334 370 331 l 193 336 q 293 552 198 510 q 340 562 315 562 m 583 134 l 551 145 q 412 30 506 52 q 369 24 391 24 q 193 296 199 24 q 193 298 193 297 l 340 296 q 572 340 526 292 q 594 406 594 366 q 492 560 594 507 q 339 595 425 595 q 99 472 178 595 q 49 289 49 393 q 180 30 49 109 q 343 -14 252 -14 q 564 96 496 -14 q 583 134 575 115 m 273 772 q 231 842 273 819 q 197 850 214 850 q 125 806 146 850 q 118 772 118 788 q 164 703 118 722 q 197 696 180 696 q 264 738 244 696 q 273 772 273 754 m 524 772 q 480 842 524 821 q 445 850 463 850 q 376 807 397 850 q 368 772 368 789 q 412 703 368 723 q 445 696 429 696 q 515 739 495 696 q 524 772 524 755 z "},"ė":{"ha":636,"x_min":49,"x_max":594,"o":"m 340 562 q 450 473 427 562 q 457 420 457 448 q 401 339 457 354 q 313 334 370 331 l 193 336 q 293 552 198 510 q 340 562 315 562 m 583 134 l 551 145 q 412 30 506 52 q 369 24 391 24 q 193 296 199 24 q 193 298 193 297 l 340 296 q 572 340 526 292 q 594 406 594 366 q 492 560 594 507 q 339 595 425 595 q 99 472 178 595 q 49 289 49 393 q 180 30 49 109 q 343 -14 252 -14 q 564 96 496 -14 q 583 134 575 115 m 404 769 q 359 845 404 821 q 320 854 339 854 q 243 806 266 854 q 235 769 235 788 q 283 693 235 715 q 320 685 301 685 q 395 731 372 685 q 404 769 404 750 z "},"è":{"ha":636,"x_min":49,"x_max":594,"o":"m 340 562 q 450 473 427 562 q 457 420 457 448 q 401 339 457 354 q 313 334 370 331 l 193 336 q 293 552 198 510 q 340 562 315 562 m 583 134 l 551 145 q 412 30 506 52 q 369 24 391 24 q 193 296 199 24 q 193 298 193 297 l 340 296 q 572 340 526 292 q 594 406 594 366 q 492 560 594 507 q 339 595 425 595 q 99 472 178 595 q 49 289 49 393 q 180 30 49 109 q 343 -14 252 -14 q 564 96 496 -14 q 583 134 575 115 m 448 680 q 332 822 401 724 q 292 872 307 859 q 251 888 273 888 q 190 849 210 888 q 183 819 183 834 q 205 773 184 792 q 323 711 221 760 q 427 654 387 680 l 448 680 z "},"…":{"ha":811,"x_min":65,"x_max":755,"o":"m 491 73 q 448 145 491 122 q 411 155 430 155 q 339 109 361 155 q 331 73 331 91 q 377 0 331 22 q 411 -7 393 -7 q 483 38 460 -7 q 491 73 491 56 m 755 73 q 712 145 755 122 q 675 155 694 155 q 604 109 625 155 q 595 73 595 91 q 642 0 595 22 q 675 -7 658 -7 q 747 38 724 -7 q 755 73 755 56 m 225 73 q 182 145 225 122 q 145 155 164 155 q 73 109 95 155 q 65 73 65 91 q 111 0 65 22 q 145 -7 127 -7 q 217 38 194 -7 q 225 73 225 56 z "},"ē":{"ha":636,"x_min":49,"x_max":594,"o":"m 340 562 q 450 473 427 562 q 457 420 457 448 q 401 339 457 354 q 313 334 370 331 l 193 336 q 293 552 198 510 q 340 562 315 562 m 583 134 l 551 145 q 412 30 506 52 q 369 24 391 24 q 193 296 199 24 q 193 298 193 297 l 340 296 q 572 340 526 292 q 594 406 594 366 q 492 560 594 507 q 339 595 425 595 q 99 472 178 595 q 49 289 49 393 q 180 30 49 109 q 343 -14 252 -14 q 564 96 496 -14 q 583 134 575 115 m 114 732 l 532 732 l 532 803 l 114 803 l 114 732 z "},"—":{"ha":1154,"x_min":109,"x_max":1047,"o":"m 109 269 l 1047 269 l 1047 326 l 109 326 l 109 269 z "},"–":{"ha":883,"x_min":109,"x_max":776,"o":"m 109 269 l 776 269 l 776 326 l 109 326 l 109 269 z "},"ę":{"ha":636,"x_min":49,"x_max":594,"o":"m 340 562 q 450 473 427 562 q 457 420 457 448 q 401 339 457 354 q 313 334 370 331 l 193 336 q 293 552 198 510 q 340 562 315 562 m 583 134 l 551 145 q 412 30 506 52 q 369 24 391 24 q 193 296 199 24 q 193 298 193 297 l 340 296 q 572 340 526 292 q 594 406 594 366 q 492 560 594 507 q 339 595 425 595 q 99 472 178 595 q 49 289 49 393 q 180 30 49 109 q 343 -14 252 -14 q 564 96 496 -14 q 583 134 575 115 m 441 -220 q 388 -152 391 -214 q 457 -34 388 -87 q 517 0 484 -14 l 515 12 q 281 -109 330 -16 q 267 -159 267 -133 q 339 -248 267 -222 q 404 -259 369 -259 q 530 -210 483 -258 l 514 -189 q 441 -220 476 -220 z "},"=":{"ha":624,"x_min":53,"x_max":572,"o":"m 572 366 l 572 418 l 53 418 l 53 366 l 572 366 m 572 217 l 572 269 l 53 269 l 53 217 l 572 217 z "},"℮":{"ha":1013,"x_min":62,"x_max":964,"o":"m 252 123 l 252 456 l 964 456 q 799 799 964 681 q 526 882 681 882 q 156 715 286 882 q 62 431 62 593 q 203 98 62 222 q 514 -14 330 -14 q 852 96 705 -14 q 901 138 879 117 l 868 168 q 600 34 762 61 q 518 27 557 27 q 252 123 361 28 m 773 761 l 773 499 l 252 499 l 252 743 q 528 841 361 841 q 773 761 673 840 z "},"ð":{"ha":749,"x_min":49,"x_max":652,"o":"m 652 332 q 540 678 652 525 q 438 783 495 739 l 557 850 l 537 886 l 400 808 q 157 882 290 875 l 153 845 q 343 777 267 834 l 176 684 l 198 646 l 376 747 q 483 515 450 667 q 349 548 420 548 q 125 460 213 548 q 49 271 49 382 q 164 42 49 123 q 347 -14 244 -14 q 609 138 530 -14 q 652 332 652 222 m 193 266 q 351 514 194 513 q 510 273 509 511 q 396 27 510 62 q 351 20 374 20 q 194 216 208 20 q 193 266 193 240 z "},"!":{"ha":354,"x_min":94,"x_max":260,"o":"m 198 240 q 240 601 198 407 q 260 736 260 693 q 178 827 258 826 q 94 735 95 825 q 121 566 94 694 q 155 240 155 404 l 198 240 m 256 73 q 213 145 256 122 q 176 155 195 155 q 104 109 126 155 q 96 73 96 91 q 142 0 96 22 q 176 -7 159 -7 q 248 38 225 -7 q 256 73 256 56 z "},"¡":{"ha":363,"x_min":68,"x_max":235,"o":"m 130 349 q 88 -12 130 182 q 68 -148 68 -104 q 151 -239 71 -237 q 235 -146 233 -236 q 208 23 235 -106 q 174 349 174 184 l 130 349 m 72 515 q 115 444 72 467 q 152 434 133 434 q 224 480 202 434 q 232 515 232 498 q 186 589 232 567 q 152 595 170 595 q 80 551 103 595 q 72 515 72 533 z "},"f":{"ha":435,"x_min":39,"x_max":562,"o":"m 368 34 l 271 34 l 271 544 l 426 544 l 426 579 l 271 579 l 271 587 q 324 844 271 807 q 362 854 340 854 q 426 804 400 854 q 460 743 452 751 q 498 727 477 727 q 559 766 547 727 q 562 784 562 776 q 492 869 562 838 q 389 888 448 888 q 183 779 248 888 q 141 600 141 707 l 141 579 l 39 579 l 39 544 l 141 544 l 141 111 q 94 38 141 50 q 39 34 73 34 l 39 0 l 400 0 q 382 33 400 28 q 368 34 376 34 z "},"ﬁ":{"ha":799,"x_min":38,"x_max":770,"o":"m 339 35 l 271 35 l 271 544 l 543 544 l 543 106 q 492 38 543 47 q 454 35 476 35 l 454 0 l 770 0 q 753 34 770 31 q 738 35 746 35 l 674 35 l 674 579 l 271 579 l 271 587 q 347 840 271 795 q 419 856 376 856 q 509 799 479 856 q 519 776 513 792 q 570 708 544 722 q 612 699 589 699 q 678 741 663 699 q 682 761 682 751 q 606 856 682 818 q 448 888 541 888 q 174 751 245 888 q 141 600 141 688 l 141 579 l 39 579 l 39 544 l 141 544 l 141 106 q 38 35 138 35 l 38 0 l 372 0 q 354 34 372 31 q 339 35 347 35 z "},"ﬂ":{"ha":812,"x_min":38,"x_max":784,"o":"m 784 0 q 766 34 784 31 q 751 35 760 35 l 680 35 l 680 882 l 502 882 q 392 888 435 888 q 180 773 245 888 q 141 600 141 701 l 141 579 l 39 579 l 39 544 l 141 544 l 141 106 q 38 35 138 35 l 38 0 l 366 0 q 349 34 366 31 q 334 35 342 35 l 271 35 l 271 544 l 415 544 l 415 579 l 271 579 l 271 587 q 326 826 271 779 q 412 853 357 853 q 548 827 484 853 l 548 109 q 507 41 548 52 q 453 35 487 35 l 453 0 l 784 0 z "},"ƒ":{"ha":647,"x_min":-73,"x_max":654,"o":"m 368 381 q 369 403 368 388 q 370 425 370 418 l 538 425 l 538 460 l 372 460 q 412 751 382 692 q 468 792 434 791 q 517 746 506 792 q 521 722 518 738 q 553 650 530 663 q 586 643 568 643 q 651 690 637 643 q 654 711 654 701 q 593 807 654 773 q 502 827 553 827 q 277 651 345 827 q 231 460 247 574 l 92 460 l 92 425 l 227 425 q 220 343 221 373 q 213 217 217 301 q 171 -152 198 -69 q 102 -232 145 -231 q 61 -186 66 -232 q 60 -163 60 -179 q 33 -87 56 -102 q -5 -77 18 -77 q -71 -126 -58 -77 q -73 -148 -73 -137 q -12 -241 -73 -208 q 79 -264 28 -264 q 312 -30 243 -264 q 368 381 355 121 z "},"⁄":{"ha":199,"x_min":-203,"x_max":430,"o":"m -159 -42 l 430 827 l 387 856 l -203 -14 l -159 -42 z "},"g":{"ha":666,"x_min":64,"x_max":667,"o":"m 198 376 q 269 553 198 525 q 317 562 290 562 q 429 461 411 562 q 435 377 435 426 q 369 197 435 228 q 316 187 346 187 q 203 293 222 187 q 198 376 198 327 m 320 595 q 110 507 183 595 q 64 376 64 452 q 161 205 64 275 q 186 189 174 195 q 80 117 106 189 q 72 72 72 95 q 126 -35 73 3 q 85 -125 85 -79 q 176 -236 85 -199 q 323 -260 237 -260 q 601 -159 536 -260 q 623 -88 623 -126 q 481 56 623 38 q 445 58 463 58 l 184 64 q 129 111 130 68 q 168 152 129 144 q 186 153 178 153 l 312 152 l 316 152 q 522 241 448 152 q 570 378 570 301 q 492 541 568 481 q 549 589 511 587 q 591 567 567 589 q 623 552 608 552 q 666 589 659 552 q 667 598 667 594 q 624 661 667 643 q 587 667 606 667 q 483 604 522 667 q 464 560 471 583 q 320 595 400 595 m 323 -225 q 140 -152 175 -225 q 132 -118 132 -136 q 159 -52 133 -84 q 209 -60 182 -60 l 445 -62 q 553 -102 540 -62 q 557 -125 557 -113 q 442 -213 557 -186 q 323 -225 388 -225 z "},"ğ":{"ha":666,"x_min":64,"x_max":667,"o":"m 198 376 q 269 553 198 525 q 317 562 290 562 q 429 461 411 562 q 435 377 435 426 q 369 197 435 228 q 316 187 346 187 q 203 293 222 187 q 198 376 198 327 m 320 595 q 110 507 183 595 q 64 376 64 452 q 161 205 64 275 q 186 189 174 195 q 80 117 106 189 q 72 72 72 95 q 126 -35 73 3 q 85 -125 85 -79 q 176 -236 85 -199 q 323 -260 237 -260 q 601 -159 536 -260 q 623 -88 623 -126 q 481 56 623 38 q 445 58 463 58 l 184 64 q 129 111 130 68 q 168 152 129 144 q 186 153 178 153 l 312 152 l 316 152 q 522 241 448 152 q 570 378 570 301 q 492 541 568 481 q 549 589 511 587 q 591 567 567 589 q 623 552 608 552 q 666 589 659 552 q 667 598 667 594 q 624 661 667 643 q 587 667 606 667 q 483 604 522 667 q 464 560 471 583 q 320 595 400 595 m 323 -225 q 140 -152 175 -225 q 132 -118 132 -136 q 159 -52 133 -84 q 209 -60 182 -60 l 445 -62 q 553 -102 540 -62 q 557 -125 557 -113 q 442 -213 557 -186 q 323 -225 388 -225 m 338 785 q 190 868 208 787 l 163 868 q 247 707 163 750 q 334 688 285 688 q 495 806 465 688 q 503 868 503 836 l 475 868 q 338 785 449 788 z "},"ß":{"ha":773,"x_min":39,"x_max":749,"o":"m 749 161 q 647 339 749 263 q 597 374 631 351 q 503 454 521 423 q 494 492 494 473 q 551 571 494 538 q 618 612 618 610 q 670 711 669 651 q 567 850 670 803 q 420 880 502 880 q 176 754 244 880 q 142 600 142 689 l 142 579 l 39 579 l 39 544 l 142 544 l 142 106 q 39 35 140 35 l 39 0 l 273 0 l 273 587 q 365 842 273 808 q 412 850 387 850 q 526 765 499 850 q 536 701 536 735 q 476 589 536 631 q 452 574 468 583 q 384 509 399 540 q 373 456 373 486 q 461 312 373 378 q 506 279 476 301 q 612 186 589 222 q 629 123 629 156 q 566 24 629 42 q 537 20 551 20 q 467 75 488 20 q 460 95 464 81 q 422 155 444 145 q 400 159 411 159 q 339 115 349 159 q 338 102 338 109 q 431 4 338 35 q 538 -12 480 -12 q 709 56 648 -12 q 749 161 749 100 z "},"`":{"ha":678,"x_min":221,"x_max":486,"o":"m 486 680 q 370 822 439 724 q 330 872 345 859 q 289 888 311 888 q 228 849 248 888 q 221 819 221 834 q 243 773 222 792 q 361 711 259 760 q 465 654 425 680 l 486 680 z "},">":{"ha":616,"x_min":53,"x_max":563,"o":"m 75 540 l 53 490 l 473 317 l 53 144 l 71 98 l 563 298 l 563 339 l 75 540 z "},"≥":{"ha":623,"x_min":53,"x_max":566,"o":"m 564 338 l 564 378 l 72 548 l 54 500 l 475 355 l 53 210 l 71 165 l 564 338 m 566 61 l 566 110 l 61 110 l 61 61 l 566 61 z "},"«":{"ha":566,"x_min":28,"x_max":537,"o":"m 296 513 l 270 536 q 94 368 241 505 q 47 321 61 336 q 28 278 28 300 q 47 232 30 252 q 193 95 54 224 q 270 20 240 50 l 294 43 q 184 237 278 68 q 161 278 171 262 q 201 349 174 298 q 296 513 264 464 m 537 513 l 511 536 q 335 368 483 505 q 289 321 302 336 q 270 278 270 300 q 289 232 271 255 q 434 95 296 224 q 511 20 481 50 l 537 43 q 423 241 522 66 q 403 278 411 263 q 442 349 415 298 q 537 513 506 464 z "},"»":{"ha":566,"x_min":28,"x_max":537,"o":"m 270 513 l 296 536 q 472 368 324 505 q 518 321 505 336 q 537 278 537 300 q 518 232 536 252 q 373 95 511 224 q 296 20 326 50 l 271 43 q 381 237 288 68 q 404 278 395 262 q 365 349 392 298 q 270 513 301 464 m 28 513 l 54 536 q 231 368 83 505 q 277 321 263 336 q 296 278 296 300 q 277 232 294 255 q 132 95 270 224 q 54 20 84 50 l 28 43 q 142 241 43 66 q 163 278 155 263 q 123 349 151 298 q 28 513 60 464 z "},"‹":{"ha":343,"x_min":28,"x_max":315,"o":"m 313 513 l 285 536 q 107 374 247 492 q 47 321 61 336 q 28 278 28 300 q 47 232 30 252 q 174 125 57 221 q 289 20 251 61 l 315 43 q 262 125 298 68 q 161 278 189 237 q 262 433 191 321 q 313 513 297 488 z "},"›":{"ha":343,"x_min":28,"x_max":315,"o":"m 30 513 l 58 536 q 236 374 96 492 q 296 321 282 336 q 315 278 315 300 q 296 232 313 252 q 170 125 286 221 q 54 20 92 61 l 28 43 q 81 125 45 68 q 182 278 155 237 q 81 433 152 321 q 30 513 46 488 z "},"h":{"ha":769,"x_min":37,"x_max":741,"o":"m 315 34 l 260 34 l 260 340 q 342 513 260 464 q 403 530 372 530 q 509 449 483 530 q 517 385 517 419 l 517 111 q 492 41 517 53 q 439 34 476 34 l 439 0 l 741 0 q 723 33 741 30 q 707 34 716 34 l 648 34 l 648 376 q 543 579 648 532 q 467 595 507 595 q 294 518 361 595 q 260 461 273 491 l 260 882 l 37 882 l 37 848 l 130 848 l 130 111 q 90 39 130 50 q 37 34 71 34 l 37 0 l 347 0 q 330 33 347 28 q 315 34 323 34 z "},"˝":{"ha":758,"x_min":205,"x_max":703,"o":"m 438 800 q 458 845 458 817 q 420 903 457 883 q 391 910 404 910 q 351 894 370 909 q 288 806 339 882 q 205 703 245 745 l 225 678 q 376 762 259 701 q 438 800 422 785 m 667 761 q 696 802 690 776 q 666 867 703 842 q 642 878 654 875 q 600 868 618 880 q 522 798 583 859 q 419 709 468 743 l 435 681 q 604 736 469 696 q 667 761 648 750 z "},"i":{"ha":393,"x_min":38,"x_max":359,"o":"m 326 34 l 264 34 l 264 579 l 38 579 l 38 545 l 134 545 l 134 111 q 91 38 134 50 q 38 34 72 34 l 38 0 l 359 0 q 342 33 359 30 q 326 34 335 34 m 279 769 q 233 845 279 821 q 194 854 214 854 q 119 808 142 854 q 110 769 110 789 q 157 693 110 715 q 194 685 175 685 q 271 731 248 685 q 279 769 279 749 z "},"í":{"ha":387,"x_min":35,"x_max":358,"o":"m 326 35 l 266 35 l 266 579 l 35 579 l 35 544 l 129 544 l 129 106 q 49 35 129 39 q 35 35 42 35 l 35 0 l 358 0 q 340 34 358 31 q 326 35 334 35 m 321 773 q 345 819 343 795 q 307 880 345 860 q 277 888 292 888 q 236 872 254 887 q 168 785 222 860 q 79 680 122 723 l 100 654 q 260 738 136 677 q 321 773 305 760 z "},"î":{"ha":387,"x_min":11,"x_max":377,"o":"m 326 35 l 266 35 l 266 579 l 35 579 l 35 544 l 129 544 l 129 106 q 49 35 129 39 q 35 35 42 35 l 35 0 l 358 0 q 340 34 358 31 q 326 35 334 35 m 361 677 l 377 701 q 275 822 357 723 q 193 876 224 872 q 117 829 156 876 q 90 795 109 819 q 11 700 43 736 l 27 678 q 195 766 106 726 q 361 677 267 734 z "},"ï":{"ha":387,"x_min":5,"x_max":382,"o":"m 157 772 q 115 841 157 821 q 83 849 99 849 q 12 803 33 849 q 5 772 5 788 q 52 704 5 723 q 83 697 66 697 q 151 741 130 697 q 157 772 157 755 m 382 772 q 338 841 382 821 q 305 849 321 849 q 237 806 258 849 q 231 772 231 789 q 274 704 231 724 q 305 697 289 697 q 374 739 354 697 q 382 772 382 755 m 326 35 l 266 35 l 266 579 l 35 579 l 35 544 l 129 544 l 129 106 q 49 35 129 39 q 35 35 42 35 l 35 0 l 358 0 q 340 34 358 31 q 326 35 334 35 z "},"ì":{"ha":387,"x_min":35,"x_max":358,"o":"m 326 35 l 266 35 l 266 579 l 35 579 l 35 544 l 129 544 l 129 106 q 49 35 129 39 q 35 35 42 35 l 35 0 l 358 0 q 340 34 358 31 q 326 35 334 35 m 323 680 q 208 822 277 724 q 167 872 182 859 q 126 888 148 888 q 65 849 85 888 q 58 819 58 834 q 80 773 60 792 q 198 711 96 760 q 302 654 262 680 l 323 680 z "},"ī":{"ha":387,"x_min":28,"x_max":365,"o":"m 28 732 l 365 732 l 365 803 l 28 803 l 28 732 m 326 35 l 266 35 l 266 579 l 35 579 l 35 544 l 129 544 l 129 106 q 49 35 129 39 q 35 35 42 35 l 35 0 l 358 0 q 340 34 358 31 q 326 35 334 35 z "},"∞":{"ha":925,"x_min":46,"x_max":879,"o":"m 697 232 q 856 326 808 232 q 879 419 879 369 q 806 571 879 518 q 692 604 757 604 q 492 495 594 604 q 456 456 476 479 q 228 604 342 604 q 69 510 117 604 q 46 416 46 467 q 119 264 46 317 q 233 232 168 232 q 442 349 335 232 q 468 378 454 362 q 697 232 582 233 m 228 285 q 106 363 136 285 q 95 420 95 391 q 156 537 95 500 q 228 556 189 556 q 429 425 328 555 q 294 301 346 327 q 228 285 260 285 m 697 279 q 495 410 593 281 q 632 534 579 509 q 697 551 665 551 q 819 469 789 551 q 829 415 829 444 q 766 297 829 332 q 697 279 735 279 z "},"∫":{"ha":505,"x_min":-38,"x_max":543,"o":"m 339 145 q 316 541 339 240 q 305 777 305 685 q 361 917 309 913 q 397 872 389 917 q 415 799 408 811 q 473 768 433 769 q 540 814 525 768 q 543 836 543 825 q 475 937 543 906 q 396 952 441 952 q 210 789 260 952 q 176 484 176 677 q 198 61 176 396 q 206 -153 206 -72 q 149 -355 206 -343 q 140 -357 144 -357 q 103 -311 107 -357 q 94 -244 96 -250 q 30 -202 79 -203 q -35 -251 -23 -202 q -38 -273 -38 -262 q 26 -372 -38 -339 q 106 -389 61 -389 q 301 -208 248 -389 q 339 145 339 -79 z "},"į":{"ha":387,"x_min":35,"x_max":372,"o":"m 326 35 l 266 35 l 266 579 l 35 579 l 35 544 l 129 544 l 129 106 q 49 35 129 39 q 35 35 42 35 l 35 0 l 296 0 q 114 -125 145 -38 q 109 -159 109 -142 q 180 -248 109 -222 q 245 -259 210 -259 q 372 -210 324 -258 l 355 -189 q 282 -220 317 -220 q 229 -152 232 -214 q 298 -34 229 -87 q 358 0 326 -14 q 340 34 358 31 q 326 35 334 35 m 278 769 q 233 845 278 821 q 194 854 213 854 q 117 806 140 854 q 109 769 109 788 q 157 693 109 715 q 194 685 175 685 q 269 731 245 685 q 278 769 278 750 z "},"j":{"ha":373,"x_min":-54,"x_max":288,"o":"m 288 769 q 243 845 288 821 q 203 854 222 854 q 127 808 152 854 q 118 769 118 789 q 165 693 118 716 q 203 685 184 685 q 278 731 255 685 q 288 769 288 750 m 47 579 l 47 545 l 146 545 l 146 41 q 148 -58 146 7 q 149 -121 149 -104 q 102 -225 148 -224 q 65 -189 75 -225 q 45 -130 53 -140 q 3 -113 30 -113 q -53 -152 -42 -113 q -54 -167 -54 -160 q 5 -245 -54 -218 q 80 -260 39 -260 q 250 -148 199 -260 q 277 9 277 -83 l 277 579 l 47 579 z "},"k":{"ha":693,"x_min":33,"x_max":707,"o":"m 331 34 l 266 34 l 266 239 l 328 297 l 509 0 l 707 0 q 689 33 707 30 q 673 34 682 34 l 636 34 l 418 382 l 534 492 q 605 543 582 537 q 629 545 617 545 q 663 566 661 545 q 665 579 665 572 l 434 579 l 434 545 l 534 545 l 266 293 l 266 882 l 33 882 l 33 848 l 136 848 l 136 111 q 88 39 136 50 q 33 34 68 34 l 33 0 l 365 0 q 347 33 365 30 q 331 34 340 34 z "},"l":{"ha":404,"x_min":35,"x_max":373,"o":"m 340 34 l 269 34 l 269 882 l 35 882 l 35 848 l 138 848 l 138 113 q 100 41 138 53 q 35 34 79 34 l 35 0 l 373 0 q 355 33 373 28 q 340 34 349 34 z "},"ĺ":{"ha":407,"x_min":35,"x_max":373,"o":"m 307 997 q 338 1038 332 1012 q 308 1107 345 1080 q 282 1119 296 1116 q 240 1109 258 1120 q 157 1038 222 1100 q 49 949 100 983 l 66 921 q 239 972 103 936 q 307 997 288 986 m 340 34 l 269 34 l 269 882 l 35 882 l 35 848 l 138 848 l 138 113 q 100 41 138 53 q 35 34 79 34 l 35 0 l 373 0 q 355 33 373 28 q 340 34 349 34 z "},"ľ":{"ha":454,"x_min":35,"x_max":483,"o":"m 340 34 l 269 34 l 269 882 l 35 882 l 35 848 l 138 848 l 138 113 q 100 41 138 53 q 35 34 79 34 l 35 0 l 373 0 q 355 33 373 28 q 340 34 349 34 m 483 792 q 423 891 483 872 q 392 897 408 897 q 321 852 345 897 q 312 812 312 833 q 362 739 312 761 q 380 734 372 735 q 415 705 414 724 q 354 601 414 666 l 384 579 q 483 776 473 673 q 483 792 483 785 z "},"<":{"ha":616,"x_min":53,"x_max":563,"o":"m 541 98 l 563 148 l 142 320 l 563 494 l 544 540 l 53 339 l 53 298 l 541 98 z "},"≤":{"ha":620,"x_min":53,"x_max":564,"o":"m 563 213 l 142 358 l 564 503 l 547 548 l 53 376 l 53 335 l 545 165 l 563 213 m 559 61 l 559 110 l 53 110 l 53 61 l 559 61 z "},"¬":{"ha":661,"x_min":53,"x_max":608,"o":"m 541 155 l 608 155 l 608 454 l 53 454 l 53 403 l 541 403 l 541 155 z "},"◊":{"ha":760,"x_min":43,"x_max":716,"o":"m 358 812 l 43 342 l 357 -129 l 403 -129 l 716 342 l 404 812 l 358 812 m 650 342 l 380 -65 l 109 342 l 381 749 l 650 342 z "},"ł":{"ha":407,"x_min":-4,"x_max":422,"o":"m 18 309 l 138 377 l 138 113 q 100 41 138 53 q 35 34 79 34 l 35 0 l 373 0 q 355 33 373 28 q 340 34 349 34 l 269 34 l 269 450 l 422 537 l 400 574 l 269 500 l 269 882 l 35 882 l 35 848 l 138 848 l 138 427 l -4 349 l 18 309 z "},"m":{"ha":1103,"x_min":35,"x_max":1074,"o":"m 304 34 l 258 34 l 259 361 q 340 517 269 471 q 393 533 368 533 q 479 465 453 533 q 490 393 490 434 l 490 111 q 461 41 490 53 q 408 34 444 34 l 408 0 l 699 0 q 681 33 699 30 q 665 34 674 34 l 618 34 l 618 376 l 618 385 q 705 524 636 487 q 749 534 727 534 q 838 465 812 534 q 850 393 850 433 l 850 111 q 823 41 850 53 q 770 34 807 34 l 770 0 l 1074 0 q 1057 33 1074 30 q 1040 34 1050 34 l 981 34 l 981 378 q 890 572 981 517 q 803 595 849 595 q 628 494 690 595 q 609 457 617 476 q 498 587 581 560 q 450 595 473 595 q 278 499 340 595 q 256 458 266 479 l 250 579 l 35 579 l 35 545 l 127 545 l 127 111 q 88 39 127 50 q 35 34 69 34 l 35 0 l 338 0 q 317 33 338 30 q 304 34 312 34 z "},"¯":{"ha":678,"x_min":130,"x_max":548,"o":"m 130 732 l 548 732 l 548 803 l 130 803 l 130 732 z "},"−":{"ha":624,"x_min":53,"x_max":572,"o":"m 572 292 l 572 343 l 53 343 l 53 292 l 572 292 z "},"×":{"ha":545,"x_min":58,"x_max":484,"o":"m 444 104 l 484 144 l 311 319 l 484 492 l 446 530 l 273 357 l 98 530 l 58 491 l 232 316 l 60 144 l 98 106 l 270 278 l 444 104 z "},"n":{"ha":768,"x_min":35,"x_max":739,"o":"m 308 34 l 258 34 l 259 361 q 346 515 269 471 q 404 532 374 532 q 509 450 486 532 q 515 393 515 423 l 515 111 q 483 39 515 52 q 430 34 464 34 l 430 0 l 739 0 q 722 33 739 30 q 705 34 715 34 l 647 34 l 647 376 q 547 574 647 521 q 460 595 507 595 q 292 515 359 595 q 256 457 270 488 l 250 579 l 35 579 l 35 545 l 127 545 l 127 111 q 88 39 127 50 q 35 34 69 34 l 35 0 l 342 0 q 324 33 342 30 q 308 34 317 34 z "},"ń":{"ha":768,"x_min":35,"x_max":739,"o":"m 308 34 l 258 34 l 259 361 q 346 515 269 471 q 404 532 374 532 q 509 450 486 532 q 515 393 515 423 l 515 111 q 483 39 515 52 q 430 34 464 34 l 430 0 l 739 0 q 722 33 739 30 q 705 34 715 34 l 647 34 l 647 376 q 547 574 647 521 q 460 595 507 595 q 292 515 359 595 q 256 457 270 488 l 250 579 l 35 579 l 35 545 l 127 545 l 127 111 q 88 39 127 50 q 35 34 69 34 l 35 0 l 342 0 q 324 33 342 30 q 308 34 317 34 m 510 773 q 533 819 532 795 q 495 880 533 860 q 465 888 480 888 q 425 872 442 887 q 357 785 411 860 q 267 680 311 723 l 289 654 q 449 738 324 677 q 510 773 494 760 z "},"ň":{"ha":768,"x_min":35,"x_max":739,"o":"m 308 34 l 258 34 l 259 361 q 346 515 269 471 q 404 532 374 532 q 509 450 486 532 q 515 393 515 423 l 515 111 q 483 39 515 52 q 430 34 464 34 l 430 0 l 739 0 q 722 33 739 30 q 705 34 715 34 l 647 34 l 647 376 q 547 574 647 521 q 460 595 507 595 q 292 515 359 595 q 256 457 270 488 l 250 579 l 35 579 l 35 545 l 127 545 l 127 111 q 88 39 127 50 q 35 34 69 34 l 35 0 l 342 0 q 324 33 342 30 q 308 34 317 34 m 385 680 q 468 730 423 680 q 499 769 477 742 q 582 865 548 829 l 563 888 q 384 793 502 850 q 205 888 288 840 l 186 864 q 294 739 202 846 q 385 680 351 684 z "},"≠":{"ha":624,"x_min":53,"x_max":572,"o":"m 572 217 l 572 269 l 316 269 l 355 366 l 572 366 l 572 418 l 376 418 l 441 583 l 392 583 l 327 418 l 53 418 l 53 366 l 307 366 l 267 269 l 53 269 l 53 217 l 247 217 l 186 61 l 235 61 l 296 217 l 572 217 z "},"ñ":{"ha":768,"x_min":35,"x_max":739,"o":"m 308 34 l 258 34 l 259 361 q 346 515 269 471 q 404 532 374 532 q 509 450 486 532 q 515 393 515 423 l 515 111 q 483 39 515 52 q 430 34 464 34 l 430 0 l 739 0 q 722 33 739 30 q 705 34 715 34 l 647 34 l 647 376 q 547 574 647 521 q 460 595 507 595 q 292 515 359 595 q 256 457 270 488 l 250 579 l 35 579 l 35 545 l 127 545 l 127 111 q 88 39 127 50 q 35 34 69 34 l 35 0 l 342 0 q 324 33 342 30 q 308 34 317 34 m 311 869 q 414 825 351 869 q 494 788 465 788 q 566 859 545 788 q 567 864 567 863 l 595 859 q 487 701 574 716 q 471 700 479 700 q 369 745 430 700 q 289 781 317 781 q 220 723 240 781 q 214 705 217 713 l 187 711 q 311 869 221 860 z "},"#":{"ha":785,"x_min":81,"x_max":704,"o":"m 431 -14 l 477 -14 l 514 263 l 686 263 l 686 331 l 522 331 l 544 496 l 704 496 l 704 564 l 553 564 l 586 814 l 540 814 l 507 564 l 323 564 l 355 814 l 309 814 l 277 564 l 99 564 l 99 496 l 267 496 l 245 331 l 81 331 l 81 263 l 237 263 l 201 -14 l 247 -14 l 283 263 l 468 263 l 431 -14 m 476 331 l 292 331 l 313 496 l 498 496 l 476 331 z "},"o":{"ha":700,"x_min":49,"x_max":651,"o":"m 193 292 q 350 562 206 551 q 502 393 479 562 q 507 297 507 350 q 351 20 505 23 q 197 210 216 20 q 193 292 193 247 m 354 595 q 121 496 209 595 q 49 297 49 415 q 165 46 49 133 q 347 -14 244 -14 q 576 87 488 -14 q 651 294 651 172 q 532 543 651 458 q 354 595 454 595 z "},"ó":{"ha":700,"x_min":49,"x_max":651,"o":"m 193 292 q 350 562 206 551 q 502 393 479 562 q 507 297 507 350 q 351 20 505 23 q 197 210 216 20 q 193 292 193 247 m 354 595 q 121 496 209 595 q 49 297 49 415 q 165 46 49 133 q 347 -14 244 -14 q 576 87 488 -14 q 651 294 651 172 q 532 543 651 458 q 354 595 454 595 m 487 773 q 510 819 509 795 q 472 880 510 860 q 442 888 457 888 q 401 872 419 887 q 334 785 388 860 q 244 680 288 723 l 266 654 q 426 738 301 677 q 487 773 471 760 z "},"ô":{"ha":700,"x_min":49,"x_max":651,"o":"m 193 292 q 350 562 206 551 q 502 393 479 562 q 507 297 507 350 q 351 20 505 23 q 197 210 216 20 q 193 292 193 247 m 354 595 q 121 496 209 595 q 49 297 49 415 q 165 46 49 133 q 347 -14 244 -14 q 576 87 488 -14 q 651 294 651 172 q 532 543 651 458 q 354 595 454 595 m 528 677 l 544 701 q 442 822 524 723 q 359 876 391 872 q 283 829 323 876 q 256 795 275 819 q 178 700 210 736 l 194 678 q 362 766 273 726 q 528 677 434 734 z "},"ö":{"ha":700,"x_min":49,"x_max":651,"o":"m 193 292 q 350 562 206 551 q 502 393 479 562 q 507 297 507 350 q 351 20 505 23 q 197 210 216 20 q 193 292 193 247 m 354 595 q 121 496 209 595 q 49 297 49 415 q 165 46 49 133 q 347 -14 244 -14 q 576 87 488 -14 q 651 294 651 172 q 532 543 651 458 q 354 595 454 595 m 312 772 q 270 842 312 819 q 236 850 252 850 q 164 806 186 850 q 157 772 157 788 q 203 703 157 722 q 236 696 220 696 q 304 738 283 696 q 312 772 312 754 m 563 772 q 519 842 563 821 q 484 850 502 850 q 415 807 437 850 q 407 772 407 789 q 452 703 407 723 q 484 696 467 696 q 555 739 534 696 q 563 772 563 755 z "},"œ":{"ha":1088,"x_min":49,"x_max":1046,"o":"m 788 562 q 906 460 888 562 q 909 420 909 441 q 853 339 909 354 q 765 334 822 331 l 644 336 q 761 559 650 536 q 788 562 774 562 m 193 292 q 350 562 206 551 q 502 393 479 562 q 507 297 507 350 q 351 20 505 23 q 197 210 216 20 q 193 292 193 247 m 354 595 q 121 496 209 595 q 49 297 49 415 q 165 46 49 133 q 347 -14 244 -14 q 559 84 479 -14 q 571 99 566 92 q 795 -14 650 -12 q 1021 104 956 -14 q 1036 138 1029 122 l 1002 145 q 861 28 956 50 q 819 24 840 24 q 644 297 651 24 q 644 300 644 298 l 791 297 q 1023 340 977 293 q 1046 406 1046 366 q 944 560 1046 507 q 791 595 876 595 q 575 488 647 594 q 354 595 495 594 z "},"˛":{"ha":678,"x_min":179,"x_max":442,"o":"m 353 -220 q 300 -152 302 -214 q 369 -34 300 -87 q 429 0 396 -14 l 427 12 q 193 -109 241 -16 q 179 -159 179 -133 q 251 -248 179 -222 q 316 -259 281 -259 q 442 -210 395 -258 l 426 -189 q 353 -220 388 -220 z "},"ò":{"ha":700,"x_min":49,"x_max":651,"o":"m 193 292 q 350 562 206 551 q 502 393 479 562 q 507 297 507 350 q 351 20 505 23 q 197 210 216 20 q 193 292 193 247 m 354 595 q 121 496 209 595 q 49 297 49 415 q 165 46 49 133 q 347 -14 244 -14 q 576 87 488 -14 q 651 294 651 172 q 532 543 651 458 q 354 595 454 595 m 488 680 q 373 822 442 724 q 332 872 347 859 q 292 888 313 888 q 231 849 251 888 q 224 819 224 834 q 245 773 225 792 q 363 711 262 760 q 468 654 427 680 l 488 680 z "},"ő":{"ha":700,"x_min":49,"x_max":667,"o":"m 193 292 q 350 562 206 551 q 502 393 479 562 q 507 297 507 350 q 351 20 505 23 q 197 210 216 20 q 193 292 193 247 m 354 595 q 121 496 209 595 q 49 297 49 415 q 165 46 49 133 q 347 -14 244 -14 q 576 87 488 -14 q 651 294 651 172 q 532 543 651 458 q 354 595 454 595 m 403 800 q 423 845 423 817 q 385 903 422 883 q 355 910 369 910 q 316 894 335 909 q 252 806 304 882 q 170 703 210 745 l 190 678 q 340 762 224 701 q 403 800 387 785 m 632 761 q 661 802 655 776 q 631 867 667 842 q 606 878 618 875 q 564 868 583 880 q 487 798 548 859 q 384 709 433 743 l 400 681 q 568 736 434 696 q 632 761 613 750 z "},"ō":{"ha":700,"x_min":49,"x_max":651,"o":"m 193 292 q 350 562 206 551 q 502 393 479 562 q 507 297 507 350 q 351 20 505 23 q 197 210 216 20 q 193 292 193 247 m 354 595 q 121 496 209 595 q 49 297 49 415 q 165 46 49 133 q 347 -14 244 -14 q 576 87 488 -14 q 651 294 651 172 q 532 543 651 458 q 354 595 454 595 m 155 732 l 572 732 l 572 803 l 155 803 l 155 732 z "},"½":{"ha":1024,"x_min":54,"x_max":958,"o":"m 244 -42 l 833 827 l 789 856 l 199 -14 l 244 -42 m 243 831 l 54 701 l 75 670 l 201 757 l 201 430 l 88 420 l 88 392 l 419 392 q 397 419 419 415 q 387 420 392 420 l 317 430 l 317 831 l 243 831 m 663 87 q 757 152 673 115 q 899 229 865 201 q 948 326 947 273 q 845 441 948 412 q 770 450 810 450 q 623 399 673 450 q 597 338 597 372 q 652 285 600 286 q 704 307 690 285 q 714 353 718 328 q 721 400 711 378 q 764 422 731 422 q 825 365 817 422 q 827 330 827 350 q 749 194 827 250 q 711 168 736 184 q 616 85 636 121 q 597 14 597 53 l 597 0 l 956 0 l 958 153 l 939 153 l 924 117 q 878 87 913 90 q 852 87 867 87 l 663 87 z "},"¼":{"ha":1004,"x_min":54,"x_max":943,"o":"m 245 -42 l 834 827 l 791 856 l 201 -14 l 245 -42 m 243 831 l 54 701 l 75 670 l 201 757 l 201 430 l 88 420 l 88 392 l 419 392 q 397 419 419 415 q 387 420 392 420 l 317 430 l 317 831 l 243 831 m 943 -61 q 916 -31 932 -34 l 849 -31 l 849 65 l 943 65 l 943 98 l 849 98 l 849 271 l 827 271 l 817 243 q 762 197 800 201 q 745 195 754 195 l 734 195 l 734 98 l 538 99 q 719 235 709 228 q 853 411 852 346 q 795 464 844 458 q 732 420 755 464 q 716 384 727 410 q 586 183 663 264 q 492 99 544 140 l 499 68 l 734 66 l 734 -31 l 632 -31 l 632 -61 l 943 -61 z "},"¹":{"ha":412,"x_min":27,"x_max":392,"o":"m 216 880 l 27 750 l 47 719 l 174 806 l 174 479 l 61 469 l 61 441 l 392 441 q 370 468 392 464 q 359 469 365 469 l 290 479 l 290 880 l 216 880 z "},"ª":{"ha":419,"x_min":16,"x_max":397,"o":"m 382 330 l 382 378 l 30 378 l 30 330 l 382 330 m 397 533 l 372 533 q 345 481 365 483 q 326 519 326 484 l 326 684 q 176 814 323 812 q 42 762 69 814 q 35 736 35 750 q 80 696 42 700 q 130 732 119 696 q 146 776 141 770 q 176 787 157 787 q 233 697 232 784 l 233 655 q 22 576 47 655 q 16 543 16 560 q 85 449 16 468 q 122 445 103 445 q 235 515 202 446 q 320 445 259 452 q 396 517 387 445 q 397 533 397 525 m 157 490 q 115 552 118 498 q 184 623 115 610 q 233 627 206 627 l 233 568 q 171 491 214 503 q 157 490 163 490 z "},"º":{"ha":414,"x_min":16,"x_max":392,"o":"m 127 629 q 182 779 127 761 q 203 781 193 781 q 277 700 266 781 q 281 632 281 673 q 228 480 281 498 q 205 476 217 476 q 130 568 141 476 q 127 629 127 594 m 208 814 q 49 738 102 814 q 16 632 16 693 q 102 472 16 524 q 202 445 148 445 q 359 522 305 445 q 392 631 392 570 q 305 788 392 739 q 208 814 260 814 m 28 330 l 381 330 l 381 378 l 28 378 l 28 330 z "},"ø":{"ha":700,"x_min":11,"x_max":665,"o":"m 42 -15 l 133 75 q 347 -14 218 -14 q 576 87 488 -14 q 651 294 651 172 q 572 507 650 425 l 665 598 l 633 627 l 541 536 q 354 595 463 595 q 121 496 209 595 q 49 297 49 415 q 106 107 50 189 l 11 15 l 42 -15 m 193 292 q 350 562 206 551 q 480 476 444 560 l 198 198 q 193 292 193 237 m 351 20 q 208 148 240 23 l 495 431 q 507 297 507 374 q 351 20 505 23 z "},"õ":{"ha":700,"x_min":49,"x_max":651,"o":"m 193 292 q 350 562 206 551 q 502 393 479 562 q 507 297 507 350 q 351 20 505 23 q 197 210 216 20 q 193 292 193 247 m 354 595 q 121 496 209 595 q 49 297 49 415 q 165 46 49 133 q 347 -14 244 -14 q 576 87 488 -14 q 651 294 651 172 q 532 543 651 458 q 354 595 454 595 m 288 869 q 391 825 328 869 q 471 788 442 788 q 543 859 522 788 q 544 864 544 863 l 572 859 q 464 701 551 716 q 448 700 456 700 q 346 745 407 700 q 266 781 294 781 q 197 723 217 781 q 191 705 194 713 l 164 711 q 288 869 198 860 z "},"p":{"ha":751,"x_min":33,"x_max":704,"o":"m 254 -224 l 254 54 q 422 -14 317 -11 q 629 81 548 -14 q 704 305 704 170 q 612 547 704 467 q 473 595 555 595 q 286 505 353 595 q 252 438 264 475 l 245 579 l 33 579 l 33 545 l 123 545 l 123 -146 q 87 -218 123 -206 q 33 -224 68 -224 l 33 -258 l 373 -258 q 355 -225 373 -228 q 339 -224 349 -224 l 254 -224 m 418 537 q 556 358 537 537 q 560 289 560 326 q 456 33 560 77 q 404 22 431 22 q 275 121 315 22 q 252 263 252 180 q 335 506 252 434 q 418 537 373 537 z "},"¶":{"ha":720,"x_min":56,"x_max":703,"o":"m 308 -156 q 532 -72 448 -156 q 602 117 602 3 l 601 779 l 703 779 l 703 814 l 391 814 q 96 684 180 814 q 56 538 56 618 q 160 330 56 401 q 342 278 235 278 l 369 278 l 369 72 q 346 -110 369 -85 q 317 -119 334 -119 q 270 -73 282 -119 q 264 -50 267 -65 q 224 30 251 12 q 178 41 205 41 q 106 -7 123 41 q 102 -34 102 -20 q 193 -137 102 -102 q 308 -156 245 -156 m 477 92 q 433 -94 477 -53 q 380 -117 412 -111 q 408 80 408 -81 l 408 779 l 477 779 l 477 92 z "},"(":{"ha":456,"x_min":68,"x_max":435,"o":"m 423 882 q 134 633 232 830 q 68 334 68 496 q 189 -49 68 106 q 419 -203 281 -165 l 433 -168 q 218 160 264 -107 q 205 336 205 243 q 320 761 205 618 q 435 846 370 822 l 423 882 z "},")":{"ha":457,"x_min":22,"x_max":389,"o":"m 34 882 q 323 633 225 830 q 389 334 389 496 q 269 -49 389 106 q 38 -203 176 -165 l 24 -168 q 239 160 193 -107 q 252 336 252 243 q 137 761 252 618 q 22 846 87 822 l 34 882 z "},"∂":{"ha":709,"x_min":49,"x_max":647,"o":"m 647 481 q 526 776 647 685 q 362 827 456 827 q 172 770 267 826 l 194 735 q 350 788 278 788 q 499 671 458 788 q 518 547 518 617 q 507 442 518 500 q 343 519 442 519 q 115 414 199 519 q 49 216 49 330 q 145 26 49 90 q 286 -14 205 -14 q 566 156 464 -14 q 647 481 647 293 m 191 191 q 281 454 191 382 q 357 483 316 483 q 463 389 435 483 q 473 305 473 351 q 396 66 473 151 q 298 20 351 22 q 194 148 208 20 q 191 191 191 168 z "},"%":{"ha":1108,"x_min":71,"x_max":1031,"o":"m 269 -42 l 857 827 l 814 856 l 224 -14 l 269 -42 m 290 842 q 107 749 168 842 q 71 613 71 690 q 171 410 71 471 q 286 378 222 378 q 469 473 410 378 q 506 609 506 532 q 399 817 506 760 q 290 842 350 842 m 289 406 q 205 490 222 406 q 195 609 195 533 q 251 806 195 777 q 288 814 267 814 q 370 732 353 814 q 380 613 380 686 q 309 408 380 426 q 289 406 298 406 m 815 450 q 632 357 693 450 q 595 221 595 298 q 696 18 595 79 q 811 -14 747 -14 q 994 81 935 -14 q 1031 217 1031 140 q 924 425 1031 368 q 815 450 875 450 m 814 14 q 730 98 747 14 q 720 217 720 142 q 776 414 720 385 q 812 422 792 422 q 895 340 878 422 q 905 221 905 294 q 834 16 905 34 q 814 14 823 14 z "},".":{"ha":267,"x_min":54,"x_max":214,"o":"m 214 73 q 171 145 214 122 q 134 155 153 155 q 62 109 84 155 q 54 73 54 91 q 100 0 54 22 q 134 -7 117 -7 q 206 38 183 -7 q 214 73 214 56 z "},"·":{"ha":385,"x_min":109,"x_max":277,"o":"m 277 312 q 232 388 277 363 q 193 397 212 397 q 118 351 141 397 q 109 312 109 332 q 156 236 109 258 q 193 228 174 228 q 267 274 244 228 q 277 312 277 293 z "},"‰":{"ha":1615,"x_min":71,"x_max":1538,"o":"m 1322 450 q 1139 357 1200 450 q 1103 221 1103 298 q 1203 18 1103 79 q 1318 -14 1255 -14 q 1501 81 1442 -14 q 1538 217 1538 140 q 1431 425 1538 368 q 1322 450 1382 450 m 1321 14 q 1237 98 1255 14 q 1227 217 1227 142 q 1283 414 1227 385 q 1320 422 1299 422 q 1402 340 1385 422 q 1412 221 1412 294 q 1341 16 1412 34 q 1321 14 1331 14 m 269 -42 l 857 827 l 814 856 l 224 -14 l 269 -42 m 290 842 q 107 749 168 842 q 71 613 71 690 q 171 410 71 471 q 286 378 222 378 q 469 473 410 378 q 506 609 506 532 q 399 817 506 760 q 290 842 350 842 m 289 406 q 205 490 222 406 q 195 609 195 533 q 251 806 195 777 q 288 814 267 814 q 370 732 353 814 q 380 613 380 686 q 309 408 380 426 q 289 406 298 406 m 815 450 q 632 357 693 450 q 595 221 595 298 q 696 18 595 79 q 811 -14 747 -14 q 994 81 935 -14 q 1031 217 1031 140 q 924 425 1031 368 q 815 450 875 450 m 814 14 q 730 98 747 14 q 720 217 720 142 q 776 414 720 385 q 812 422 792 422 q 895 340 878 422 q 905 221 905 294 q 834 16 905 34 q 814 14 823 14 z "},"π":{"ha":779,"x_min":31,"x_max":757,"o":"m 757 103 l 724 111 q 671 26 713 41 q 658 23 663 23 q 618 111 618 26 l 618 544 l 728 544 l 728 579 l 31 579 l 31 544 l 126 544 l 126 106 q 58 37 126 43 q 31 35 46 35 l 31 0 l 353 0 q 335 34 353 31 q 320 35 328 35 l 258 35 l 258 544 l 488 544 l 488 184 q 616 -14 488 -4 q 631 -14 624 -14 q 750 75 720 -14 q 757 103 754 90 z "},"+":{"ha":624,"x_min":53,"x_max":572,"o":"m 572 292 l 572 343 l 346 343 l 346 586 l 279 586 l 279 343 l 53 343 l 53 292 l 279 292 l 279 49 l 346 49 l 346 292 l 572 292 z "},"±":{"ha":624,"x_min":53,"x_max":572,"o":"m 572 346 l 572 397 l 346 397 l 346 586 l 279 586 l 279 397 l 53 397 l 53 346 l 279 346 l 279 157 l 346 157 l 346 346 l 572 346 m 572 45 l 572 96 l 53 96 l 53 45 l 572 45 z "},"∏":{"ha":806,"x_min":18,"x_max":789,"o":"m 358 -176 q 340 -142 358 -145 q 326 -141 334 -141 l 269 -141 l 269 779 l 534 779 l 534 -141 l 449 -141 l 449 -176 l 789 -176 q 772 -142 789 -145 q 755 -141 764 -141 l 680 -141 l 680 779 l 789 779 l 789 814 l 18 814 l 18 779 l 122 779 l 122 -141 l 18 -141 l 18 -176 l 358 -176 z "},"q":{"ha":755,"x_min":47,"x_max":724,"o":"m 47 271 q 157 26 47 103 q 288 -14 217 -14 q 471 77 403 -14 q 499 126 487 100 l 498 -146 q 457 -217 498 -205 q 391 -224 435 -224 l 391 -258 l 724 -258 q 707 -225 724 -229 q 692 -224 700 -224 l 628 -224 l 628 545 l 724 545 l 724 579 l 511 579 l 506 528 q 326 595 433 595 q 118 496 197 595 q 47 271 47 408 m 499 317 q 407 64 499 122 q 338 43 374 43 q 202 179 233 43 q 191 292 191 229 q 286 541 191 486 q 353 557 317 557 q 494 395 472 557 q 499 317 499 358 z "},"?":{"ha":625,"x_min":76,"x_max":556,"o":"m 304 240 q 393 430 304 347 q 439 469 408 444 q 536 571 514 530 q 556 652 556 609 q 425 811 556 772 q 311 827 373 827 q 115 768 184 827 q 76 686 77 731 q 148 614 87 620 q 216 667 203 614 q 220 700 217 678 q 251 779 227 762 q 302 792 271 792 q 408 678 407 789 q 353 495 408 582 q 290 392 300 414 q 260 240 260 326 l 304 240 m 365 73 q 321 145 365 122 q 285 155 304 155 q 213 109 235 155 q 205 73 205 91 q 251 0 205 22 q 285 -7 267 -7 q 357 38 334 -7 q 365 73 365 56 z "},"¿":{"ha":662,"x_min":54,"x_max":534,"o":"m 307 349 q 217 159 307 241 q 171 119 202 145 q 75 18 96 58 q 54 -64 54 -20 q 186 -222 54 -183 q 300 -239 237 -239 q 495 -179 426 -239 q 534 -98 533 -142 q 463 -26 524 -31 q 395 -79 407 -26 q 391 -111 393 -90 q 359 -190 384 -174 q 308 -203 339 -203 q 202 -90 203 -201 q 258 94 202 7 q 320 197 311 175 q 350 349 350 263 l 307 349 m 245 515 q 289 444 245 467 q 326 434 307 434 q 397 480 376 434 q 406 515 406 498 q 359 589 406 567 q 326 595 343 595 q 254 551 277 595 q 245 515 245 533 z "},"\"":{"ha":416,"x_min":54,"x_max":362,"o":"m 119 891 q 56 848 66 891 q 54 833 54 840 q 79 713 54 815 q 99 600 95 650 l 137 600 q 174 773 141 644 q 183 834 183 814 q 136 890 183 880 q 119 891 127 891 m 298 891 q 235 848 245 891 q 233 833 233 840 q 259 712 233 814 q 279 600 274 648 l 317 600 q 353 774 321 646 q 362 834 362 814 q 315 890 362 880 q 298 891 307 891 z "},"„":{"ha":429,"x_min":39,"x_max":389,"o":"m 389 61 q 334 155 389 137 q 307 159 321 159 q 239 114 259 159 q 232 80 232 96 q 282 11 232 28 q 294 7 289 8 q 327 -20 326 -1 q 270 -115 326 -58 l 298 -136 q 389 46 381 -49 q 389 61 389 54 m 197 61 q 141 155 197 137 q 114 159 129 159 q 46 114 66 159 q 39 80 39 96 q 90 11 39 28 q 102 7 96 8 q 133 -20 132 -1 q 77 -115 132 -60 l 106 -136 q 197 46 189 -49 q 197 61 197 54 z "},"“":{"ha":425,"x_min":39,"x_max":389,"o":"m 39 693 q 95 600 39 617 q 122 595 109 595 q 190 640 170 595 q 197 674 197 658 q 146 743 197 726 q 134 747 140 746 q 102 774 103 755 q 159 869 103 812 l 130 890 q 39 708 47 803 q 39 693 39 700 m 232 693 q 288 600 232 617 q 315 595 301 595 q 382 640 362 595 q 389 674 389 658 q 339 743 389 726 q 327 747 332 746 q 296 774 297 755 q 351 869 297 814 l 323 890 q 232 708 240 803 q 232 693 232 700 z "},"”":{"ha":431,"x_min":39,"x_max":389,"o":"m 389 760 q 334 853 389 836 q 307 857 320 857 q 239 812 259 857 q 232 779 232 795 q 282 709 232 727 q 294 705 289 707 q 327 678 326 697 q 270 583 326 640 l 298 563 q 389 745 381 650 q 389 760 389 753 m 197 760 q 141 853 197 836 q 114 857 127 857 q 46 812 66 857 q 39 779 39 795 q 90 709 39 727 q 102 705 95 707 q 133 678 132 697 q 77 583 132 639 l 106 563 q 197 745 189 650 q 197 760 197 753 z "},"‘":{"ha":259,"x_min":43,"x_max":205,"o":"m 205 674 q 153 745 205 727 q 141 749 146 747 q 109 777 110 758 q 165 875 110 817 l 137 895 q 45 712 54 810 q 43 693 43 701 q 103 597 43 614 q 129 594 115 594 q 197 639 176 594 q 205 674 205 656 z "},"’":{"ha":286,"x_min":54,"x_max":216,"o":"m 216 788 q 156 884 216 867 q 130 887 144 887 q 62 842 83 887 q 54 807 54 826 q 102 738 54 758 q 118 732 111 734 q 151 705 149 724 q 94 608 149 666 l 122 586 q 214 769 205 671 q 216 788 216 780 z "},"‚":{"ha":229,"x_min":38,"x_max":194,"o":"m 194 62 q 140 152 194 133 q 111 157 126 157 q 43 113 62 157 q 38 81 38 98 q 85 14 38 33 q 99 9 92 11 q 132 -18 130 -1 q 90 -98 130 -49 l 118 -117 q 194 62 191 -28 z "},"'":{"ha":244,"x_min":54,"x_max":191,"o":"m 123 891 q 57 849 68 891 q 54 833 54 841 q 80 718 54 814 q 103 600 98 651 l 141 600 q 180 772 146 648 q 191 834 191 814 q 144 888 191 879 q 123 891 133 891 z "},"r":{"ha":549,"x_min":37,"x_max":543,"o":"m 358 34 l 259 34 l 259 296 q 331 500 259 437 q 370 521 353 519 q 408 488 389 521 q 454 439 431 448 q 475 437 464 437 q 538 481 522 437 q 543 506 543 494 q 479 586 543 570 q 449 589 464 589 q 302 521 368 589 q 256 448 273 488 l 250 579 l 37 579 l 37 545 l 129 545 l 129 111 q 90 39 129 50 q 37 34 72 34 l 37 0 l 392 0 q 374 33 392 30 q 358 34 368 34 z "},"ŕ":{"ha":549,"x_min":37,"x_max":543,"o":"m 358 34 l 259 34 l 259 296 q 331 500 259 437 q 370 521 353 519 q 408 488 389 521 q 454 439 431 448 q 475 437 464 437 q 538 481 522 437 q 543 506 543 494 q 479 586 543 570 q 449 589 464 589 q 302 521 368 589 q 256 448 273 488 l 250 579 l 37 579 l 37 545 l 129 545 l 129 111 q 90 39 129 50 q 37 34 72 34 l 37 0 l 392 0 q 374 33 392 30 q 358 34 368 34 m 397 773 q 420 819 419 795 q 382 880 420 860 q 353 888 368 888 q 312 872 330 887 q 244 785 298 860 q 155 680 198 723 l 176 654 q 336 738 212 677 q 397 773 381 760 z "},"√":{"ha":609,"x_min":-16,"x_max":643,"o":"m 220 593 l -16 491 l -3 454 l 114 505 l 244 88 q 307 -3 267 11 q 345 -7 323 -7 l 389 -7 l 643 979 l 593 990 l 366 110 l 220 593 z "},"ř":{"ha":549,"x_min":37,"x_max":543,"o":"m 358 34 l 259 34 l 259 296 q 331 500 259 437 q 370 521 353 519 q 408 488 389 521 q 454 439 431 448 q 475 437 464 437 q 538 481 522 437 q 543 506 543 494 q 479 586 543 570 q 449 589 464 589 q 302 521 368 589 q 256 448 273 488 l 250 579 l 37 579 l 37 545 l 129 545 l 129 111 q 90 39 129 50 q 37 34 72 34 l 37 0 l 392 0 q 374 33 392 30 q 358 34 368 34 m 271 680 q 354 730 309 680 q 385 769 363 742 q 468 865 434 829 l 449 888 q 270 793 388 850 q 91 888 174 840 l 72 864 q 180 739 88 846 q 271 680 237 684 z "},"®":{"ha":536,"x_min":28,"x_max":502,"o":"m 502 642 q 412 825 502 757 q 266 873 349 873 q 73 781 142 873 q 28 642 28 720 q 119 456 28 524 q 266 410 183 410 q 456 500 388 410 q 502 642 502 563 m 64 642 q 146 807 64 750 q 266 844 199 844 q 430 761 372 844 q 467 642 467 708 q 382 473 467 532 q 266 439 331 439 q 98 525 156 439 q 64 642 64 576 m 414 510 q 396 529 411 528 l 387 529 l 320 633 q 385 707 384 652 q 330 772 385 754 q 282 779 308 779 l 137 779 l 137 758 l 165 758 l 165 529 l 137 529 l 137 509 l 267 509 l 267 529 l 235 529 l 235 628 l 259 628 l 326 507 l 414 510 m 235 758 l 263 758 q 307 720 298 758 q 308 707 308 713 q 264 651 300 658 l 235 651 l 235 758 z "},"˚":{"ha":678,"x_min":184,"x_max":483,"o":"m 271 779 q 334 872 277 867 q 396 781 395 871 q 350 688 396 701 q 334 685 342 685 q 271 779 273 686 m 338 905 q 194 830 228 905 q 184 781 184 807 q 258 667 184 699 q 331 654 290 654 q 472 728 437 654 q 483 783 483 754 q 411 891 483 860 q 338 905 378 905 z "},"s":{"ha":553,"x_min":62,"x_max":505,"o":"m 260 23 q 378 81 353 23 q 387 118 387 99 q 301 222 387 179 q 243 250 283 232 q 100 335 136 296 q 62 437 62 378 q 174 578 62 538 q 283 595 224 595 q 444 557 381 595 q 464 602 444 597 q 479 604 471 604 l 479 434 l 441 434 q 304 560 435 559 q 186 502 209 560 q 180 471 180 487 q 263 370 180 412 q 320 346 281 362 q 464 260 429 300 q 505 153 505 214 q 388 3 505 42 q 282 -14 340 -14 q 99 33 175 -12 q 81 -8 99 -3 q 62 -9 73 -9 l 62 197 l 104 197 q 260 23 107 24 z "},"ś":{"ha":553,"x_min":62,"x_max":505,"o":"m 260 23 q 378 81 353 23 q 387 118 387 99 q 301 222 387 179 q 243 250 283 232 q 100 335 136 296 q 62 437 62 378 q 174 578 62 538 q 283 595 224 595 q 444 557 381 595 q 464 602 444 597 q 479 604 471 604 l 479 434 l 441 434 q 304 560 435 559 q 186 502 209 560 q 180 471 180 487 q 263 370 180 412 q 320 346 281 362 q 464 260 429 300 q 505 153 505 214 q 388 3 505 42 q 282 -14 340 -14 q 99 33 175 -12 q 81 -8 99 -3 q 62 -9 73 -9 l 62 197 l 104 197 q 260 23 107 24 m 404 773 q 427 819 426 795 q 389 880 427 860 q 359 888 374 888 q 319 872 336 887 q 251 785 305 860 q 161 680 205 723 l 183 654 q 343 738 218 677 q 404 773 388 760 z "},"š":{"ha":553,"x_min":62,"x_max":505,"o":"m 260 23 q 378 81 353 23 q 387 118 387 99 q 301 222 387 179 q 243 250 283 232 q 100 335 136 296 q 62 437 62 378 q 174 578 62 538 q 283 595 224 595 q 444 557 381 595 q 464 602 444 597 q 479 604 471 604 l 479 434 l 441 434 q 304 560 435 559 q 186 502 209 560 q 180 471 180 487 q 263 370 180 412 q 320 346 281 362 q 464 260 429 300 q 505 153 505 214 q 388 3 505 42 q 282 -14 340 -14 q 99 33 175 -12 q 81 -8 99 -3 q 62 -9 73 -9 l 62 197 l 104 197 q 260 23 107 24 m 278 680 q 361 730 316 680 q 392 769 370 742 q 475 865 441 829 l 456 888 q 277 793 395 850 q 98 888 180 840 l 79 864 q 187 739 95 846 q 278 680 244 684 z "},"§":{"ha":635,"x_min":64,"x_max":575,"o":"m 184 433 q 235 514 186 486 q 300 484 256 503 q 435 403 408 435 q 454 354 454 380 q 400 271 453 300 q 340 300 381 281 q 203 384 231 350 q 184 433 184 407 m 575 391 q 458 548 575 484 q 376 587 431 562 q 241 666 269 633 q 220 720 220 692 q 274 796 220 773 q 321 806 297 806 q 410 751 392 806 q 416 728 412 745 q 448 673 427 682 q 480 666 463 666 q 532 723 530 669 q 439 821 532 787 q 328 840 387 840 q 127 765 186 840 q 99 678 99 727 q 193 538 100 595 q 65 420 80 509 q 64 399 64 410 q 183 236 64 304 q 264 195 209 221 q 395 114 369 145 q 411 68 411 91 q 355 -11 411 9 q 311 -19 335 -19 q 224 37 243 -19 q 217 62 221 45 q 184 121 206 110 q 156 126 172 126 q 98 80 104 126 q 96 69 96 75 q 193 -35 96 -1 q 305 -54 244 -54 q 496 12 433 -54 q 536 109 536 54 q 441 248 534 190 q 572 366 557 278 q 575 391 575 378 z "},";":{"ha":259,"x_min":54,"x_max":216,"o":"m 210 393 q 167 464 210 442 q 132 472 149 472 q 61 427 83 472 q 54 393 54 411 q 100 323 54 343 q 132 316 115 316 q 202 359 182 316 q 210 393 210 377 m 216 80 q 159 175 216 156 q 130 179 146 179 q 61 133 80 179 q 54 99 54 117 q 106 28 54 46 q 118 24 113 26 q 151 -3 149 15 q 94 -100 149 -42 l 122 -122 q 214 61 205 -35 q 216 80 216 72 z "},"-":{"ha":441,"x_min":58,"x_max":353,"o":"m 58 313 l 353 313 l 353 254 l 58 254 l 58 313 z "},"‐":{"ha":441,"x_min":58,"x_max":353,"o":"m 58 313 l 353 313 l 353 254 l 58 254 l 58 313 z "},"අ":{"ha":758,"x_min":43,"x_max":699,"o":"m 541 305 q 514 308 524 305 l 514 415 q 552 522 514 486 q 557 528 555 526 l 557 525 q 582 465 557 500 q 587 457 586 460 q 608 382 608 426 q 560 308 608 321 q 541 305 551 305 m 475 -285 l 514 -285 l 514 5 q 693 68 627 24 l 693 111 q 514 43 623 58 l 514 270 q 568 263 544 263 q 685 319 652 263 q 699 372 699 343 q 637 479 699 430 q 593 524 598 511 q 590 534 590 529 q 598 555 591 549 q 605 559 601 556 q 613 562 610 560 l 582 576 q 510 532 540 566 q 475 415 475 491 l 475 39 q 414 37 437 37 q 201 152 243 37 q 190 217 190 182 q 255 350 190 307 q 365 378 300 378 l 458 378 l 458 384 q 350 563 458 525 q 279 574 317 574 q 151 522 183 574 q 141 488 141 506 q 179 439 141 450 q 195 437 187 437 q 254 475 235 438 q 294 515 269 509 q 320 518 307 518 q 406 457 380 518 q 416 410 415 434 l 267 410 q 66 308 121 410 q 43 212 43 264 q 187 23 43 77 q 373 -5 264 -5 q 475 0 431 -5 l 475 -285 z "},"ආ":{"ha":1147,"x_min":43,"x_max":1074,"o":"m 541 305 q 514 308 524 305 l 514 415 q 552 522 514 486 q 557 528 555 526 l 557 525 q 582 465 557 500 q 587 457 586 460 q 608 382 608 426 q 560 308 608 321 q 541 305 551 305 m 475 -285 l 514 -285 l 514 5 q 693 68 627 24 l 693 111 q 514 43 623 58 l 514 270 q 568 263 544 263 q 685 319 652 263 q 699 372 699 343 q 637 479 699 430 q 593 524 598 511 q 590 534 590 529 q 598 555 591 549 q 605 559 601 556 q 613 562 610 560 l 582 576 q 510 532 540 566 q 475 415 475 491 l 475 39 q 414 37 437 37 q 201 152 243 37 q 190 217 190 182 q 255 350 190 307 q 365 378 300 378 l 458 378 l 458 384 q 350 563 458 525 q 279 574 317 574 q 151 522 183 574 q 141 488 141 506 q 179 439 141 450 q 195 437 187 437 q 254 475 235 438 q 294 515 269 509 q 320 518 307 518 q 406 457 380 518 q 416 410 415 434 l 267 410 q 66 308 121 410 q 43 212 43 264 q 187 23 43 77 q 373 -5 264 -5 q 475 0 431 -5 l 475 -285 m 746 145 q 829 11 746 43 q 892 -1 859 -1 q 1066 172 1036 -1 q 1074 266 1074 216 q 939 529 1074 495 q 892 534 917 534 q 768 468 810 534 q 746 387 746 431 q 747 358 746 368 l 784 358 q 783 377 783 366 q 833 465 783 446 q 856 469 845 469 q 948 266 948 467 q 856 64 947 65 q 784 136 792 64 q 783 155 783 145 q 784 175 783 168 l 747 175 q 746 145 746 164 z "},"ඈ":{"ha":1165,"x_min":43,"x_max":1122,"o":"m 541 305 q 514 308 524 305 l 514 415 q 552 522 514 486 q 557 528 555 526 l 557 525 q 582 465 557 500 q 587 457 586 460 q 608 382 608 426 q 560 308 608 321 q 541 305 551 305 m 475 -285 l 514 -285 l 514 5 q 693 68 627 24 l 693 111 q 514 43 623 58 l 514 270 q 568 263 544 263 q 685 319 652 263 q 699 372 699 343 q 637 479 699 430 q 593 524 598 511 q 590 534 590 529 q 598 555 591 549 q 605 559 601 556 q 613 562 610 560 l 582 576 q 510 532 540 566 q 475 415 475 491 l 475 39 q 414 37 437 37 q 201 152 243 37 q 190 217 190 182 q 255 350 190 307 q 365 378 300 378 l 458 378 l 458 384 q 350 563 458 525 q 279 574 317 574 q 151 522 183 574 q 141 488 141 506 q 179 439 141 450 q 195 437 187 437 q 254 475 235 438 q 294 515 269 509 q 320 518 307 518 q 406 457 380 518 q 416 410 415 434 l 267 410 q 66 308 121 410 q 43 212 43 264 q 187 23 43 77 q 373 -5 264 -5 q 475 0 431 -5 l 475 -285 m 722 416 l 983 416 l 811 290 l 811 262 l 1023 262 q 817 -19 818 127 q 914 -179 817 -136 q 1008 -197 955 -197 q 1122 -171 1066 -197 l 1122 -137 q 955 -42 994 -137 q 943 30 943 -9 q 1067 259 943 161 q 1077 266 1073 263 l 1077 296 l 878 296 l 1046 420 l 1046 449 l 722 449 l 722 416 z "},"ඇ":{"ha":1162,"x_min":43,"x_max":1126,"o":"m 724 414 l 998 414 q 812 22 814 213 q 895 -168 812 -111 q 989 -195 936 -195 q 1126 -141 1078 -194 l 1120 -115 q 1067 -114 1096 -118 q 947 4 977 -96 q 936 88 936 43 q 1046 426 937 262 q 1050 449 1048 445 l 724 449 l 724 414 m 541 305 q 514 308 524 305 l 514 415 q 552 522 514 486 q 557 528 555 526 l 557 525 q 582 465 557 500 q 587 457 586 460 q 608 382 608 426 q 560 308 608 321 q 541 305 551 305 m 475 -285 l 514 -285 l 514 5 q 693 68 627 24 l 693 111 q 514 43 623 58 l 514 270 q 568 263 544 263 q 685 319 652 263 q 699 372 699 343 q 637 479 699 430 q 593 524 598 511 q 590 534 590 529 q 598 555 591 549 q 605 559 601 556 q 613 562 610 560 l 582 576 q 510 532 540 566 q 475 415 475 491 l 475 39 q 414 37 437 37 q 201 152 243 37 q 190 217 190 182 q 255 350 190 307 q 365 378 300 378 l 458 378 l 458 384 q 350 563 458 525 q 279 574 317 574 q 151 522 183 574 q 141 488 141 506 q 179 439 141 450 q 195 437 187 437 q 254 475 235 438 q 294 515 269 509 q 320 518 307 518 q 406 457 380 518 q 416 410 415 434 l 267 410 q 66 308 121 410 q 43 212 43 264 q 187 23 43 77 q 373 -5 264 -5 q 475 0 431 -5 l 475 -285 z "},"ඓ":{"ha":1560,"x_min":43,"x_max":1496,"o":"m 834 218 q 994 20 834 71 q 1141 0 1059 0 q 1446 144 1354 0 q 1496 324 1496 224 q 1439 548 1496 444 q 1427 570 1432 559 q 1263 753 1367 673 q 1204 791 1232 776 q 1149 636 1149 726 q 1214 496 1149 538 q 1282 476 1244 476 q 1398 544 1366 477 q 1444 373 1444 472 q 1308 161 1444 220 q 1143 132 1238 132 q 898 236 916 132 q 897 254 897 245 q 943 332 898 302 q 1082 366 998 366 l 1165 366 l 1165 384 q 1090 545 1165 495 q 996 572 1050 572 q 871 519 905 572 q 859 477 859 499 q 897 427 859 438 q 909 426 903 426 q 963 472 949 429 q 1028 521 977 519 q 1107 468 1078 521 q 1122 408 1122 439 l 1122 400 l 796 400 l 796 357 q 945 366 841 365 l 952 366 q 878 328 910 355 q 834 218 834 288 m 1192 644 q 1217 741 1192 697 q 1371 583 1317 666 q 1294 529 1350 532 q 1196 608 1214 529 q 1192 644 1192 625 m 304 342 q 346 397 304 380 q 377 403 362 403 q 444 365 425 403 q 449 342 449 353 q 408 286 449 302 q 377 279 393 279 q 311 317 330 279 q 304 342 304 328 m 43 281 q 161 54 43 134 q 357 0 244 0 q 617 113 545 0 q 650 228 650 163 q 533 415 650 358 q 395 444 472 444 q 273 388 308 444 q 259 339 259 366 q 319 252 259 282 q 377 239 347 239 q 479 286 445 239 q 494 336 494 309 q 468 399 492 373 q 572 323 547 384 q 582 281 582 302 q 472 149 582 187 q 357 130 420 130 q 157 216 227 130 q 117 330 117 267 q 225 492 117 434 q 399 534 301 534 q 656 429 557 534 q 734 273 719 362 l 773 273 q 631 506 760 419 q 399 572 530 572 q 133 477 237 572 q 43 281 45 396 z "},"ඖ":{"ha":1369,"x_min":39,"x_max":1305,"o":"m 363 480 q 401 537 363 521 q 425 541 412 541 q 481 505 465 541 q 487 480 487 494 q 449 425 487 441 q 425 419 438 419 q 368 457 384 419 q 363 480 363 468 m 39 297 q 109 75 39 163 q 259 0 168 1 q 404 73 365 1 q 522 0 431 7 q 537 0 529 0 q 760 179 705 0 q 781 336 781 250 q 661 663 781 543 q 399 765 557 765 q 91 629 194 765 q 83 617 87 623 l 125 617 q 350 732 206 720 q 395 734 372 734 q 663 600 572 734 q 722 399 722 513 q 648 175 722 250 q 540 130 602 130 q 427 191 449 130 q 422 220 422 205 l 422 243 l 387 243 l 387 221 q 304 132 387 146 q 266 129 285 129 q 117 225 165 129 q 88 350 88 281 q 134 503 88 446 q 193 536 161 534 q 227 492 224 526 l 227 449 q 313 312 227 349 q 392 297 350 297 q 536 366 492 297 q 555 437 555 399 q 488 560 555 525 q 426 575 460 575 q 332 519 358 575 q 323 477 323 499 q 370 393 323 420 q 422 380 395 380 q 511 433 483 380 q 514 438 513 435 q 515 431 515 434 q 446 345 515 368 q 391 336 419 336 q 273 401 300 336 q 264 446 264 423 l 264 491 q 240 560 263 541 q 197 572 221 572 q 69 463 114 572 q 39 297 39 388 m 827 425 q 891 298 827 336 q 956 281 921 281 q 1066 343 1043 281 q 1073 381 1073 362 q 1024 456 1072 429 l 1024 465 q 1085 529 1027 528 q 1173 339 1168 529 q 1173 315 1173 327 q 1090 56 1173 72 q 1077 54 1084 54 q 993 126 1010 54 q 989 165 989 145 q 993 208 989 186 l 958 208 q 952 159 952 184 q 1027 14 952 54 q 1101 -3 1061 -3 q 1287 153 1241 -3 q 1305 292 1305 216 q 1223 533 1305 460 q 1114 572 1177 572 q 990 495 1012 572 q 986 463 986 479 q 987 446 986 452 q 1015 384 1015 416 q 967 321 1015 330 q 952 320 959 320 q 873 382 892 320 q 867 426 867 403 q 924 567 868 518 l 876 567 q 827 425 827 513 z "},"බ":{"ha":819,"x_min":43,"x_max":762,"o":"m 134 100 q 171 43 134 61 q 198 37 184 37 q 256 72 236 37 q 263 100 263 85 q 227 159 263 138 q 198 165 212 165 q 141 129 160 165 q 134 100 134 114 m 43 248 q 156 476 43 400 q 323 525 228 525 q 515 449 453 525 q 551 346 551 404 q 479 218 551 258 q 453 206 471 214 q 399 164 406 184 q 396 148 396 156 q 456 106 399 107 q 632 228 563 106 q 688 438 688 324 q 571 688 688 605 q 387 742 495 742 q 126 623 205 741 l 84 623 q 320 770 145 747 q 387 774 353 774 q 697 620 598 774 q 762 376 762 519 q 669 71 762 174 q 505 -3 602 -3 q 372 66 411 -3 q 354 133 354 96 q 407 222 354 191 q 461 258 456 252 q 483 311 483 279 q 391 391 483 369 q 313 399 355 399 q 126 320 190 399 q 87 202 87 270 q 102 121 87 151 q 163 197 109 178 q 198 202 180 202 q 290 151 259 202 q 304 102 304 127 q 245 9 304 37 q 198 -1 222 -1 q 60 126 98 -1 q 43 248 43 182 z "},"භ":{"ha":887,"x_min":8,"x_max":822,"o":"m 8 358 q 163 366 41 363 q 65 205 66 307 q 163 30 65 85 q 288 -1 217 -1 q 476 85 418 -1 q 506 193 506 133 q 453 308 506 279 q 419 316 437 316 q 381 307 396 315 q 548 454 420 453 q 707 347 661 454 q 727 240 727 298 q 650 71 727 129 q 536 35 601 35 q 487 39 511 35 l 487 3 q 541 -1 515 -1 q 762 102 681 -1 q 822 279 822 179 q 736 514 822 431 q 591 572 675 572 q 406 458 483 572 q 338 256 346 369 l 369 244 q 412 282 382 281 q 452 232 450 279 q 363 140 452 164 q 298 132 332 132 q 142 195 183 132 q 126 251 126 220 q 209 353 126 320 q 300 370 251 370 q 338 368 308 370 q 263 545 336 490 q 178 572 225 572 q 73 515 102 572 q 65 481 65 498 q 102 431 65 438 q 113 430 109 430 q 165 469 149 431 q 216 505 183 503 q 283 450 262 505 q 293 401 293 426 l 286 401 l 282 401 l 8 401 l 8 358 z "},"ච":{"ha":791,"x_min":19,"x_max":762,"o":"m 84 218 q 244 20 84 71 q 391 0 309 0 q 708 155 613 0 q 762 363 762 243 q 647 662 762 547 q 401 764 545 764 q 111 623 210 762 l 155 623 q 401 731 245 731 q 636 617 548 731 q 704 412 704 529 q 562 164 704 232 q 395 132 491 132 q 155 221 189 132 q 149 254 149 237 q 198 332 151 304 q 343 366 255 366 l 423 366 l 423 384 q 313 564 423 529 q 250 572 283 572 q 123 521 159 572 q 110 476 110 499 q 146 427 110 435 q 159 426 153 426 q 214 471 199 427 q 260 518 229 510 q 289 521 274 521 q 366 467 340 521 q 378 408 378 439 l 378 400 l 19 400 l 19 357 q 197 366 61 363 l 202 366 q 129 328 161 357 q 84 218 84 286 z "},"ඡ":{"ha":791,"x_min":43,"x_max":755,"o":"m 627 385 q 499 412 575 410 q 522 541 503 481 l 533 541 q 666 397 665 538 q 663 363 666 384 q 627 385 639 380 m 408 411 q 407 429 407 418 q 479 532 408 506 q 463 414 467 477 q 408 411 429 414 m 43 225 q 237 18 43 65 q 395 0 308 0 q 681 96 595 0 q 727 222 727 149 q 694 330 726 285 q 705 400 705 369 q 610 563 705 524 q 537 576 576 576 l 536 576 q 593 670 559 629 q 711 741 637 719 q 753 768 747 751 q 755 783 755 774 q 726 817 755 808 q 711 818 718 818 q 576 739 642 818 q 572 735 574 736 q 490 572 519 670 q 370 446 382 551 q 369 423 369 434 q 376 376 369 400 q 463 381 420 378 q 538 232 464 258 q 574 227 556 227 q 667 275 632 228 q 669 259 669 269 q 457 133 669 151 q 387 130 423 130 q 119 213 172 130 q 104 263 104 236 q 179 361 104 328 q 304 382 229 382 q 336 380 319 382 q 342 431 342 403 q 259 562 342 530 q 197 572 231 572 q 83 521 114 572 q 71 477 71 500 q 109 427 71 438 q 122 426 115 426 q 178 467 157 426 q 184 480 180 472 q 237 514 202 513 q 301 456 293 514 q 302 438 302 446 q 300 412 302 430 q 275 414 293 414 q 71 320 130 414 q 43 225 43 277 m 576 263 q 499 380 503 264 q 650 320 609 373 q 576 263 620 264 z "},"ද":{"ha":604,"x_min":41,"x_max":541,"o":"m 41 224 q 296 420 43 419 l 453 420 q 370 519 434 505 q 349 522 359 522 q 292 481 312 521 q 235 444 273 445 q 183 481 190 444 q 182 492 182 488 q 247 564 182 543 q 308 574 275 574 q 480 465 434 574 q 502 388 494 431 l 361 388 q 186 254 198 388 q 184 229 184 241 q 266 73 184 125 q 359 45 309 45 q 496 111 434 45 q 507 123 502 118 l 538 99 q 442 -39 464 12 q 420 -132 420 -87 q 541 -275 423 -243 l 541 -315 q 468 -323 507 -323 q 327 -228 351 -320 q 321 -186 321 -208 q 414 4 321 -110 q 420 12 418 9 q 311 -1 374 -1 q 69 111 134 -1 q 41 224 41 161 z "},"ඩ":{"ha":856,"x_min":20,"x_max":792,"o":"m 20 380 l 20 418 l 345 418 q 296 506 340 477 q 262 517 278 517 q 201 479 222 514 q 149 446 182 448 q 100 481 110 446 q 99 495 99 488 q 170 566 99 548 q 217 572 193 572 q 378 461 340 572 q 391 380 389 425 l 294 380 q 137 300 175 380 q 125 250 125 274 q 193 146 125 178 q 264 132 225 132 q 389 191 365 132 q 395 221 395 205 l 395 259 l 433 259 l 433 221 q 506 138 433 157 q 556 132 529 132 q 711 245 666 132 q 732 373 732 302 q 628 643 732 537 q 395 736 534 736 q 142 620 237 735 l 96 620 q 403 770 202 770 q 700 631 589 770 q 792 342 792 513 q 692 45 792 130 q 567 0 639 0 q 420 72 475 0 q 415 79 418 76 q 263 0 350 1 q 87 103 141 0 q 61 214 61 155 q 138 365 61 313 q 165 380 152 373 l 20 380 z "},"ඪ":{"ha":856,"x_min":20,"x_max":792,"o":"m 20 380 l 20 418 l 340 418 q 293 506 338 479 q 259 517 277 517 q 199 479 220 514 q 146 446 178 446 q 98 481 107 446 q 96 495 96 488 q 167 566 96 548 q 214 572 190 572 q 373 467 334 572 q 387 380 387 427 l 294 380 q 137 300 175 380 q 125 250 125 274 q 193 146 125 178 q 264 132 225 132 q 389 191 365 132 q 395 221 395 205 l 395 259 l 433 259 l 433 221 q 506 138 433 157 q 556 132 529 132 q 712 248 670 132 q 731 365 731 300 q 678 556 731 458 q 559 480 632 481 q 434 562 468 480 q 422 632 422 594 q 476 798 422 715 l 476 799 q 690 620 595 751 q 792 334 792 479 q 682 35 792 114 q 566 0 632 0 q 419 72 475 0 q 415 79 416 76 q 263 0 350 1 q 87 103 141 0 q 61 214 61 155 q 138 365 61 313 q 165 380 152 373 l 20 380 m 461 637 q 562 522 472 529 q 655 594 617 524 q 502 743 586 697 q 494 747 496 746 q 461 637 465 703 z "},"ධ":{"ha":845,"x_min":43,"x_max":780,"o":"m 43 258 q 122 52 43 126 q 252 0 176 0 q 401 79 339 1 q 559 0 463 1 q 758 178 705 0 q 780 346 780 254 q 655 663 780 541 q 396 768 547 768 q 85 620 199 766 l 130 620 q 389 735 235 735 q 643 614 547 735 q 720 387 720 517 q 644 165 720 232 q 549 132 604 132 q 426 210 446 132 q 422 244 422 227 l 422 288 l 384 288 l 384 244 q 285 134 384 149 q 252 132 270 132 q 117 217 156 132 q 100 297 100 254 q 172 456 100 397 q 279 494 220 494 l 293 494 l 293 528 q 201 513 245 528 q 71 385 115 483 q 43 258 43 326 z "},"එ":{"ha":788,"x_min":22,"x_max":722,"o":"m 60 218 q 220 20 60 71 q 366 0 285 0 q 671 144 579 0 q 722 324 722 224 q 665 548 722 444 q 652 570 658 559 q 488 753 593 673 q 430 791 457 776 q 374 636 374 726 q 439 496 374 538 q 507 476 469 476 q 624 544 591 477 q 670 373 670 472 q 533 161 670 220 q 369 132 464 132 q 123 236 141 132 q 122 254 122 244 q 168 332 123 302 q 308 366 224 366 l 391 366 l 391 384 q 316 545 391 495 q 221 572 275 572 q 96 519 130 572 q 84 477 84 499 q 122 427 84 438 q 134 426 129 426 q 189 472 175 429 q 254 521 202 519 q 332 468 304 521 q 347 408 347 439 l 347 400 l 22 400 l 22 357 q 171 366 66 365 l 178 366 q 103 328 136 355 q 60 218 60 288 m 418 644 q 442 741 418 697 q 597 583 543 666 q 519 529 575 532 q 422 608 439 529 q 418 644 418 625 z "},"ඒ":{"ha":788,"x_min":22,"x_max":787,"o":"m 621 684 l 621 859 q 722 780 704 812 q 731 738 731 760 q 663 674 719 680 q 621 684 640 674 m 60 218 q 220 20 60 71 q 366 0 285 0 q 670 142 576 0 q 722 319 722 221 q 671 513 722 422 q 652 545 663 528 q 621 591 633 575 l 621 651 q 681 640 650 640 q 780 697 755 640 q 787 735 787 715 q 711 853 787 812 q 663 876 694 861 q 583 920 606 902 l 583 637 q 430 766 505 726 q 374 612 374 701 q 439 472 374 514 q 507 452 469 452 q 624 521 590 453 q 670 368 670 449 q 548 168 670 229 q 369 132 473 132 q 123 236 141 132 q 122 254 122 244 q 168 332 123 302 q 308 366 224 366 l 382 366 l 382 384 q 309 541 382 494 q 221 564 271 564 q 96 510 129 564 q 84 468 84 491 q 123 420 84 429 q 134 419 129 419 q 189 463 174 420 q 256 513 206 511 q 330 457 305 513 q 339 408 339 434 l 339 400 l 22 400 l 22 357 q 171 366 66 365 l 178 366 q 103 328 136 355 q 60 218 60 288 m 418 620 q 442 716 418 675 q 597 559 543 642 q 519 506 578 507 q 420 587 437 506 q 418 620 418 604 z "},"ෆ":{"ha":803,"x_min":43,"x_max":741,"o":"m 43 281 q 118 514 43 431 q 247 571 171 571 q 392 476 351 570 q 537 571 434 570 q 712 437 659 571 q 741 281 741 366 q 669 57 741 140 q 543 -1 616 0 q 492 8 517 -1 l 492 43 q 537 35 515 35 q 663 136 627 35 q 682 245 682 184 q 589 435 682 401 q 538 444 564 444 q 416 345 431 444 q 414 315 414 331 l 414 271 l 370 271 l 370 315 q 266 442 370 431 q 247 444 256 444 q 107 313 134 444 q 100 244 100 279 q 168 64 100 121 q 248 35 203 35 q 292 43 270 35 l 292 8 q 241 -1 266 -1 q 73 125 127 -1 q 43 281 43 197 z "},"ග":{"ha":842,"x_min":45,"x_max":776,"o":"m 45 274 q 130 53 45 133 q 275 -3 191 -3 q 441 83 389 -3 q 467 180 467 126 q 401 312 467 282 q 358 321 381 321 q 328 315 339 320 q 433 450 350 415 q 505 464 467 464 q 677 351 633 464 q 694 251 694 307 q 616 76 694 140 q 480 33 559 33 q 448 35 468 33 l 448 1 q 488 -1 477 -1 q 720 110 639 -1 q 776 288 776 187 q 690 514 776 433 q 543 572 628 572 q 326 416 395 572 q 286 255 294 345 l 320 255 q 323 281 320 264 q 355 289 336 289 q 407 245 397 289 q 408 228 408 236 q 331 138 408 160 q 275 132 305 132 q 126 218 174 132 q 102 320 102 264 q 179 496 102 431 q 294 538 229 538 l 309 538 l 309 571 q 301 572 307 571 q 292 572 294 572 q 98 463 170 572 q 45 274 45 381 z "},"ඝ":{"ha":897,"x_min":7,"x_max":831,"o":"m 68 203 q 140 43 68 104 q 263 -1 193 -1 q 370 15 311 -1 q 374 53 374 24 q 365 118 374 66 q 361 156 361 137 q 418 239 361 225 q 439 241 429 241 q 515 187 499 241 q 519 156 519 174 q 509 90 519 138 q 505 53 505 71 q 510 15 505 27 q 616 -1 571 -1 q 799 92 741 -1 q 831 220 831 146 q 765 369 831 312 q 728 393 747 384 q 766 464 765 416 q 678 567 766 547 q 632 572 655 572 q 487 481 529 572 q 468 385 468 438 l 468 372 q 594 384 525 384 q 766 297 735 384 q 773 255 773 277 q 692 145 773 179 q 614 130 655 130 q 557 141 570 130 q 557 178 559 159 q 471 279 551 262 q 439 282 456 282 q 331 218 358 282 q 321 178 324 199 q 321 141 320 157 q 264 130 309 130 q 146 187 183 130 q 130 245 130 214 q 210 355 130 320 q 290 373 250 373 l 415 373 l 415 391 q 330 555 415 511 q 248 572 294 572 q 122 521 157 572 q 109 476 109 499 q 145 427 109 435 q 157 426 152 426 q 213 471 197 427 q 281 519 235 518 q 359 467 334 519 q 370 414 370 442 l 370 408 l 7 408 l 7 365 q 183 373 38 370 q 71 235 84 338 q 68 203 68 220 m 507 411 q 623 519 519 518 q 709 477 692 519 q 713 457 713 468 q 693 406 712 426 q 590 419 656 419 q 507 411 534 419 z "},"හ":{"ha":864,"x_min":43,"x_max":802,"o":"m 43 205 q 141 30 43 85 q 266 -1 195 -1 q 454 85 396 -1 q 484 193 484 133 q 431 308 484 281 q 397 316 415 316 q 361 307 376 315 q 526 454 400 453 q 685 347 639 454 q 705 240 705 298 q 628 71 705 127 q 514 35 579 35 q 467 39 490 35 l 467 3 q 521 -1 495 -1 q 742 102 661 -1 q 802 279 802 179 q 715 514 802 431 q 570 572 654 572 q 384 458 461 572 q 316 256 324 369 l 347 244 q 391 282 361 281 q 430 232 429 279 q 342 140 430 163 q 278 132 311 132 q 122 194 164 132 q 106 251 106 220 q 195 361 106 334 q 271 370 229 370 q 316 368 285 370 q 241 545 315 490 q 156 572 203 572 q 52 515 81 572 q 43 481 43 498 q 80 431 43 438 q 91 430 87 430 q 145 469 129 431 q 195 505 160 503 q 263 448 243 505 q 271 401 271 426 l 256 401 q 73 312 129 401 q 43 205 43 264 z "},"්":{"ha":1,"x_min":-186,"x_max":14,"o":"m -186 461 l -186 902 q -90 850 -168 888 q 5 765 -12 814 q 14 718 14 743 q -43 629 14 655 q -90 620 -65 620 q -149 633 -121 620 l -149 438 l -186 461 m -149 666 q -106 658 -130 658 q -42 704 -53 658 q -39 722 -39 713 q -100 812 -39 769 q -149 845 -111 821 l -149 666 z "},"ඉ":{"ha":785,"x_min":43,"x_max":720,"o":"m 43 293 q 178 524 43 448 q 376 572 263 572 q 670 442 582 572 q 720 262 720 368 q 624 47 720 129 q 509 -8 572 4 q 581 -85 574 -20 q 582 -99 582 -92 q 481 -201 582 -172 q 395 -212 441 -212 q 235 -134 260 -212 q 229 -100 229 -118 q 263 -52 229 -61 q 274 -50 270 -50 q 313 -85 308 -57 q 312 -99 313 -88 q 309 -125 309 -115 q 397 -180 313 -179 q 487 -129 473 -180 q 490 -110 490 -119 q 406 -26 490 -43 q 354 -20 382 -20 q 330 -22 340 -20 l 330 18 q 362 19 347 19 q 395 18 373 19 q 429 16 416 16 q 614 106 552 16 q 651 228 651 160 q 545 412 651 349 q 377 454 473 454 q 148 366 216 454 q 115 263 115 321 q 187 140 115 186 q 302 109 237 109 q 437 153 401 110 q 377 136 414 136 q 288 186 319 136 q 274 235 274 210 q 330 330 274 301 q 378 342 353 342 q 491 271 464 342 q 499 222 499 248 q 362 77 499 103 q 292 72 328 72 q 84 163 152 72 q 43 293 43 218 m 313 239 q 353 179 313 198 q 381 172 368 172 q 442 210 423 172 q 449 239 449 225 q 410 297 449 279 q 381 304 395 304 q 319 264 338 304 q 313 239 313 252 z "},"ඊ":{"ha":699,"x_min":41,"x_max":678,"o":"m 543 620 q 576 572 543 583 q 594 570 586 570 q 642 602 629 570 q 644 620 644 612 q 610 667 644 655 q 594 670 602 670 q 545 636 557 670 q 543 620 543 628 m 507 620 q 555 696 507 673 q 594 705 574 705 q 670 658 647 705 q 678 620 678 639 q 632 543 678 566 q 594 534 613 534 q 517 581 541 534 q 507 620 507 600 m 193 712 q 225 665 193 677 q 243 662 235 662 q 289 693 275 662 q 293 712 293 703 q 259 760 293 747 q 243 762 251 762 q 195 727 205 762 q 193 712 193 720 m 156 712 q 203 788 156 765 q 243 798 222 798 q 319 750 296 798 q 327 712 327 731 q 281 635 327 658 q 243 627 262 627 q 165 673 190 627 q 156 712 156 692 m 41 282 q 202 545 41 448 q 225 559 214 552 q 389 678 309 602 q 396 685 393 682 q 458 770 410 700 q 530 827 498 826 q 571 795 568 823 q 477 680 568 755 q 327 578 411 624 q 347 579 336 579 q 570 484 483 578 q 639 298 639 406 q 537 75 639 163 q 328 0 450 0 q 102 102 186 0 q 41 282 41 179 m 94 324 q 180 164 94 217 q 311 132 236 132 q 513 222 444 132 q 556 357 556 279 q 457 524 556 473 q 347 547 408 547 q 164 475 244 547 q 94 324 95 410 z "},"ජ":{"ha":791,"x_min":43,"x_max":753,"o":"m 583 412 q 521 467 533 412 q 518 492 518 479 q 522 537 518 517 q 549 538 532 538 q 646 488 631 538 q 648 471 648 480 q 605 415 648 427 q 583 412 594 412 m 431 410 q 427 442 427 429 q 481 528 429 506 q 480 494 480 515 q 506 411 481 445 q 472 412 494 412 q 431 410 452 412 m 43 225 q 237 18 43 65 q 395 0 308 0 q 681 96 595 0 q 727 222 727 149 q 627 384 726 336 q 689 468 686 407 q 606 567 689 541 q 555 575 581 575 q 533 574 540 575 q 602 674 555 635 q 709 741 631 699 q 753 784 751 765 q 715 818 750 817 q 601 760 662 817 q 488 568 515 682 q 388 438 389 541 q 397 377 388 407 q 418 378 403 377 q 471 382 452 382 q 661 298 628 382 q 666 266 666 282 q 453 134 666 152 q 387 132 420 132 q 117 218 163 132 q 106 262 106 239 q 190 365 106 334 q 304 382 236 382 q 347 380 316 382 q 353 431 353 403 q 271 560 353 528 q 203 572 240 572 q 85 522 118 572 q 73 479 73 502 q 111 426 73 434 q 123 425 118 425 q 180 467 159 425 q 186 476 183 472 q 245 515 206 514 q 311 457 300 515 q 312 438 312 448 q 311 412 312 420 q 275 414 297 414 q 71 320 130 414 q 43 225 43 277 z "},"ඣ":{"ha":1439,"x_min":28,"x_max":1377,"o":"m 104 152 q 172 281 125 209 q 240 359 205 328 q 396 382 292 382 q 594 300 545 382 q 612 235 612 270 q 563 144 612 171 q 511 132 540 132 q 411 198 427 132 q 407 243 407 218 l 407 244 l 372 244 l 372 243 q 270 132 369 133 q 179 155 233 132 q 140 165 156 165 q 104 152 122 164 m 401 418 q 289 406 332 418 q 600 536 427 528 q 627 536 613 536 q 804 515 722 536 l 798 513 q 670 389 715 484 q 644 307 651 350 q 401 418 567 416 m 28 28 l 64 15 q 115 96 72 95 q 153 65 132 96 q 224 5 186 18 q 270 -1 245 -1 q 392 84 355 0 q 526 -1 434 -1 q 667 91 631 -1 q 674 110 671 100 q 848 0 732 1 q 997 79 935 1 q 1156 0 1058 1 q 1355 178 1302 0 q 1377 346 1377 254 q 1251 663 1377 541 q 991 768 1142 768 q 682 620 795 766 l 726 620 q 986 735 830 735 q 1240 614 1143 735 q 1316 387 1316 517 q 1238 164 1316 228 q 1146 132 1199 132 q 1023 206 1044 132 q 1017 244 1017 224 l 1017 288 l 979 288 l 979 244 q 880 134 979 149 q 848 132 865 132 q 713 216 753 132 q 696 297 696 254 q 768 454 696 396 q 876 494 815 494 l 888 494 l 888 528 q 642 574 799 571 q 623 574 631 574 q 319 476 448 574 q 290 452 304 464 q 292 473 292 461 q 229 566 292 541 q 180 574 206 574 q 60 515 100 574 q 38 450 38 486 q 72 396 38 408 q 92 393 83 393 q 144 427 130 395 q 155 471 146 434 q 157 480 156 476 q 209 517 171 514 q 255 467 252 513 q 224 400 254 434 q 144 308 165 339 q 42 92 77 216 q 28 28 33 57 z "},"ඥ":{"ha":1115,"x_min":35,"x_max":1058,"o":"m 178 274 q 263 53 178 133 q 408 -3 324 -3 q 575 87 525 -3 q 586 111 582 99 q 826 -1 652 0 q 936 12 891 -1 q 838 -186 840 -109 q 928 -313 838 -285 q 985 -323 955 -321 q 1058 -315 1025 -323 l 1058 -275 q 937 -132 939 -241 q 1039 80 937 -38 q 1047 90 1042 84 q 1055 99 1053 96 l 1024 123 q 876 45 949 47 q 735 117 788 45 q 701 229 701 165 q 846 387 701 374 q 878 388 863 388 l 1019 388 q 891 566 990 536 q 873 570 882 568 q 742 581 825 581 q 418 255 446 578 l 453 255 q 457 279 453 258 q 486 289 469 289 q 540 244 529 289 q 541 227 541 235 q 456 137 541 155 q 407 132 433 132 q 255 224 302 132 q 233 320 233 269 q 309 496 233 431 q 426 538 361 538 l 441 538 l 441 571 q 429 572 433 571 l 430 572 q 316 574 397 574 q 54 415 113 574 q 35 293 35 361 q 119 45 35 137 q 179 0 148 16 l 179 42 q 76 289 76 132 q 193 513 76 454 q 302 537 240 536 q 183 340 206 475 q 178 274 178 308 m 490 321 q 461 315 473 320 q 625 528 495 483 q 713 543 667 543 l 722 543 q 699 492 699 521 q 738 445 699 452 q 750 444 745 444 q 808 481 791 445 q 865 522 830 521 q 963 445 935 522 q 970 420 967 434 l 812 420 q 566 286 602 419 q 490 321 536 321 z "},"ක":{"ha":987,"x_min":28,"x_max":929,"o":"m 28 28 l 64 15 q 115 96 72 95 q 153 65 132 96 q 224 5 186 18 q 270 -1 245 -1 q 392 84 355 0 q 526 -1 434 -1 q 670 96 633 -1 q 682 167 682 130 q 552 387 682 323 q 401 418 486 418 q 288 406 331 418 q 507 476 369 476 q 755 381 662 476 q 831 186 831 302 q 779 53 831 92 q 730 37 755 37 q 669 52 694 37 l 669 15 q 735 -1 694 -1 q 903 125 852 -1 q 929 255 929 187 q 818 500 929 410 q 600 575 728 575 q 304 465 431 575 q 290 452 297 457 q 292 473 292 461 q 229 566 292 541 q 180 574 206 574 q 60 515 100 574 q 38 450 38 486 q 72 396 38 408 q 92 393 83 393 q 144 427 130 395 q 155 471 146 434 q 157 480 156 476 q 209 517 171 514 q 255 467 252 513 q 224 400 254 434 q 144 308 165 339 q 42 92 77 216 q 28 28 33 57 m 104 152 q 172 281 125 209 q 240 359 205 328 q 396 382 292 382 q 594 300 545 382 q 612 235 612 270 q 563 144 612 171 q 511 132 540 132 q 411 198 427 132 q 407 243 407 218 l 407 244 l 372 244 l 372 243 q 270 132 369 133 q 179 155 233 132 q 140 165 156 165 q 104 152 122 164 z "},"ඛ":{"ha":834,"x_min":42,"x_max":773,"o":"m 123 95 q 159 42 123 57 q 180 38 170 38 q 233 73 218 38 q 237 95 237 84 q 203 148 237 133 q 180 153 191 153 q 127 118 144 153 q 123 95 123 106 m 42 243 q 167 487 42 412 q 317 525 232 525 q 506 450 439 525 q 547 342 547 403 q 477 176 545 251 q 490 178 483 178 q 529 152 507 178 q 581 126 553 127 q 688 235 647 126 q 716 408 716 313 q 601 688 716 589 q 389 762 513 762 q 130 623 210 761 l 84 623 q 395 796 180 795 q 681 663 574 796 q 773 378 773 548 q 700 94 773 208 q 551 0 637 1 q 461 45 500 0 q 425 72 437 71 q 321 -26 395 72 q 319 -28 319 -27 l 269 -24 q 315 30 278 -15 q 380 111 354 81 q 475 290 475 225 q 312 399 472 397 q 132 324 195 399 q 87 198 87 273 q 95 137 87 167 q 163 193 111 183 q 180 194 172 194 q 273 136 250 194 q 279 96 279 117 q 235 14 279 43 q 187 -1 212 -1 q 54 136 88 -1 q 42 243 42 186 z "},"ල":{"ha":887,"x_min":41,"x_max":826,"o":"m 41 179 q 213 -137 41 -35 q 479 -203 324 -203 q 746 -104 646 -203 q 826 92 826 -24 l 826 111 l 780 111 q 785 87 785 100 q 665 -104 785 -43 q 526 -137 601 -137 q 250 -11 346 -137 q 180 218 180 83 q 297 467 180 377 q 503 533 384 533 q 750 438 707 533 q 761 389 761 415 q 680 290 761 307 q 644 286 662 286 q 536 331 568 286 q 525 366 525 349 l 525 372 l 686 372 l 686 408 l 351 408 l 351 372 l 486 372 q 566 239 486 278 q 643 222 601 222 q 785 289 739 222 q 810 370 810 326 q 639 553 810 507 q 481 572 568 572 q 130 435 251 572 q 41 179 41 334 z "},"ළ":{"ha":842,"x_min":41,"x_max":819,"o":"m 343 534 q 429 480 400 534 q 441 437 441 458 l 481 437 q 529 515 481 484 q 589 533 556 533 q 707 453 675 533 q 718 393 718 425 l 237 393 q 221 392 227 393 q 313 530 228 510 q 343 534 327 534 m 41 151 q 195 -136 41 -39 q 454 -202 304 -202 q 708 -118 598 -202 q 819 98 818 -30 l 781 98 q 665 -83 777 -20 q 510 -121 594 -121 q 240 -8 342 -121 q 159 205 159 81 q 175 285 159 248 q 315 90 205 151 q 442 57 374 57 q 692 210 633 57 q 700 236 696 222 l 661 236 q 452 157 605 157 q 259 247 321 157 q 224 338 232 288 q 301 358 259 358 l 762 358 q 673 552 762 502 q 590 572 636 572 q 475 518 515 572 q 463 499 467 509 q 345 572 422 566 q 199 488 250 572 q 167 378 171 441 q 52 227 83 339 q 41 151 41 187 z "},"ම":{"ha":838,"x_min":43,"x_max":774,"o":"m 350 467 q 388 407 350 426 q 415 401 401 401 q 475 439 456 401 q 480 467 480 453 q 442 526 480 507 q 415 532 429 532 q 355 494 374 532 q 350 467 350 480 m 43 331 q 106 524 43 450 q 206 572 151 571 q 277 496 277 571 q 274 457 277 480 q 270 404 270 427 q 343 304 270 328 q 397 296 369 296 q 524 370 495 296 q 532 419 532 393 q 513 484 532 458 q 515 454 515 469 q 464 370 515 396 q 415 359 442 359 q 320 420 349 359 q 309 465 309 444 q 368 560 309 530 q 422 572 393 572 q 557 490 519 572 q 572 411 572 454 q 492 275 572 319 q 400 254 450 254 q 255 315 301 254 q 228 396 228 350 q 236 477 228 404 q 237 500 237 490 q 203 536 235 534 q 117 460 145 536 q 103 377 103 420 q 232 165 103 232 q 406 127 307 127 q 651 237 567 127 q 709 420 709 313 q 613 656 709 562 q 401 741 526 741 q 146 621 241 739 l 103 621 q 350 773 190 753 q 400 776 376 776 q 673 655 563 776 q 774 387 774 543 q 632 65 774 168 q 411 0 540 0 q 106 130 203 0 q 43 331 43 214 z "},"ා":{"ha":403,"x_min":20,"x_max":349,"o":"m 20 145 q 22 175 20 165 l 57 175 q 56 155 56 167 q 117 65 56 73 q 129 64 122 64 q 222 266 222 66 q 129 469 221 468 q 64 422 83 469 q 56 377 56 401 q 57 358 56 365 l 22 358 q 20 387 20 369 q 95 517 20 476 q 167 534 129 534 q 340 362 309 534 q 349 266 349 317 q 209 3 349 34 q 167 -1 189 -1 q 34 79 68 -1 q 20 145 20 109 z "},"ෑ":{"ha":445,"x_min":5,"x_max":406,"o":"m 5 416 l 5 449 l 330 449 l 330 420 l 161 296 l 361 296 l 361 266 q 228 54 240 178 q 227 30 227 42 q 324 -123 227 -85 q 406 -137 361 -137 l 406 -171 q 292 -197 350 -197 q 117 -100 161 -197 q 100 -19 100 -64 q 307 262 102 129 l 95 262 l 95 290 l 267 416 l 5 416 z "},"ැ":{"ha":442,"x_min":4,"x_max":406,"o":"m 4 414 l 4 449 l 330 449 q 326 426 327 444 q 216 88 216 260 q 305 -99 216 -50 q 347 -114 326 -110 q 400 -115 377 -118 l 406 -141 q 269 -195 357 -195 q 114 -91 159 -195 q 92 22 92 -41 q 278 414 94 214 l 4 414 z "},"ෛ":{"ha":1600,"x_min":43,"x_max":1549,"o":"m 304 342 q 346 285 304 302 q 377 279 362 279 q 442 316 423 279 q 449 342 449 330 q 407 397 449 381 q 377 403 392 403 q 311 366 330 403 q 304 342 304 354 m 43 281 q 172 509 43 423 q 399 572 270 572 q 681 465 571 572 q 773 273 762 384 l 734 273 q 590 483 712 408 q 399 534 505 534 q 174 456 256 534 q 117 330 117 401 q 208 171 117 229 q 357 130 273 130 q 552 199 492 130 q 582 281 582 236 q 511 384 582 350 q 468 399 491 395 q 494 336 494 372 q 430 250 494 275 q 377 239 404 239 q 277 288 312 239 q 259 339 259 312 q 328 431 259 403 q 395 444 359 444 q 609 354 540 444 q 650 228 650 302 q 533 38 650 98 q 357 0 460 0 q 107 103 195 0 q 43 281 43 178 m 1080 342 q 1122 285 1080 302 q 1153 279 1138 279 q 1218 316 1199 279 q 1225 342 1225 330 q 1183 397 1225 381 q 1153 403 1168 403 q 1086 366 1105 403 q 1080 342 1080 354 m 819 281 q 948 509 819 423 q 1175 572 1046 572 q 1455 467 1345 572 q 1549 273 1538 385 l 1510 273 q 1366 483 1488 408 q 1175 534 1280 534 q 949 456 1032 534 q 892 330 892 401 q 983 171 892 229 q 1133 130 1048 130 q 1328 199 1268 130 q 1358 281 1358 236 q 1287 384 1358 350 q 1244 399 1267 395 q 1270 336 1270 372 q 1206 250 1270 275 q 1153 239 1180 239 q 1053 288 1088 239 q 1035 339 1035 312 q 1104 431 1035 403 q 1171 444 1135 444 q 1385 354 1316 444 q 1426 228 1426 302 q 1309 38 1426 98 q 1133 0 1236 0 q 883 103 971 0 q 819 281 819 178 z "},"ෞ":{"ha":1495,"x_min":43,"x_max":1416,"o":"m 304 342 q 346 397 304 380 q 377 403 362 403 q 444 365 425 403 q 449 342 449 353 q 408 286 449 302 q 377 279 393 279 q 311 317 330 279 q 304 342 304 328 m 43 281 q 161 54 43 134 q 357 0 244 0 q 617 113 545 0 q 650 228 650 163 q 533 415 650 358 q 395 444 472 444 q 273 388 308 444 q 259 339 259 366 q 319 252 259 282 q 377 239 347 239 q 479 286 445 239 q 494 336 494 309 q 468 399 492 373 q 572 323 547 384 q 582 281 582 302 q 472 149 582 187 q 357 130 420 130 q 157 216 227 130 q 117 330 117 267 q 225 492 117 434 q 399 534 301 534 q 656 429 557 534 q 734 273 719 362 l 773 273 q 631 506 760 419 q 399 572 530 572 q 133 477 237 572 q 43 281 45 396 m 939 425 q 1002 298 939 336 q 1067 281 1032 281 q 1177 343 1154 281 q 1184 381 1184 362 q 1135 456 1183 429 l 1135 465 q 1196 529 1138 528 q 1284 339 1279 529 q 1284 315 1284 327 q 1202 56 1284 72 q 1188 54 1195 54 q 1104 126 1122 54 q 1100 165 1100 145 q 1104 208 1100 186 l 1069 208 q 1063 159 1063 184 q 1138 14 1063 54 q 1213 -3 1172 -3 q 1398 153 1352 -3 q 1416 292 1416 214 q 1335 533 1416 460 q 1225 572 1289 572 q 1101 495 1123 572 q 1097 463 1097 479 q 1099 446 1097 452 q 1126 384 1126 416 q 1078 321 1126 330 q 1063 320 1070 320 q 985 382 1004 320 q 978 426 978 403 q 1035 567 979 518 l 987 567 q 939 425 939 513 z "},"ෙ":{"ha":822,"x_min":43,"x_max":773,"o":"m 304 342 q 346 285 304 302 q 377 279 362 279 q 442 316 423 279 q 449 342 449 330 q 407 397 449 381 q 377 403 392 403 q 311 366 330 403 q 304 342 304 354 m 43 281 q 172 509 43 423 q 399 572 270 572 q 681 465 571 572 q 773 273 762 384 l 734 273 q 590 483 712 408 q 399 534 505 534 q 174 456 256 534 q 117 330 117 401 q 208 171 117 229 q 357 130 273 130 q 552 199 492 130 q 582 281 582 236 q 511 384 582 350 q 468 399 491 395 q 494 336 494 372 q 430 250 494 275 q 377 239 404 239 q 277 288 312 239 q 259 339 259 312 q 328 431 259 403 q 395 444 359 444 q 609 354 540 444 q 650 228 650 302 q 533 38 650 98 q 357 0 460 0 q 107 103 195 0 q 43 281 43 178 z "},"ේ":{"ha":1289,"x_min":43,"x_max":1221,"o":"m 304 342 q 346 285 304 302 q 377 279 362 279 q 442 316 423 279 q 449 342 449 330 q 407 397 449 381 q 377 403 392 403 q 311 366 330 403 q 304 342 304 354 m 43 281 q 172 509 43 423 q 399 572 270 572 q 681 465 571 572 q 773 273 762 384 l 734 273 q 590 483 712 408 q 399 534 505 534 q 174 456 256 534 q 117 330 117 401 q 208 171 117 229 q 357 130 273 130 q 552 199 492 130 q 582 281 582 236 q 511 384 582 350 q 468 399 491 395 q 494 336 494 372 q 430 250 494 275 q 377 239 404 239 q 277 288 312 239 q 259 339 259 312 q 328 431 259 403 q 395 444 359 444 q 609 354 540 444 q 650 228 650 302 q 533 38 650 98 q 357 0 460 0 q 107 103 195 0 q 43 281 43 178 m 1021 461 l 1021 902 q 1118 850 1039 888 q 1213 765 1195 814 q 1221 718 1221 743 q 1164 629 1221 655 q 1118 620 1142 620 q 1058 633 1086 620 l 1058 438 l 1021 461 m 1058 666 q 1101 658 1077 658 q 1165 704 1154 658 q 1168 722 1168 713 q 1107 812 1168 769 q 1058 845 1096 821 l 1058 666 z "},"ි":{"ha":1,"x_min":-722,"x_max":-107,"o":"m -722 686 q -572 865 -722 815 q -415 888 -502 888 q -153 803 -235 888 q -107 686 -107 754 q -218 549 -107 585 q -297 537 -255 538 l -297 566 q -172 643 -184 572 q -171 658 -171 651 q -374 757 -171 747 q -415 758 -395 758 q -659 678 -632 758 q -662 658 -662 667 q -576 571 -662 591 q -533 566 -555 567 l -533 537 q -707 623 -666 543 q -722 686 -722 652 z "},"ී":{"ha":1,"x_min":-777,"x_max":-110,"o":"m -331 681 q -285 616 -331 637 q -244 606 -266 606 q -165 648 -190 606 q -157 681 -157 665 q -203 746 -157 724 q -244 755 -222 755 q -323 713 -298 755 q -331 681 -331 697 m -777 685 q -628 860 -777 807 q -445 888 -547 888 q -178 818 -274 888 q -110 694 -111 768 q -176 585 -110 620 q -244 568 -208 568 q -358 629 -323 568 q -373 682 -373 655 q -326 768 -372 735 q -450 776 -368 776 q -699 708 -636 776 q -722 651 -722 682 q -650 566 -719 585 l -658 537 q -765 618 -734 544 q -777 685 -777 650 z "},"ෳ":{"ha":583,"x_min":43,"x_max":521,"o":"m 43 425 q 107 298 43 336 q 172 281 137 281 q 282 343 259 281 q 289 381 289 362 q 240 456 288 429 l 240 465 q 301 529 243 528 q 389 339 384 529 q 389 315 389 327 q 307 56 389 72 q 293 54 300 54 q 209 126 227 54 q 205 165 205 144 q 209 208 205 186 l 174 208 q 168 159 168 184 q 243 14 168 54 q 317 -3 277 -3 q 503 153 457 -3 q 521 292 521 216 q 439 533 521 460 q 330 572 393 572 q 206 495 228 572 q 202 463 202 479 q 203 446 202 452 q 231 384 231 416 q 183 321 231 330 q 168 320 175 320 q 90 382 109 320 q 83 426 83 403 q 140 567 84 518 l 92 567 q 43 425 43 513 z "},"ෟ":{"ha":583,"x_min":43,"x_max":521,"o":"m 43 425 q 107 298 43 336 q 172 281 137 281 q 282 343 259 281 q 289 381 289 362 q 240 456 288 429 l 240 465 q 301 529 243 528 q 389 339 384 529 q 389 315 389 327 q 307 56 389 72 q 293 54 300 54 q 209 126 227 54 q 205 165 205 144 q 209 208 205 186 l 174 208 q 168 159 168 184 q 243 14 168 54 q 317 -3 277 -3 q 503 153 457 -3 q 521 292 521 216 q 439 533 521 460 q 330 572 393 572 q 206 495 228 572 q 202 463 202 479 q 203 446 202 452 q 231 384 231 416 q 183 321 231 330 q 168 320 175 320 q 90 382 109 320 q 83 426 83 403 q 140 567 84 518 l 92 567 q 43 425 43 513 z "},"ො":{"ha":1579,"x_min":43,"x_max":1501,"o":"m 304 342 q 346 285 304 302 q 377 279 362 279 q 442 316 423 279 q 449 342 449 330 q 407 397 449 381 q 377 403 392 403 q 311 366 330 403 q 304 342 304 354 m 43 281 q 172 509 43 423 q 399 572 270 572 q 681 465 571 572 q 773 273 762 384 l 734 273 q 590 483 712 408 q 399 534 505 534 q 174 456 256 534 q 117 330 117 401 q 208 171 117 229 q 357 130 273 130 q 552 199 492 130 q 582 281 582 236 q 511 384 582 350 q 468 399 491 395 q 494 336 494 372 q 430 250 494 275 q 377 239 404 239 q 277 288 312 239 q 259 339 259 312 q 328 431 259 403 q 395 444 359 444 q 609 354 540 444 q 650 228 650 302 q 533 38 650 98 q 357 0 460 0 q 107 103 195 0 q 43 281 43 178 m 1173 145 q 1175 175 1173 165 l 1210 175 q 1208 155 1208 167 q 1270 65 1208 73 q 1282 64 1275 64 q 1375 266 1375 66 q 1282 469 1374 468 q 1217 422 1236 469 q 1208 377 1208 401 q 1210 358 1208 365 l 1175 358 q 1173 387 1173 369 q 1248 517 1173 476 q 1320 534 1282 534 q 1493 362 1462 534 q 1501 266 1501 317 q 1362 3 1501 34 q 1320 -1 1341 -1 q 1187 79 1221 -1 q 1173 145 1173 109 z "},"ෝ":{"ha":1449,"x_min":43,"x_max":1377,"o":"m 304 342 q 346 397 304 380 q 377 403 362 403 q 444 365 425 403 q 449 342 449 353 q 408 286 449 302 q 377 279 393 279 q 311 317 330 279 q 304 342 304 328 m 43 281 q 161 54 43 134 q 357 0 244 0 q 617 113 545 0 q 650 228 650 163 q 533 415 650 358 q 395 444 472 444 q 273 388 308 444 q 259 339 259 366 q 319 252 259 282 q 377 239 347 239 q 479 286 445 239 q 494 336 494 309 q 468 399 492 373 q 572 323 547 384 q 582 281 582 302 q 472 149 582 187 q 357 130 420 130 q 157 216 227 130 q 117 330 117 267 q 225 492 117 434 q 399 534 301 534 q 656 429 557 534 q 734 273 719 362 l 773 273 q 631 506 760 419 q 399 572 530 572 q 133 477 237 572 q 43 281 45 396 m 978 145 q 1061 11 978 43 q 1124 -1 1090 -1 q 1298 172 1268 -1 q 1306 266 1306 216 q 1214 510 1305 452 l 1214 633 q 1274 620 1242 620 q 1366 673 1339 620 q 1377 718 1377 693 q 1298 838 1377 793 q 1251 860 1283 846 q 1176 902 1198 886 l 1176 528 q 1124 534 1147 534 q 1000 468 1042 534 q 978 387 978 431 q 979 358 978 368 l 1016 358 q 1015 377 1015 366 q 1065 465 1015 446 q 1088 469 1077 469 q 1180 266 1180 467 q 1088 64 1179 65 q 1016 136 1024 64 q 1015 155 1015 145 q 1016 175 1015 168 l 979 175 q 978 145 978 164 m 1214 666 l 1214 845 q 1305 774 1287 796 q 1322 722 1322 750 q 1276 661 1322 671 q 1256 658 1267 658 q 1214 666 1230 658 z "},"ෘ":{"ha":414,"x_min":43,"x_max":353,"o":"m 43 330 l 43 320 l 77 320 l 77 326 q 144 463 77 442 q 167 465 156 465 q 241 293 241 463 q 132 273 180 293 q 43 141 45 232 q 96 23 43 66 q 165 -1 127 -1 q 233 19 189 -1 q 248 23 243 23 q 269 4 262 20 l 332 4 q 331 30 331 14 q 339 110 331 45 q 353 269 353 222 q 263 502 353 449 q 193 521 232 521 q 56 414 88 521 q 43 330 43 374 m 84 141 q 163 245 85 221 q 241 256 199 256 l 241 245 q 241 212 241 235 q 240 152 240 175 q 247 54 240 72 q 236 56 241 56 q 222 50 232 54 q 168 38 190 38 q 91 99 113 38 q 84 141 84 119 z "},"ෲ":{"ha":755,"x_min":43,"x_max":693,"o":"m 43 330 l 43 320 l 77 320 l 77 326 q 144 463 77 442 q 167 465 156 465 q 241 293 241 463 q 132 273 180 293 q 43 141 45 232 q 96 23 43 66 q 165 -1 127 -1 q 233 19 189 -1 q 248 23 243 23 q 269 4 262 20 l 332 4 q 331 30 331 14 q 339 110 331 45 q 353 269 353 222 q 263 502 353 449 q 193 521 232 521 q 56 414 88 521 q 43 330 43 374 m 84 141 q 163 245 85 221 q 241 256 199 256 l 241 245 q 241 212 241 235 q 240 152 240 175 q 247 54 240 72 q 236 56 241 56 q 222 50 232 54 q 168 38 190 38 q 91 99 113 38 q 84 141 84 119 m 384 330 l 384 320 l 418 320 l 418 326 q 484 463 418 442 q 507 465 496 465 q 582 293 582 463 q 472 273 518 293 q 384 141 385 232 q 435 23 384 65 q 505 -1 465 -1 q 572 19 528 -1 q 587 23 582 23 q 608 4 601 20 l 671 4 q 670 30 670 14 q 678 110 670 45 q 693 269 693 222 q 606 500 693 444 q 532 521 574 521 q 396 414 429 521 q 384 330 384 374 m 425 141 q 503 245 426 221 q 582 256 537 256 l 582 245 q 582 212 582 235 q 581 152 581 175 q 587 54 581 68 q 575 56 582 56 q 562 50 571 54 q 507 38 529 38 q 433 96 454 38 q 425 141 425 119 z "},"ු":{"ha":1,"x_min":-787,"x_max":-75,"o":"m -787 -194 q -720 -83 -787 -118 q -654 -68 -689 -68 q -529 -145 -563 -69 l -570 -161 q -651 -107 -597 -111 q -732 -153 -708 -107 q -741 -190 -741 -171 q -628 -260 -738 -259 l -119 -260 l -119 170 l -75 290 l -75 -311 l -643 -311 q -780 -235 -753 -311 q -787 -194 -787 -214 z "},"ූ":{"ha":1,"x_min":-770,"x_max":-77,"o":"m -770 -191 q -704 -79 -770 -115 q -636 -61 -673 -61 q -507 -129 -549 -62 l -548 -142 q -629 -99 -578 -100 q -712 -144 -689 -99 q -719 -174 -719 -159 q -661 -243 -719 -228 q -628 -247 -644 -247 q -465 -205 -578 -247 q -282 -161 -351 -161 q -132 -218 -190 -161 q -122 -229 -126 -225 l -122 194 l -77 273 l -77 -313 l -109 -313 q -202 -216 -137 -248 q -274 -199 -237 -199 q -435 -255 -332 -199 q -591 -319 -538 -311 q -624 -321 -609 -321 q -751 -260 -713 -321 q -770 -191 -770 -229 z "},"ඹ":{"ha":842,"x_min":39,"x_max":781,"o":"m 39 302 q 115 71 39 160 q 267 0 178 1 q 353 20 309 1 q 350 66 355 38 q 342 102 349 80 q 332 149 332 132 q 384 231 332 214 q 411 235 397 235 q 486 175 472 235 q 488 149 488 163 q 476 84 488 137 q 472 65 473 73 q 469 20 467 35 q 553 0 514 0 q 736 130 670 0 q 781 336 781 221 q 661 665 781 544 q 397 766 556 766 q 95 633 197 766 q 83 617 88 625 l 125 617 q 342 732 208 720 q 395 735 368 735 q 659 598 568 735 q 720 388 720 506 q 661 176 720 258 q 575 123 621 125 q 526 136 543 123 q 528 171 530 152 q 445 271 521 251 q 411 275 427 275 q 308 218 339 275 q 294 171 297 197 q 296 136 292 151 q 247 123 279 123 q 111 228 153 123 q 88 350 88 283 q 134 503 88 446 q 193 536 161 534 q 228 492 227 530 l 228 458 q 312 319 228 357 q 389 304 347 304 q 529 373 488 304 q 548 441 548 404 q 487 559 548 524 q 426 575 460 575 q 334 521 359 575 q 324 477 324 499 q 373 395 324 420 q 422 382 395 382 q 507 431 479 382 l 507 426 q 450 354 507 376 q 392 343 423 343 q 270 416 294 343 q 264 456 264 435 l 264 491 q 240 560 263 541 q 197 572 221 572 q 68 463 113 572 q 39 302 39 391 m 363 480 q 400 537 363 521 q 425 543 411 543 q 481 505 465 543 q 487 480 487 494 q 449 425 487 441 q 425 419 438 419 q 368 457 384 419 q 363 480 363 468 z "},"න":{"ha":1067,"x_min":34,"x_max":1006,"o":"m 34 193 q 85 176 60 176 q 167 227 132 176 q 187 256 174 236 q 274 368 233 328 q 298 430 298 393 q 251 509 298 496 q 236 510 243 510 q 183 464 190 510 q 183 457 183 460 q 126 392 174 393 q 76 430 87 392 q 73 450 73 441 q 127 551 73 514 q 203 571 161 571 q 326 490 297 571 q 335 434 335 463 q 334 419 335 425 q 548 555 414 514 q 670 574 610 574 q 926 465 829 574 q 1006 243 1006 373 q 910 33 1006 99 q 802 -1 860 -1 q 711 22 746 -1 l 711 61 q 784 37 741 37 q 879 107 849 37 q 895 191 895 145 q 766 425 895 345 q 578 477 682 477 q 354 392 437 476 q 457 408 400 408 q 623 332 563 408 q 659 224 659 283 q 518 24 659 80 q 366 -1 450 -1 q 72 114 157 -1 q 34 193 45 149 m 151 160 q 340 129 231 129 q 563 209 509 129 q 582 271 582 237 q 510 363 582 336 q 445 374 480 374 q 252 289 316 374 q 221 243 240 274 q 151 160 182 179 z "},"ඳ":{"ha":703,"x_min":35,"x_max":652,"o":"m 152 224 q 269 31 152 88 q 422 -1 334 -1 q 532 12 487 -1 q 433 -186 437 -111 q 522 -313 433 -285 q 579 -323 548 -321 q 652 -315 620 -323 l 652 -275 q 532 -132 533 -241 q 633 80 532 -38 q 642 90 636 84 q 650 99 647 96 l 618 123 q 471 45 544 47 q 330 117 382 45 q 296 229 296 165 q 441 387 296 374 q 472 388 457 388 l 613 388 q 416 572 578 563 q 343 576 372 576 q 56 412 118 576 q 35 293 35 359 q 119 45 35 137 q 179 0 148 16 l 179 42 q 76 289 76 132 q 251 528 76 487 q 298 536 274 533 q 281 492 281 517 q 320 445 281 453 q 334 444 327 444 q 392 481 374 445 q 449 519 411 518 q 545 464 509 519 q 564 420 559 444 l 407 420 q 152 224 153 418 z "},"ඦ":{"ha":925,"x_min":35,"x_max":886,"o":"m 716 412 q 654 467 666 412 q 651 492 651 479 q 655 537 651 517 q 684 538 666 538 q 780 486 766 538 q 781 471 781 477 q 738 415 781 427 q 716 412 727 412 m 566 410 q 562 442 562 429 q 616 528 563 506 q 614 494 614 515 q 640 411 616 445 q 605 412 627 412 q 566 410 586 412 m 178 225 q 372 18 178 65 q 529 0 442 0 q 815 96 730 0 q 861 222 861 149 q 760 384 860 338 q 822 468 821 404 q 741 567 822 541 q 689 575 715 575 q 666 574 673 575 q 736 674 689 635 q 842 741 765 699 q 886 784 886 764 q 848 818 883 817 q 735 760 796 817 q 623 568 650 682 q 522 438 524 541 q 532 377 522 407 q 552 378 537 377 q 604 382 585 382 q 793 298 761 382 q 799 266 799 282 q 585 134 799 151 q 521 132 553 132 q 251 218 297 132 q 240 262 240 239 q 328 368 240 338 q 437 382 373 382 q 480 380 449 382 q 486 431 486 403 q 400 562 486 530 q 362 571 382 568 q 316 574 340 574 q 54 415 113 574 q 35 293 35 361 q 119 45 35 137 q 179 0 148 16 l 179 42 q 76 289 76 132 q 186 510 76 452 q 221 525 203 519 q 206 479 206 505 q 243 426 206 437 q 258 425 251 425 q 313 467 292 425 q 319 476 316 471 q 378 515 339 514 q 444 460 433 515 q 446 438 446 449 q 444 412 446 430 q 410 414 430 414 q 205 320 264 414 q 178 225 178 277 z "},"ඞ":{"ha":817,"x_min":61,"x_max":755,"o":"m 117 460 q 157 401 117 419 q 189 395 172 395 q 252 434 233 395 q 258 460 258 448 q 218 518 258 500 q 189 524 203 524 q 123 486 142 524 q 117 460 117 473 m 61 620 q 372 770 180 770 q 646 647 534 770 q 755 345 755 524 q 666 49 755 140 q 551 0 616 0 q 419 50 468 0 q 395 79 408 62 q 250 0 331 1 q 95 83 146 0 q 68 186 68 129 q 148 320 68 277 q 237 342 190 342 q 305 338 262 342 q 370 334 347 334 q 453 411 452 336 q 358 530 453 495 q 283 544 320 544 q 243 541 263 544 q 294 457 293 513 q 244 376 294 406 q 187 361 218 361 q 95 408 127 361 q 80 458 80 433 q 184 564 80 537 q 275 575 225 575 q 469 488 414 575 q 492 406 492 450 q 422 304 492 328 q 370 297 399 297 q 307 301 343 297 q 240 305 269 305 q 140 255 164 305 q 133 224 133 240 q 201 140 133 161 q 255 132 227 132 q 368 180 340 132 q 376 216 376 197 l 376 244 l 412 244 l 412 216 q 490 136 412 153 q 532 130 510 130 q 670 256 632 130 q 688 392 688 316 q 589 647 688 545 q 368 738 498 738 q 104 620 210 736 l 61 620 z "},"ණ":{"ha":1275,"x_min":28,"x_max":1213,"o":"m 28 236 l 43 202 q 132 239 104 236 q 209 182 171 239 q 263 100 262 103 q 483 0 345 1 q 734 133 656 0 q 739 142 736 138 q 829 52 766 68 q 854 47 842 47 q 945 90 911 49 q 1013 7 955 28 q 1059 -1 1035 -1 q 1207 146 1180 -1 q 1213 222 1213 182 q 1145 435 1213 374 q 1078 461 1115 461 q 962 377 991 461 q 952 332 955 355 q 854 378 917 378 q 769 336 807 377 q 662 518 751 453 q 860 572 768 555 q 1092 609 951 590 q 1143 654 1142 618 q 1100 697 1143 690 q 1085 699 1092 699 q 869 650 1015 699 q 606 548 731 602 q 476 574 543 574 q 262 490 330 574 q 225 380 225 442 q 227 359 225 366 q 28 236 113 293 m 264 387 q 355 514 264 472 q 472 538 408 538 q 556 526 519 538 q 264 381 412 463 l 264 387 m 457 127 q 255 205 340 127 q 198 256 199 256 q 152 274 174 274 q 236 323 206 307 q 372 220 267 240 q 425 214 397 214 q 513 231 479 214 q 586 317 572 254 q 589 342 589 330 q 532 441 589 407 q 499 454 515 450 q 609 499 553 479 q 696 332 689 433 q 598 163 696 218 q 457 127 538 127 m 353 342 q 392 254 354 289 q 271 342 296 270 q 363 391 302 359 q 353 342 353 366 m 392 342 q 435 412 392 391 q 471 420 453 420 q 541 376 519 420 q 548 342 548 359 q 505 271 548 292 q 471 263 487 263 q 400 307 422 263 q 392 342 392 324 m 853 91 q 777 151 803 91 q 765 212 766 179 q 773 266 772 239 q 842 338 793 330 q 853 339 848 339 q 940 214 939 336 q 882 96 940 118 q 853 91 867 91 m 974 140 l 974 146 q 982 213 982 176 q 978 262 982 239 q 1048 397 986 396 q 1112 224 1112 395 q 1066 60 1112 81 q 1042 54 1055 54 q 977 110 990 54 q 974 140 974 123 z "},"ඬ":{"ha":967,"x_min":35,"x_max":907,"o":"m 136 380 l 281 380 q 178 241 193 342 q 176 214 176 228 q 251 43 176 104 q 378 0 304 0 q 530 79 468 1 q 654 1 581 9 q 682 0 669 0 q 882 164 827 0 q 907 342 907 241 q 781 669 907 547 q 518 770 674 770 q 212 620 316 769 l 256 620 q 510 736 353 736 q 777 604 681 736 q 848 373 848 503 q 765 161 848 224 q 671 132 724 132 q 555 189 579 132 q 548 221 548 205 l 548 259 l 510 259 l 510 221 q 431 137 510 155 q 384 132 408 132 q 255 195 293 132 q 240 250 240 220 q 304 354 240 317 q 410 380 347 380 l 506 380 q 387 566 502 532 l 388 566 q 316 574 359 574 q 54 415 113 574 q 35 293 35 361 q 119 45 35 137 q 179 0 148 16 l 179 42 q 76 289 76 132 q 190 514 76 456 q 222 526 206 521 q 214 495 214 511 q 251 448 214 456 q 264 446 258 446 q 316 479 298 448 q 377 517 340 517 q 446 464 420 517 q 460 418 457 442 l 136 418 l 136 380 z "},"ඟ":{"ha":991,"x_min":35,"x_max":932,"o":"m 199 274 q 285 53 199 133 q 430 -3 346 -3 q 595 83 544 -3 q 621 180 621 126 q 556 312 621 282 q 513 321 536 321 q 483 315 494 320 q 585 449 505 412 q 659 464 620 464 q 831 353 787 464 q 850 251 850 307 q 770 76 850 140 q 635 33 715 33 q 602 35 623 33 l 602 1 q 644 -1 632 -1 q 876 110 795 -1 q 932 288 932 187 q 846 514 932 433 q 699 572 784 572 q 481 419 551 572 q 441 255 449 346 l 476 255 q 479 281 476 264 q 510 289 492 289 q 562 245 552 289 q 563 228 563 236 q 486 138 563 160 q 430 132 460 132 q 281 218 328 132 q 256 320 256 264 q 334 496 256 431 q 449 538 384 538 l 464 538 l 464 571 q 457 572 461 571 q 450 572 452 572 q 316 574 415 574 q 54 415 113 574 q 35 293 35 361 q 119 45 35 137 q 179 0 148 16 l 179 42 q 76 289 76 132 q 297 538 76 518 q 330 540 313 540 q 205 342 231 477 q 199 274 199 308 z "},"ඤ":{"ha":1356,"x_min":35,"x_max":1299,"o":"m 270 152 q 338 281 290 209 q 406 359 370 328 q 562 382 457 382 q 760 300 711 382 q 777 235 777 270 q 728 144 777 171 q 677 132 705 132 q 576 198 593 132 q 572 243 572 218 l 572 244 l 537 244 l 537 243 q 435 132 534 133 q 345 155 399 132 q 305 165 321 165 q 270 152 288 164 m 194 28 l 229 15 q 281 96 237 95 q 319 65 297 96 q 389 5 351 18 q 435 -1 411 -1 q 557 84 521 0 q 692 -1 600 -1 q 836 96 798 0 q 1067 -3 905 -3 q 1177 12 1128 -3 q 1080 -186 1081 -109 q 1172 -315 1080 -288 q 1225 -323 1196 -321 q 1299 -315 1267 -323 l 1299 -275 q 1179 -132 1180 -241 q 1279 77 1179 -39 q 1287 87 1282 81 q 1297 98 1294 95 l 1264 123 q 1116 43 1190 46 q 975 117 1027 43 q 943 228 943 165 q 1100 388 943 380 q 1119 388 1111 388 l 1260 388 q 1096 566 1229 536 q 906 586 1028 586 q 643 548 758 586 q 456 452 534 513 q 457 473 457 461 q 395 566 457 541 q 351 574 374 572 q 316 575 335 575 q 56 419 115 575 q 35 293 35 363 q 119 45 35 137 q 179 0 148 16 l 179 42 q 76 289 76 132 q 190 513 76 456 q 235 529 212 524 l 236 529 q 203 450 203 495 q 237 396 203 408 q 258 393 248 393 q 309 427 296 395 q 320 471 312 434 q 323 480 321 476 q 374 517 336 514 q 420 467 418 513 q 389 400 419 434 q 311 308 336 345 q 208 92 243 214 q 194 28 198 57 m 567 418 q 456 407 500 418 q 732 533 581 502 q 899 548 808 548 q 937 547 924 548 q 906 492 907 525 q 945 445 906 453 q 959 444 952 444 q 1017 481 1000 445 q 1074 522 1039 521 q 1183 471 1137 522 q 1211 419 1204 448 l 1053 419 q 812 302 857 418 q 589 418 746 410 q 567 418 576 418 z "},"ඔ":{"ha":842,"x_min":39,"x_max":781,"o":"m 363 480 q 401 537 363 521 q 425 541 412 541 q 481 505 465 541 q 487 480 487 494 q 449 425 487 441 q 425 419 438 419 q 368 457 384 419 q 363 480 363 468 m 39 297 q 109 75 39 163 q 259 0 168 1 q 404 73 365 1 q 522 0 431 7 q 537 0 529 0 q 760 179 705 0 q 781 336 781 250 q 661 663 781 543 q 399 765 557 765 q 91 629 194 765 q 83 617 87 623 l 125 617 q 350 732 206 720 q 395 734 372 734 q 663 600 572 734 q 722 399 722 513 q 648 175 722 250 q 540 130 602 130 q 427 191 449 130 q 422 220 422 205 l 422 243 l 387 243 l 387 221 q 304 132 387 146 q 266 129 285 129 q 117 225 165 129 q 88 350 88 281 q 134 503 88 446 q 193 536 161 534 q 227 492 224 526 l 227 449 q 313 312 227 349 q 392 297 350 297 q 536 366 492 297 q 555 437 555 399 q 488 560 555 525 q 426 575 460 575 q 332 519 358 575 q 323 477 323 499 q 370 393 323 420 q 422 380 395 380 q 511 433 483 380 q 514 438 513 435 q 515 431 515 434 q 446 345 515 368 q 391 336 419 336 q 273 401 300 336 q 264 446 264 423 l 264 491 q 240 560 263 541 q 197 572 221 572 q 69 463 114 572 q 39 297 39 388 z "},"ඕ":{"ha":842,"x_min":39,"x_max":781,"o":"m 187 716 q 274 762 187 745 q 376 773 324 773 q 674 625 591 773 q 701 560 692 594 q 369 688 590 688 q 212 673 290 688 q 216 682 216 677 q 199 700 216 689 q 187 716 189 709 m 56 585 q 370 652 201 652 q 674 529 583 652 q 722 380 719 464 q 642 168 719 235 q 540 130 598 130 q 427 191 449 130 q 422 220 422 205 l 422 243 l 387 243 l 387 221 q 304 132 387 146 q 266 129 285 129 q 117 225 165 129 q 88 350 88 281 q 134 503 88 446 q 193 536 161 534 q 227 492 224 526 l 227 449 q 313 312 227 349 q 392 297 350 297 q 536 366 492 297 q 555 437 555 399 q 488 560 555 525 q 426 575 460 575 q 332 519 358 575 q 323 477 323 499 q 370 393 323 420 q 422 380 395 380 q 511 433 483 380 q 514 438 513 435 q 515 431 515 434 q 446 345 515 368 q 391 336 419 336 q 273 401 300 336 q 264 446 264 423 l 264 491 q 240 560 263 541 q 197 572 221 572 q 69 463 114 572 q 39 297 39 388 q 109 75 39 163 q 259 0 168 1 q 404 73 365 1 q 522 0 431 7 q 537 0 529 0 q 760 178 704 0 q 781 327 780 245 l 781 332 l 781 336 q 758 472 779 418 q 585 781 738 690 q 368 833 494 833 q 153 770 220 833 q 129 723 130 746 q 153 688 129 705 q 165 673 165 680 q 83 636 165 665 q 56 627 65 631 l 56 585 m 363 480 q 401 537 363 521 q 425 541 412 541 q 481 505 465 541 q 487 480 487 494 q 449 425 487 441 q 425 419 438 419 q 368 457 384 419 q 363 480 363 468 z "},"ප":{"ha":815,"x_min":41,"x_max":761,"o":"m 41 244 q 161 415 41 372 q 274 433 212 433 q 321 430 290 433 q 323 437 321 433 q 323 445 323 442 q 271 518 323 506 q 252 521 262 521 q 187 476 202 519 q 126 433 168 438 q 75 469 84 433 q 73 484 73 476 q 145 566 73 543 q 209 575 175 575 q 359 483 335 575 q 365 442 365 463 q 359 393 365 416 q 343 395 353 395 q 324 397 334 396 q 307 398 315 397 q 293 399 298 399 l 288 399 q 114 321 145 399 q 106 282 106 302 q 274 144 106 178 q 407 132 335 132 q 651 198 571 132 q 697 290 696 237 q 590 395 697 373 q 522 401 557 401 q 429 392 480 401 q 425 434 425 415 q 525 567 425 541 q 582 574 551 574 q 705 513 671 574 q 716 469 716 491 q 681 401 715 427 q 761 247 760 353 q 594 30 761 91 q 407 0 513 0 q 58 152 125 0 q 41 244 41 194 m 469 445 q 471 430 469 434 q 534 434 506 434 q 647 418 604 434 q 667 465 667 439 q 613 530 667 514 q 572 536 594 536 q 476 480 498 536 q 469 445 469 464 z "},"ඵ":{"ha":769,"x_min":43,"x_max":707,"o":"m 43 218 q 203 20 43 71 q 350 0 269 0 q 655 144 562 0 q 707 324 707 222 q 650 548 707 444 q 637 570 643 559 q 473 753 578 673 q 415 791 442 776 q 359 636 359 726 q 425 495 359 537 q 491 476 454 476 q 608 544 575 477 q 654 373 654 472 q 515 160 654 218 q 354 132 446 132 q 121 212 164 132 q 110 256 110 233 q 218 368 110 343 q 292 374 252 374 l 372 374 l 372 393 q 300 547 372 499 q 208 572 260 572 q 81 519 117 572 q 69 476 69 499 q 107 427 69 435 q 118 426 113 426 q 172 471 156 427 q 241 521 190 519 q 316 469 292 521 q 328 418 328 445 l 328 410 l 308 410 q 45 244 62 410 q 43 218 43 231 m 401 644 q 426 741 401 697 q 582 583 529 665 q 503 529 559 533 q 406 608 423 529 q 401 644 401 625 z "},"ර":{"ha":699,"x_min":41,"x_max":697,"o":"m 41 282 q 231 553 42 475 q 292 576 251 562 q 514 685 437 629 q 519 689 517 688 q 594 766 547 709 q 658 807 628 807 q 697 776 693 803 q 587 658 697 718 q 585 656 586 656 q 385 575 494 606 q 564 490 486 572 q 570 484 568 486 q 639 298 639 406 q 537 75 639 163 q 328 0 450 0 q 102 102 186 0 q 41 282 41 179 m 94 324 q 180 164 94 217 q 311 132 236 132 q 513 222 444 132 q 556 357 556 279 q 454 522 556 475 q 347 544 408 544 q 163 472 243 544 q 94 324 95 408 z "},"ස":{"ha":897,"x_min":7,"x_max":831,"o":"m 68 203 q 141 43 68 104 q 269 -1 195 -1 q 441 109 395 0 q 609 0 484 1 q 804 103 749 0 q 831 220 831 153 q 765 369 831 312 q 728 393 747 384 q 766 464 761 422 q 674 568 766 549 q 631 572 654 572 q 488 483 530 572 q 468 385 468 439 l 468 372 q 595 384 533 384 q 768 260 766 382 q 686 145 768 178 q 609 132 651 132 q 465 199 487 132 q 461 225 461 212 l 461 259 l 425 259 l 425 225 q 347 140 425 161 q 288 132 319 132 q 151 195 191 132 q 134 252 134 222 q 225 362 134 331 q 296 373 260 373 l 415 373 l 415 392 q 332 553 415 510 q 248 572 296 572 q 123 521 160 572 q 109 476 109 500 q 145 427 109 435 q 157 426 152 426 q 212 469 195 427 q 285 521 231 519 q 359 471 332 521 q 373 412 373 442 l 373 408 l 7 408 l 7 365 q 179 373 38 370 q 69 222 77 334 q 68 203 68 213 m 507 411 q 623 517 519 515 q 709 476 692 517 q 713 456 713 465 q 693 406 712 426 q 590 419 651 419 q 507 411 537 419 z "},"ශ":{"ha":836,"x_min":45,"x_max":770,"o":"m 45 273 q 133 43 45 118 q 262 -1 187 -1 q 430 88 378 -1 q 454 183 454 132 q 376 317 454 298 q 347 321 362 321 q 319 316 331 321 q 418 445 334 406 q 498 463 456 463 q 663 354 608 463 q 694 236 690 300 q 639 244 665 244 q 503 171 544 244 q 486 99 486 138 q 528 8 486 37 q 566 -4 545 -4 q 627 22 594 -4 q 655 34 643 34 q 670 19 669 31 q 665 1 669 9 l 701 1 q 765 189 746 58 q 770 259 770 227 q 688 503 770 412 q 529 572 624 572 q 282 305 328 572 q 275 255 278 279 l 309 255 q 315 279 313 277 q 345 289 328 289 q 401 227 396 279 q 324 137 401 160 q 270 130 297 130 q 117 235 160 130 q 100 324 100 277 q 193 507 100 448 q 315 540 245 540 l 332 540 l 332 571 q 323 571 331 571 q 311 572 313 572 q 88 449 160 572 q 45 273 45 373 m 528 104 q 587 198 528 171 q 639 209 612 209 q 697 198 675 209 l 697 165 q 682 58 694 96 q 658 72 674 71 q 610 50 646 72 q 574 37 589 37 q 528 104 529 41 z "},"ෂ":{"ha":804,"x_min":41,"x_max":761,"o":"m 41 244 q 271 11 41 54 q 407 0 334 0 q 708 102 614 0 q 761 247 761 161 q 681 401 760 354 q 716 469 716 429 q 659 556 716 526 q 582 574 625 574 q 431 483 460 574 q 425 434 425 460 q 429 393 425 415 q 522 403 481 403 q 613 391 572 403 q 515 357 571 366 q 381 347 458 347 q 228 273 229 346 q 359 194 228 203 q 392 193 376 193 q 572 271 571 194 q 529 328 571 309 q 648 376 600 342 q 701 283 700 343 q 563 146 701 189 q 404 126 491 126 q 145 197 224 126 q 104 282 104 233 q 227 395 104 374 q 288 400 255 400 q 359 395 311 400 q 365 442 365 418 q 259 570 365 548 q 209 575 236 575 q 85 524 118 575 q 73 483 73 505 q 114 434 73 444 q 127 433 121 433 q 189 477 175 434 q 251 522 203 521 q 319 476 302 522 q 324 445 324 461 q 323 437 324 442 q 323 430 323 433 q 274 433 286 433 q 60 330 111 433 q 41 244 41 292 m 469 446 q 533 530 469 510 q 572 536 552 536 q 663 487 644 536 q 667 465 667 476 q 646 418 666 439 q 534 435 600 435 q 471 431 502 435 q 469 446 469 438 m 269 275 q 395 319 271 319 q 533 273 532 317 q 396 228 525 229 q 269 275 270 229 z "},"ත":{"ha":932,"x_min":28,"x_max":879,"o":"m 28 33 q 170 355 49 190 q 213 410 191 385 q 237 461 236 435 q 206 511 237 506 q 199 513 202 513 q 160 476 165 513 q 160 471 160 472 q 102 389 155 391 q 50 434 61 389 q 49 453 49 445 q 106 556 49 519 q 168 574 136 574 q 266 511 243 574 q 273 471 273 491 q 271 460 273 464 q 560 576 377 576 q 810 461 719 576 q 879 245 879 372 q 796 37 879 103 q 684 -1 747 -1 q 602 18 633 -1 l 602 57 q 665 39 635 39 q 766 126 739 39 q 777 197 777 160 q 663 430 777 347 q 471 490 582 490 q 266 406 336 488 q 372 423 308 423 q 582 321 525 423 q 608 214 608 275 q 514 37 608 96 q 373 -3 454 -3 q 187 60 252 -3 q 142 99 152 95 q 118 104 130 104 q 60 12 77 102 l 28 33 m 107 163 q 151 175 123 175 q 231 153 168 175 q 342 133 289 133 q 534 240 517 133 q 537 264 537 252 q 458 374 537 340 q 374 391 419 391 q 209 345 271 389 q 107 163 148 270 z "},"ථ":{"ha":812,"x_min":43,"x_max":750,"o":"m 43 311 q 144 507 43 429 q 324 570 224 570 l 324 536 q 145 458 213 536 q 99 332 99 403 q 271 146 99 187 q 404 132 331 132 q 639 231 556 132 q 694 392 694 300 q 652 555 694 481 q 537 486 618 487 q 419 568 454 486 q 404 647 404 605 q 460 802 406 738 q 644 637 557 749 q 682 581 666 608 q 750 353 746 471 q 750 334 750 343 q 627 75 750 171 q 391 -1 528 -1 q 125 103 224 -1 q 43 311 43 189 m 445 651 q 545 536 448 537 q 627 594 608 538 q 472 750 574 675 q 445 651 445 708 z "},"ට":{"ha":798,"x_min":42,"x_max":738,"o":"m 42 275 q 152 476 42 407 q 308 518 221 518 q 425 496 370 518 l 425 457 q 311 481 374 481 q 136 408 193 481 q 104 313 104 366 q 233 153 104 199 q 366 132 294 132 q 632 251 553 132 q 674 408 674 317 q 582 640 674 544 q 365 731 494 731 q 121 623 206 730 l 76 623 q 362 764 174 762 q 648 627 541 764 q 738 359 738 513 q 618 84 738 187 q 377 -1 519 -1 q 96 113 187 -1 q 42 275 42 182 z "},"ඨ":{"ha":812,"x_min":43,"x_max":780,"o":"m 43 258 q 126 467 43 385 q 201 513 161 499 q 293 528 247 528 l 293 492 q 286 494 290 492 q 279 494 281 494 q 133 411 186 494 q 100 300 100 359 q 168 155 100 201 q 250 132 203 132 q 378 206 355 132 q 384 244 384 224 l 384 288 l 422 288 l 422 244 q 517 134 422 151 q 551 132 533 132 q 709 250 669 132 q 724 345 724 294 q 673 547 724 461 q 667 555 670 552 q 551 486 632 487 q 434 568 468 486 q 419 647 419 605 q 475 802 420 738 q 659 637 572 749 q 697 581 681 608 q 780 308 780 438 q 703 61 780 148 q 559 0 644 0 q 401 79 461 1 q 252 0 338 1 q 76 114 134 0 q 43 258 43 179 m 460 651 q 560 534 463 536 q 642 594 623 537 q 487 750 591 671 q 460 651 460 711 z "},"උ":{"ha":861,"x_min":42,"x_max":799,"o":"m 42 132 q 179 -133 42 -33 q 434 -213 290 -213 q 709 -111 602 -213 q 799 91 799 -26 l 760 91 q 656 -98 760 -24 q 480 -153 578 -153 q 255 -52 339 -153 q 187 149 187 31 q 321 343 187 300 q 426 358 368 358 l 713 358 l 713 366 q 620 541 713 484 q 498 572 566 572 q 358 507 380 572 q 354 483 354 496 q 389 434 354 445 q 408 431 399 431 q 468 469 446 433 q 544 513 496 511 q 648 454 609 513 q 670 392 667 425 l 350 392 q 94 283 179 392 q 42 132 42 217 z "},"ඌ":{"ha":1312,"x_min":42,"x_max":1249,"o":"m 42 132 q 179 -133 42 -33 q 434 -213 290 -213 q 709 -111 602 -213 q 799 91 799 -26 l 760 91 q 656 -98 760 -24 q 480 -153 578 -153 q 255 -52 339 -153 q 187 149 187 31 q 321 343 187 300 q 426 358 368 358 l 713 358 l 713 366 q 620 541 713 484 q 498 572 566 572 q 358 507 380 572 q 354 483 354 496 q 389 434 354 445 q 408 431 399 431 q 468 469 446 433 q 544 513 496 511 q 648 454 609 513 q 670 392 667 425 l 350 392 q 94 283 179 392 q 42 132 42 217 m 772 425 q 836 298 772 336 q 901 281 865 281 q 1010 343 987 281 q 1017 381 1017 362 q 968 456 1016 429 l 968 465 q 1029 529 971 528 q 1118 339 1112 529 q 1118 315 1118 327 q 1035 56 1118 72 q 1021 54 1028 54 q 937 126 955 54 q 933 165 933 145 q 937 208 933 186 l 902 208 q 897 159 897 184 q 971 14 897 54 q 1046 -3 1005 -3 q 1232 153 1185 -3 q 1249 292 1249 216 q 1168 533 1249 460 q 1058 572 1122 572 q 935 495 956 572 q 930 463 930 479 q 932 446 930 452 q 959 384 959 416 q 911 321 959 330 q 897 320 903 320 q 818 382 837 320 q 811 426 811 403 q 868 567 812 518 l 821 567 q 772 425 772 513 z "},"ව":{"ha":791,"x_min":43,"x_max":726,"o":"m 43 218 q 203 22 43 73 q 354 0 270 0 q 671 155 576 0 q 726 363 726 243 q 610 663 726 548 q 366 764 510 764 q 76 623 175 762 l 119 623 q 366 731 210 731 q 600 616 511 731 q 669 407 669 525 q 521 161 669 227 q 358 132 452 132 q 119 213 163 132 q 109 256 109 233 q 197 358 109 332 q 273 369 232 369 l 387 369 l 387 384 q 277 564 387 529 q 213 572 247 572 q 87 519 122 572 q 75 476 75 499 q 114 427 75 434 q 125 426 119 426 q 178 471 163 427 q 227 517 193 510 q 252 519 239 519 q 330 465 305 519 q 342 408 342 439 l 342 403 l 263 403 q 66 311 121 403 q 43 218 43 269 z "},"ය":{"ha":842,"x_min":39,"x_max":784,"o":"m 39 245 q 142 469 39 395 q 296 515 208 515 q 332 513 309 515 l 332 475 q 290 479 309 479 q 125 396 180 479 q 94 296 94 350 q 178 148 94 189 q 255 132 212 132 q 374 179 338 132 q 391 228 391 202 l 391 263 l 426 263 l 426 229 q 509 141 426 165 q 576 132 541 132 q 722 224 697 132 q 726 262 726 243 q 540 396 723 395 q 426 381 480 396 q 425 411 425 392 q 545 570 425 545 q 597 574 570 574 q 735 505 711 574 q 739 473 739 490 q 699 404 739 425 q 690 401 693 403 q 784 239 776 351 q 784 221 784 229 q 697 37 784 99 q 578 -1 646 -1 q 407 94 449 0 q 247 -1 361 0 q 66 113 121 -1 q 39 245 39 172 m 465 423 q 543 430 494 430 q 656 416 616 430 q 686 464 685 431 q 631 519 686 505 q 597 524 614 524 q 465 431 475 524 q 465 423 465 427 z "},"෴":{"ha":2307,"x_min":68,"x_max":2234,"o":"m 1708 57 l 1742 178 l 1545 56 l 1583 233 l 1379 99 l 1401 316 l 1192 119 l 1175 351 l 997 156 l 956 347 l 784 152 l 747 301 l 598 102 l 559 216 l 477 75 q 426 118 452 117 q 320 68 387 118 q 202 1 247 11 q 167 -3 184 -3 q 76 49 100 -3 q 68 90 68 68 q 114 167 68 148 q 142 172 127 172 q 209 126 191 172 q 213 100 213 113 q 191 46 212 66 q 210 41 201 41 q 324 106 248 41 q 429 176 399 168 q 445 179 438 179 q 491 155 477 178 l 600 342 l 647 210 l 814 434 l 853 274 l 1035 483 l 1076 285 l 1272 509 l 1290 254 l 1522 468 l 1491 210 l 1709 351 l 1666 164 l 1855 285 l 1815 168 q 1855 179 1835 179 q 1965 115 1891 179 q 2074 43 2040 52 q 2090 41 2082 41 q 2110 46 2105 42 q 2087 100 2087 66 q 2125 164 2087 144 q 2159 172 2142 172 q 2228 122 2211 172 q 2234 90 2234 106 q 2173 3 2234 23 q 2135 -3 2154 -3 q 1992 57 2075 -3 q 1891 118 1922 109 q 1861 122 1874 122 q 1708 57 1792 121 z "},"ඏ":{"ha":1085,"x_min":41,"x_max":1024,"o":"m 848 71 q 880 103 854 98 q 914 71 909 96 q 888 38 914 45 q 880 37 884 37 q 849 62 856 37 q 848 71 848 66 m 940 104 q 882 140 921 138 q 868 138 872 140 q 895 247 895 186 q 815 401 894 354 q 852 469 852 430 q 826 530 850 505 q 812 575 812 556 q 840 597 814 597 q 955 484 916 597 q 982 317 982 410 q 945 115 982 187 q 940 104 943 109 m 770 590 q 779 563 772 575 q 715 574 747 574 q 566 477 590 574 q 560 434 560 457 q 563 392 560 407 q 655 401 616 401 q 826 324 798 401 q 831 290 831 308 q 693 152 831 193 q 540 132 624 132 q 270 208 342 132 q 240 282 240 240 q 354 393 240 370 q 422 399 387 399 q 492 393 446 399 q 498 442 498 416 q 387 571 498 552 q 345 575 366 575 q 289 568 316 575 q 294 590 294 576 q 231 637 286 635 q 77 517 130 637 q 41 317 41 433 q 91 76 41 172 q 183 1 129 3 q 247 42 229 1 q 252 71 252 57 l 252 76 q 540 0 346 0 q 814 77 716 1 l 814 71 q 854 7 814 24 q 882 1 868 1 q 1002 152 962 1 q 1024 317 1024 232 q 941 589 1024 500 q 834 637 894 637 q 770 590 773 633 m 151 71 q 184 103 157 98 q 217 71 212 96 q 193 38 217 45 q 184 37 189 37 q 152 62 159 37 q 151 71 151 66 m 176 244 q 201 137 176 182 q 183 140 189 140 q 125 104 142 138 q 83 317 85 180 q 145 552 83 472 q 225 597 180 595 q 254 578 252 594 q 229 536 252 562 q 208 484 208 513 q 248 434 208 442 q 260 433 254 433 q 321 476 307 434 q 387 521 335 519 q 453 475 438 521 q 457 445 457 460 q 456 437 457 442 q 456 430 456 433 q 408 433 422 433 q 194 328 245 433 q 176 244 176 290 m 604 445 q 670 532 604 513 q 707 536 688 536 q 799 487 780 536 q 803 465 803 476 q 781 418 802 439 q 667 434 736 434 q 604 430 637 434 q 602 437 602 430 l 604 445 z "},"ඐ":{"ha":1592,"x_min":41,"x_max":1531,"o":"m 848 71 q 880 103 854 98 q 914 71 909 96 q 888 38 914 45 q 880 37 884 37 q 849 62 856 37 q 848 71 848 66 m 940 104 q 882 140 921 138 q 868 138 872 140 q 895 247 895 186 q 815 401 894 354 q 852 469 852 430 q 826 530 850 505 q 812 575 812 556 q 840 597 814 597 q 955 484 916 597 q 982 317 982 410 q 945 115 982 187 q 940 104 943 109 m 770 590 q 779 563 772 575 q 715 574 747 574 q 566 477 590 574 q 560 434 560 457 q 563 392 560 407 q 655 401 616 401 q 826 324 798 401 q 831 290 831 308 q 693 152 831 193 q 540 132 624 132 q 270 208 342 132 q 240 282 240 240 q 354 393 240 370 q 422 399 387 399 q 492 393 446 399 q 498 442 498 416 q 387 571 498 552 q 345 575 366 575 q 289 568 316 575 q 294 590 294 576 q 231 637 286 635 q 77 517 130 637 q 41 317 41 433 q 91 76 41 172 q 183 1 129 3 q 247 42 229 1 q 252 71 252 57 l 252 76 q 540 0 346 0 q 814 77 716 1 l 814 71 q 854 7 814 24 q 882 1 868 1 q 1002 152 962 1 q 1024 317 1024 232 q 941 589 1024 500 q 834 637 894 637 q 770 590 773 633 m 151 71 q 184 103 157 98 q 217 71 212 96 q 193 38 217 45 q 184 37 189 37 q 152 62 159 37 q 151 71 151 66 m 176 244 q 201 137 176 182 q 183 140 189 140 q 125 104 142 138 q 83 317 85 180 q 145 552 83 472 q 225 597 180 595 q 254 578 252 594 q 229 536 252 562 q 208 484 208 513 q 248 434 208 442 q 260 433 254 433 q 321 476 307 434 q 387 521 335 519 q 453 475 438 521 q 457 445 457 460 q 456 437 457 442 q 456 430 456 433 q 408 433 422 433 q 194 328 245 433 q 176 244 176 290 m 604 445 q 670 532 604 513 q 707 536 688 536 q 799 487 780 536 q 803 465 803 476 q 781 418 802 439 q 667 434 736 434 q 604 430 637 434 q 602 437 602 430 l 604 445 m 1054 425 q 1118 298 1054 336 q 1183 281 1147 281 q 1293 343 1270 281 q 1299 381 1299 362 q 1251 456 1298 429 l 1251 465 q 1313 529 1255 526 q 1398 354 1390 529 q 1400 315 1400 335 q 1326 58 1400 83 q 1303 54 1316 54 q 1221 122 1240 54 q 1215 165 1215 142 q 1219 208 1215 186 l 1184 208 q 1179 159 1179 184 q 1253 15 1179 56 q 1329 -3 1287 -3 q 1515 157 1470 -3 q 1531 292 1531 217 q 1450 533 1531 460 q 1341 572 1405 572 q 1218 495 1240 572 q 1214 463 1214 479 q 1215 446 1214 452 q 1241 384 1241 419 q 1194 321 1241 330 q 1179 320 1185 320 q 1101 382 1120 320 q 1095 426 1095 403 q 1152 567 1096 518 l 1103 567 q 1054 425 1054 513 z "},"ඍ":{"ha":1184,"x_min":41,"x_max":1126,"o":"m 817 330 l 817 320 l 850 320 l 850 326 q 917 463 850 442 q 940 465 929 465 q 1015 293 1015 463 q 905 273 951 293 q 817 141 818 232 q 868 23 817 65 q 937 -1 898 -1 q 1005 19 960 -1 q 1020 23 1015 23 q 1040 4 1034 20 l 1104 4 q 1103 30 1103 14 q 1111 110 1103 45 q 1126 269 1126 222 q 1039 500 1126 444 q 964 521 1006 521 q 829 414 861 521 q 817 330 817 374 m 857 141 q 936 245 859 221 q 1015 256 970 256 l 1015 245 q 1015 212 1015 235 q 1013 152 1013 175 q 1020 54 1013 72 q 1008 56 1015 56 q 994 50 1004 54 q 940 38 962 38 q 865 96 887 38 q 857 141 857 119 m 41 203 q 114 43 41 104 q 243 -1 170 -1 q 415 109 369 0 q 583 0 458 1 q 779 103 723 0 q 806 220 806 153 q 738 370 806 313 q 703 393 722 385 q 739 454 734 414 q 741 464 741 460 q 648 568 741 548 q 604 572 627 572 q 461 483 503 572 q 441 385 441 439 l 441 372 q 571 384 506 384 q 734 296 705 384 q 741 255 741 277 q 661 145 741 178 q 582 132 625 132 q 439 195 464 132 q 434 225 434 209 l 434 259 l 399 259 l 399 225 q 321 140 399 161 q 262 132 293 132 q 123 197 164 132 q 107 252 107 222 q 205 373 107 343 q 275 384 237 384 q 388 372 321 384 l 388 392 q 305 553 388 510 q 221 572 269 572 q 96 521 132 572 q 83 476 83 499 q 119 427 83 435 q 130 426 125 426 q 186 469 170 427 q 258 521 212 517 q 334 471 305 521 q 347 415 347 444 l 347 411 q 274 419 319 419 q 75 321 137 419 q 41 203 41 270 m 481 411 q 595 517 492 515 q 682 476 665 517 q 686 456 686 465 q 667 406 685 426 q 563 419 625 419 q 481 411 511 419 z "},"ඎ":{"ha":1510,"x_min":41,"x_max":1455,"o":"m 817 330 l 817 320 l 850 320 l 850 326 q 917 463 850 442 q 940 465 929 465 q 1015 293 1015 463 q 905 273 951 293 q 817 141 818 232 q 868 23 817 65 q 937 -1 898 -1 q 1005 19 960 -1 q 1020 23 1015 23 q 1040 4 1034 20 l 1104 4 q 1103 30 1103 14 q 1111 110 1103 45 q 1126 269 1126 222 q 1039 500 1126 444 q 964 521 1006 521 q 829 414 861 521 q 817 330 817 374 m 857 141 q 936 245 859 221 q 1015 256 970 256 l 1015 245 q 1015 212 1015 235 q 1013 152 1013 175 q 1020 54 1013 72 q 1008 56 1015 56 q 994 50 1004 54 q 940 38 962 38 q 865 96 887 38 q 857 141 857 119 m 1146 330 l 1146 320 l 1180 320 l 1180 326 q 1246 463 1180 442 q 1270 465 1259 465 q 1344 293 1344 463 q 1234 273 1280 293 q 1146 141 1147 232 q 1198 23 1146 65 q 1267 -1 1227 -1 q 1335 19 1290 -1 q 1350 23 1344 23 q 1370 4 1363 20 l 1435 4 q 1434 30 1434 14 q 1442 110 1434 45 q 1455 269 1455 222 q 1369 500 1455 444 q 1294 521 1336 521 q 1158 414 1191 521 q 1146 330 1146 374 m 1187 141 q 1265 245 1188 221 q 1344 256 1299 256 l 1344 245 q 1344 212 1344 235 q 1343 152 1343 175 q 1350 54 1343 72 q 1337 56 1344 56 q 1324 50 1333 54 q 1270 38 1291 38 q 1195 96 1217 38 q 1187 141 1187 119 m 41 203 q 114 43 41 104 q 243 -1 170 -1 q 415 109 369 0 q 583 0 458 1 q 779 103 723 0 q 806 220 806 153 q 738 370 806 313 q 703 393 722 385 q 739 454 734 414 q 741 464 741 460 q 648 568 741 548 q 604 572 627 572 q 461 483 503 572 q 441 385 441 439 l 441 372 q 571 384 506 384 q 734 296 705 384 q 741 255 741 277 q 661 145 741 178 q 582 132 625 132 q 439 195 464 132 q 434 225 434 209 l 434 259 l 399 259 l 399 225 q 321 140 399 161 q 262 132 293 132 q 123 197 164 132 q 107 252 107 222 q 205 373 107 343 q 275 384 237 384 q 388 372 321 384 l 388 392 q 305 553 388 510 q 221 572 269 572 q 96 521 132 572 q 83 476 83 499 q 119 427 83 435 q 130 426 125 426 q 186 469 170 427 q 258 521 212 517 q 334 471 305 521 q 347 415 347 444 l 347 411 q 274 419 319 419 q 75 321 137 419 q 41 203 41 270 m 481 411 q 595 517 496 513 q 682 476 665 517 q 686 456 686 465 q 667 406 685 426 q 563 419 625 419 q 481 411 511 419 z "},"/":{"ha":571,"x_min":0,"x_max":557,"o":"m 95 -210 l 557 963 l 463 963 l 0 -210 l 95 -210 z "}," ":{"ha":264,"x_min":0,"x_max":0,"o":""},"£":{"ha":776,"x_min":62,"x_max":745,"o":"m 745 220 l 716 220 q 549 121 685 125 q 533 121 541 121 q 308 152 446 121 q 323 278 323 210 q 316 404 323 335 l 526 404 l 526 444 l 313 444 q 304 589 304 532 q 433 791 307 788 q 526 727 507 791 q 536 686 530 713 q 571 606 547 623 q 617 594 590 594 q 692 644 677 594 q 696 670 696 658 q 586 800 696 757 q 434 827 518 827 q 189 723 267 827 q 141 578 141 661 q 163 444 141 522 l 75 444 l 75 404 l 176 404 q 195 346 183 385 q 241 167 237 224 q 168 176 191 176 q 68 115 88 176 q 62 84 62 99 q 111 8 62 31 q 155 0 132 0 q 286 95 237 1 q 328 68 300 87 q 496 -16 434 -3 q 545 -22 522 -22 q 730 110 686 -22 q 745 220 745 157 m 153 38 q 107 73 114 38 q 106 84 106 79 q 144 136 106 123 q 165 138 155 138 q 240 119 203 138 q 178 42 229 60 q 153 38 164 38 z "},"∑":{"ha":640,"x_min":7,"x_max":633,"o":"m 631 -176 l 631 91 l 600 91 l 574 7 q 498 -60 556 -49 q 437 -64 475 -64 l 104 -64 l 465 369 l 464 369 l 178 777 l 411 777 q 532 735 498 777 q 568 652 552 707 l 589 585 l 617 585 l 633 814 l 7 814 l 7 784 l 347 301 l 7 -109 l 7 -176 l 631 -176 z "},"t":{"ha":461,"x_min":24,"x_max":454,"o":"m 24 543 l 119 543 l 119 178 q 267 -14 119 0 q 290 -15 279 -15 q 444 99 406 -15 q 454 141 450 119 l 418 148 q 320 26 388 27 q 250 130 251 28 l 250 543 l 446 543 l 446 576 l 250 576 l 250 734 l 119 705 l 119 576 l 24 576 l 24 543 z "},"ť":{"ha":461,"x_min":24,"x_max":458,"o":"m 24 543 l 119 543 l 119 178 q 267 -14 119 0 q 290 -15 279 -15 q 444 99 406 -15 q 454 141 450 119 l 418 148 q 320 26 388 27 q 250 130 251 28 l 250 543 l 446 543 l 446 576 l 250 576 l 250 734 l 119 705 l 119 576 l 24 576 l 24 543 m 458 815 q 399 914 458 895 q 368 920 384 920 q 297 875 320 920 q 288 836 288 856 q 338 762 288 784 q 355 757 347 758 q 391 728 389 747 q 330 624 389 689 l 359 602 q 458 799 449 696 q 458 815 458 808 z "},"þ":{"ha":757,"x_min":35,"x_max":709,"o":"m 260 -222 l 260 54 q 412 -14 312 -7 q 427 -14 420 -14 q 635 81 553 -14 q 709 305 709 170 q 617 547 709 467 q 479 595 560 595 q 292 505 358 595 q 258 438 270 475 l 258 882 l 35 882 l 35 846 l 129 846 l 129 -152 q 84 -218 129 -208 q 37 -222 65 -222 l 37 -258 l 378 -258 q 361 -224 378 -227 q 346 -222 354 -222 l 260 -222 m 425 537 q 564 335 551 537 q 566 289 566 312 q 458 31 566 73 q 411 22 437 22 q 279 126 319 22 q 259 263 259 183 q 342 506 259 437 q 425 537 380 537 z "},"¾":{"ha":1020,"x_min":54,"x_max":958,"o":"m 420 811 l 420 831 l 71 831 l 69 675 l 90 675 l 104 713 q 149 745 117 742 q 171 745 157 745 l 308 745 l 167 600 l 187 583 q 240 595 216 595 q 316 494 315 593 q 220 361 313 362 q 172 403 179 361 q 170 423 171 410 q 141 486 164 475 q 110 492 127 492 q 54 441 60 484 q 141 346 54 372 q 217 336 176 336 q 391 397 326 336 q 435 498 435 441 q 359 608 435 574 q 277 623 323 623 q 221 617 258 623 l 420 811 m 262 -42 l 850 827 l 807 856 l 217 -14 l 262 -42 m 958 -61 q 930 -31 947 -34 l 864 -31 l 864 65 l 958 65 l 958 98 l 864 98 l 864 271 l 842 271 l 831 243 q 777 197 815 201 q 760 195 769 195 l 749 195 l 749 98 l 553 99 q 734 235 724 228 q 868 411 867 346 q 810 464 859 458 q 747 420 770 464 q 731 384 742 410 q 601 183 678 264 q 507 99 559 140 l 514 68 l 749 66 l 749 -31 l 647 -31 l 647 -61 l 958 -61 z "},"³":{"ha":500,"x_min":54,"x_max":435,"o":"m 420 860 l 420 880 l 71 880 l 69 724 l 90 724 l 104 762 q 149 793 117 791 q 171 793 157 793 l 308 793 l 167 648 l 187 632 q 240 644 216 644 q 316 543 315 642 q 220 410 313 411 q 172 452 179 410 q 170 472 171 458 q 141 534 164 524 q 110 541 127 541 q 54 490 60 533 q 141 395 54 420 q 217 385 176 385 q 391 446 326 385 q 435 547 435 490 q 359 656 435 623 q 277 671 323 671 q 221 666 258 671 l 420 860 z "},"˜":{"ha":678,"x_min":146,"x_max":555,"o":"m 270 869 q 373 825 311 869 q 453 788 425 788 q 525 859 505 788 q 526 864 526 863 l 555 859 q 446 701 533 716 q 430 700 438 700 q 328 745 389 700 q 248 781 277 781 q 179 723 199 781 q 174 705 176 713 l 146 711 q 270 869 180 860 z "},"™":{"ha":780,"x_min":26,"x_max":754,"o":"m 263 491 q 244 511 260 510 l 214 511 l 214 795 l 220 795 q 231 794 225 795 q 240 793 236 793 q 248 789 244 792 q 254 785 252 787 q 260 780 256 784 q 264 774 263 776 q 268 768 266 773 q 271 762 270 762 q 274 754 271 761 l 277 747 l 294 699 l 315 699 l 312 814 l 28 814 l 26 699 l 45 699 l 64 747 q 91 788 77 781 q 121 795 103 795 l 125 795 l 125 511 l 77 511 l 77 491 l 263 491 m 534 486 l 637 754 l 637 511 l 600 511 l 600 491 l 754 491 q 735 511 751 510 l 720 511 l 720 795 l 754 795 l 754 814 l 636 814 l 549 591 l 438 814 l 340 814 l 340 795 l 376 795 l 376 511 l 340 511 l 340 491 l 444 491 q 425 511 441 510 l 401 511 l 401 703 l 517 486 l 534 486 z "},"²":{"ha":477,"x_min":42,"x_max":403,"o":"m 109 528 q 202 593 118 556 q 345 670 311 642 q 393 766 392 713 q 290 882 393 853 q 216 891 255 891 q 68 840 118 891 q 42 779 42 812 q 98 726 45 727 q 149 747 136 726 q 159 794 163 769 q 166 841 156 819 q 209 863 176 863 q 270 806 262 863 q 273 770 273 789 q 194 635 273 690 q 156 609 182 625 q 61 526 81 562 q 42 454 42 494 l 42 441 l 401 441 l 403 594 l 384 594 l 369 557 q 323 528 358 530 q 297 528 312 528 l 109 528 z "},"u":{"ha":766,"x_min":24,"x_max":734,"o":"m 700 34 l 642 34 l 642 579 l 418 579 l 418 545 l 510 545 l 510 232 q 429 69 506 117 q 365 50 397 50 q 251 155 267 50 q 248 193 248 174 l 248 579 l 24 579 l 24 545 l 118 545 l 118 214 q 312 -14 119 -12 q 481 73 418 -14 q 513 127 500 99 l 522 0 l 734 0 q 716 33 734 30 q 700 34 709 34 z "},"ú":{"ha":766,"x_min":24,"x_max":734,"o":"m 700 34 l 642 34 l 642 579 l 418 579 l 418 545 l 510 545 l 510 232 q 429 69 506 117 q 365 50 397 50 q 251 155 267 50 q 248 193 248 174 l 248 579 l 24 579 l 24 545 l 118 545 l 118 214 q 312 -14 119 -12 q 481 73 418 -14 q 513 127 500 99 l 522 0 l 734 0 q 716 33 734 30 q 700 34 709 34 m 513 773 q 536 819 534 795 q 498 880 536 860 q 468 888 483 888 q 427 872 445 887 q 359 785 414 860 q 270 680 313 723 l 292 654 q 452 738 327 677 q 513 773 496 760 z "},"û":{"ha":766,"x_min":24,"x_max":734,"o":"m 700 34 l 642 34 l 642 579 l 418 579 l 418 545 l 510 545 l 510 232 q 429 69 506 117 q 365 50 397 50 q 251 155 267 50 q 248 193 248 174 l 248 579 l 24 579 l 24 545 l 118 545 l 118 214 q 312 -14 119 -12 q 481 73 418 -14 q 513 127 500 99 l 522 0 l 734 0 q 716 33 734 30 q 700 34 709 34 m 552 677 l 568 701 q 467 822 548 723 q 384 876 415 872 q 308 829 347 876 q 281 795 300 819 q 202 700 235 736 l 218 678 q 387 766 297 726 q 552 677 458 734 z "},"ü":{"ha":766,"x_min":24,"x_max":734,"o":"m 700 34 l 642 34 l 642 579 l 418 579 l 418 545 l 510 545 l 510 232 q 429 69 506 117 q 365 50 397 50 q 251 155 267 50 q 248 193 248 174 l 248 579 l 24 579 l 24 545 l 118 545 l 118 214 q 312 -14 119 -12 q 481 73 418 -14 q 513 127 500 99 l 522 0 l 734 0 q 716 33 734 30 q 700 34 709 34 m 338 772 q 296 842 338 819 q 262 850 278 850 q 190 806 212 850 q 183 772 183 788 q 229 703 183 722 q 262 696 245 696 q 330 738 309 696 q 338 772 338 754 m 589 772 q 545 842 589 821 q 510 850 528 850 q 441 807 463 850 q 433 772 433 789 q 477 703 433 723 q 510 696 494 696 q 581 739 560 696 q 589 772 589 755 z "}}}
